<?xml version="1.0" encoding="UTF-8" standalone="no"?>
<!-- Created with Inkscape (http://www.inkscape.org/) -->

<svg
   version="1.1"
   id="svg2"
   xml:space="preserve"
   width="606.66669"
   height="46.666668"
   viewBox="0 0 606.66669 46.666668"
   sodipodi:docname="04ohum5f7la9s.pdf"
   xmlns:inkscape="http://www.inkscape.org/namespaces/inkscape"
   xmlns:sodipodi="http://sodipodi.sourceforge.net/DTD/sodipodi-0.dtd"
   xmlns="http://www.w3.org/2000/svg"
   xmlns:svg="http://www.w3.org/2000/svg"><defs
     id="defs6" /><sodipodi:namedview
     id="namedview4"
     pagecolor="#505050"
     bordercolor="#eeeeee"
     borderopacity="1"
     inkscape:pageshadow="0"
     inkscape:pageopacity="0"
     inkscape:pagecheckerboard="0" /><g
     id="g8"
     inkscape:groupmode="layer"
     inkscape:label="04ohum5f7la9s"
     transform="matrix(1.3333333,0,0,1.3333333,0,1.5e-6)"><g
       id="g10"><text
         transform="translate(1.509982,7.44)"
         style="font-variant:normal;font-size:7.92px;font-family:CairoFont-0;-inkscape-font-specification:CairoFont-0-0;writing-mode:lr-tb;fill:#dd1100;fill-opacity:1;fill-rule:nonzero;stroke:none"
         id="text14"><tspan
           x="0 4.7757602 9.6227999 15.048 20.045521 24.72624 29.57328 31.76712 36.780479 41.627522 44.732159"
           y="0"
           sodipodi:role="line"
           id="tspan12">PaXEvaluate</tspan></text><text
         transform="translate(51.861232,7.44)"
         style="font-variant:normal;font-size:7.92px;font-family:CairoFont-0;-inkscape-font-specification:CairoFont-0-0;writing-mode:lr-tb;fill:#000000;fill-opacity:1;fill-rule:nonzero;stroke:none"
         id="text18"><tspan
           x="0"
           y="0"
           id="tspan16">:</tspan></text><text
         transform="translate(58.037465,7.44)"
         style="font-variant:normal;font-size:7.92px;font-family:CairoFont-0;-inkscape-font-specification:CairoFont-0-0;writing-mode:lr-tb;fill:#898989;fill-opacity:1;fill-rule:nonzero;stroke:none"
         id="text22"><tspan
           x="0 4.8312001 9.8445597 17.226 22.0968 26.777519 31.7988 33.992641 36.186481 40.534561 42.728401 48.335758 51.590881 56.461681 60.580078 65.593437 67.787277 73.394638 76.18248 81.021599 86.79528 89.899918 94.913277 102.29472 107.13384 111.48192 115.83 120.84336 124.09848 127.3536 129.54744 134.56081 142.08479 147.61296 155.16072 157.94856 162.96191 167.97528 172.32336 175.42799 177.62184 182.46095"
           y="0"
           sodipodi:role="line"
           id="tspan20">TheexplicitresultfortheoccurringC0function</tspan></text><text
         transform="translate(245.51179,7.44)"
         style="font-variant:normal;font-size:7.92px;font-family:CairoFont-1;-inkscape-font-specification:CairoFont-1-0;writing-mode:lr-tb;fill:#898989;fill-opacity:1;fill-rule:nonzero;stroke:none"
         id="text26"><tspan
           x="0"
           y="0"
           id="tspan24">(</tspan></text><text
         transform="translate(248.14915,7.44)"
         style="font-variant:normal;font-size:7.92px;font-family:CairoFont-0;-inkscape-font-specification:CairoFont-0-0;writing-mode:lr-tb;fill:#898989;fill-opacity:1;fill-rule:nonzero;stroke:none"
         id="text30"><tspan
           x="0"
           y="0"
           id="tspan28">s</tspan></text><text
         transform="translate(252.26755,7.44)"
         style="font-variant:normal;font-size:7.92px;font-family:CairoFont-1;-inkscape-font-specification:CairoFont-1-0;writing-mode:lr-tb;fill:#898989;fill-opacity:1;fill-rule:nonzero;stroke:none"
         id="text34"><tspan
           x="0"
           y="0"
           id="tspan32">)</tspan></text><text
         transform="translate(257.39971,7.44)"
         style="font-variant:normal;font-size:7.92px;font-family:CairoFont-0;-inkscape-font-specification:CairoFont-0-0;writing-mode:lr-tb;fill:#898989;fill-opacity:1;fill-rule:nonzero;stroke:none"
         id="text40"><tspan
           x="0 2.19384 8.8308001 13.7016 18.38232 23.403601 28.274401 32.622478 35.727119 40.597919 48.121922 51.226559 58.576321 63.597599 70.979042 75.65976 80.530563 83.785683 90.977043 95.325119 100.16424 107.87832 112.8996 115.09344 117.28728 121.63536 126.4824 129.58704 134.45784 139.47913 144.48456 149.26031 151.45416 156.32497 161.172 165.29041 172.67184 175.92696 180.79776 184.05289 189.06624"
           y="0"
           sodipodi:role="line"
           id="tspan36">isexpectedtobeverycomplicated.Pleasererun</tspan><tspan
           x="-232.75845 -227.9827 -223.13565 -217.71045 -212.71294 -208.03221 -203.18518 -200.99133 -195.97798 -191.13094 -188.02629 -180.66069 -174.19006 -171.99622 -168.89157 -161.36757 -158.26294 -153.24957 -145.86813 -141.02902 -136.00774 -132.90309 -130.70926 -125.87014 -118.34614 -113.57037 -108.72334 -103.29813 -97.769974 -92.732857 -87.735336 -83.054619 -78.033333 -73.21006 -68.196693"
           y="11.8"
           sodipodi:role="line"
           id="tspan38">PaXEvaluatewiththeoptionPaXC0Expand</tspan></text><text
         transform="translate(194.22429,19.24)"
         style="font-variant:normal;font-size:7.92px;font-family:CairoFont-1;-inkscape-font-specification:CairoFont-1-0;writing-mode:lr-tb;fill:#898989;fill-opacity:1;fill-rule:nonzero;stroke:none"
         id="text44"><tspan
           x="0 4.6173601"
           y="0"
           sodipodi:role="line"
           id="tspan42">-&gt;</tspan></text><text
         transform="translate(203.45901,19.24)"
         style="font-variant:normal;font-size:7.92px;font-family:CairoFont-0;-inkscape-font-specification:CairoFont-0-0;writing-mode:lr-tb;fill:#898989;fill-opacity:1;fill-rule:nonzero;stroke:none"
         id="text50"><tspan
           x="0 4.8312001 8.0863199 13.09968 20.481119 23.58576 30.93552 35.053921 40.06728 44.906399 53.88768 56.992321 62.00568 69.387123 72.642242 77.513039 81.631439 86.644798 88.838638 94.453918 99.467278 104.33808 109.0188 113.8896 117.14472 120.24936 125.26272 130.13351 132.32736 137.19817 141.31656 145.41119 150.4404 155.21616 157.41 162.28081 167.12784 171.24625 178.61977 182.73816 187.60896"
           y="0"
           sodipodi:role="line"
           id="tspan46">Truetoshowtheresultnevertheless.Pleaseset</tspan><tspan
           x="-178.81776 -173.78064 -169.22664 -163.69849 -158.2812 -153.25992 -148.57919 -146.40912 -142.06104"
           y="11.8"
           sodipodi:role="line"
           id="tspan48">$FCAdvice</tspan></text><text
         transform="translate(66.268769,31.04)"
         style="font-variant:normal;font-size:7.92px;font-family:CairoFont-1;-inkscape-font-specification:CairoFont-1-0;writing-mode:lr-tb;fill:#898989;fill-opacity:1;fill-rule:nonzero;stroke:none"
         id="text54"><tspan
           x="0"
           y="0"
           id="tspan52">=</tspan></text><text
         transform="translate(70.886129,31.04)"
         style="font-variant:normal;font-size:7.92px;font-family:CairoFont-0;-inkscape-font-specification:CairoFont-0-0;writing-mode:lr-tb;fill:#898989;fill-opacity:1;fill-rule:nonzero;stroke:none"
         id="text58"><tspan
           x="0 4.5539999 9.4010401 11.59488 15.71328 23.094721 25.288561 30.73752 35.41824 40.257359 47.781361 52.802639 60.152401 65.165756 70.004883 75.628082 82.098717 86.945763 91.959122 97.574402 100.67904 108.0288 112.1472 117.018 124.40736 127.512 132.52536 134.71919 141.34032 149.0544 153.9252 158.04359 162.162 167.00903 172.03032 179.41176 181.60561 189.12959 191.91743 196.9308 200.03545 205.0488 208.30392 213.17471"
           y="0"
           sodipodi:role="line"
           id="tspan56">Falseifyoudonotwanttoseethismessageinfuture.</tspan></text></g></g></svg>
