<?xml version="1.0" encoding="UTF-8" standalone="no"?>
<!-- Created with Inkscape (http://www.inkscape.org/) -->

<svg
   version="1.1"
   id="svg2"
   xml:space="preserve"
   width="457.33334"
   height="20"
   viewBox="0 0 457.33334 20"
   sodipodi:docname="0jtvg6eca9xzx.pdf"
   xmlns:inkscape="http://www.inkscape.org/namespaces/inkscape"
   xmlns:sodipodi="http://sodipodi.sourceforge.net/DTD/sodipodi-0.dtd"
   xmlns="http://www.w3.org/2000/svg"
   xmlns:svg="http://www.w3.org/2000/svg"><defs
     id="defs6"><clipPath
       clipPathUnits="userSpaceOnUse"
       id="clipPath18"><path
         d="m 0,3 h 12.961 v 8.762 H 0 Z"
         id="path16" /></clipPath></defs><sodipodi:namedview
     id="namedview4"
     pagecolor="#505050"
     bordercolor="#eeeeee"
     borderopacity="1"
     inkscape:pageshadow="0"
     inkscape:pageopacity="0"
     inkscape:pagecheckerboard="0" /><g
     id="g8"
     inkscape:groupmode="layer"
     inkscape:label="0jtvg6eca9xzx"
     transform="scale(1.3333333)"><g
       id="g10" /><g
       id="g12"><g
         id="g14"
         clip-path="url(#clipPath18)"><path
           d="m 12.113,6.73 c 0,-1.554 -1.261,-2.816 -2.816,-2.816 H 3.664 c -1.559,0 -2.82,1.262 -2.82,2.816 v 1.551 c 0,1.555 1.261,2.817 2.82,2.817 h 5.633 c 1.555,0 2.816,-1.262 2.816,-2.817 V 6.73"
           style="fill:none;stroke:#e5e5e5;stroke-width:0.7128;stroke-linecap:square;stroke-linejoin:miter;stroke-miterlimit:3.25;stroke-dasharray:none;stroke-opacity:1"
           id="path20" /><path
           d="M 7.258,7.508 C 7.258,7.301 7.176,7.102 7.031,6.957 6.883,6.809 6.688,6.727 6.48,6.727 6.273,6.727 6.074,6.809 5.93,6.957 5.785,7.102 5.703,7.301 5.703,7.508 c 0,0.203 0.082,0.402 0.227,0.547 0.144,0.148 0.343,0.23 0.55,0.23 0.208,0 0.403,-0.082 0.551,-0.23 C 7.176,7.91 7.258,7.711 7.258,7.508 Z"
           style="fill:#ff5454;fill-opacity:1;fill-rule:evenodd;stroke:none"
           id="path22" /><path
           d="M 10.074,7.508 C 10.074,7.301 9.992,7.102 9.848,6.957 9.703,6.809 9.504,6.727 9.297,6.727 9.09,6.727 8.895,6.809 8.746,6.957 8.602,7.102 8.52,7.301 8.52,7.508 c 0,0.203 0.082,0.402 0.226,0.547 0.149,0.148 0.344,0.23 0.551,0.23 0.207,0 0.406,-0.082 0.551,-0.23 0.144,-0.145 0.226,-0.344 0.226,-0.547 z"
           style="fill:#ff5454;fill-opacity:1;fill-rule:evenodd;stroke:none"
           id="path24" /><path
           d="M 4.441,7.508 C 4.441,7.301 4.359,7.102 4.211,6.957 4.066,6.809 3.867,6.727 3.664,6.727 3.457,6.727 3.258,6.809 3.113,6.957 2.969,7.102 2.887,7.301 2.887,7.508 c 0,0.203 0.082,0.402 0.226,0.547 0.145,0.148 0.344,0.23 0.551,0.23 0.203,0 0.402,-0.082 0.547,-0.23 0.148,-0.145 0.23,-0.344 0.23,-0.547 z"
           style="fill:#ff5454;fill-opacity:1;fill-rule:evenodd;stroke:none"
           id="path26" /></g></g><g
       id="g28"><text
         transform="translate(14.509982,10)"
         style="font-variant:normal;font-size:7.92px;font-family:CairoFont-0;-inkscape-font-specification:CairoFont-0-0;writing-mode:lr-tb;fill:#dd1100;fill-opacity:1;fill-rule:nonzero;stroke:none"
         id="text32"><tspan
           x="0 6.2330399 11.25432 14.35896 16.552799 21.39192 26.405279 31.822559 36.669601 38.863441 43.876801"
           y="0"
           sodipodi:role="line"
           id="tspan30">OptionValue</tspan></text><text
         transform="translate(64.006232,10)"
         style="font-variant:normal;font-size:7.92px;font-family:CairoFont-0;-inkscape-font-specification:CairoFont-0-0;writing-mode:lr-tb;fill:#000000;fill-opacity:1;fill-rule:nonzero;stroke:none"
         id="text36"><tspan
           x="0"
           y="0"
           id="tspan34">:</tspan></text><text
         transform="translate(70.182465,10)"
         style="font-variant:normal;font-size:7.92px;font-family:CairoFont-0;-inkscape-font-specification:CairoFont-0-0;writing-mode:lr-tb;fill:#898989;fill-opacity:1;fill-rule:nonzero;stroke:none"
         id="text40"><tspan
           x="0 6.2330399 11.25432 14.35896 16.552799 21.39192 28.908001 33.92136 38.768398 46.482479 53.863918 58.27536 63.10656 67.945679 72.784798 74.978638 79.097038 83.872803 88.719841 91.824478 99.340561 104.35392 109.19304 114.81624 117.60408 122.4432 127.45656 132.46992 139.99393 142.18776 149.71176 154.73305 159.60384 162.39168 167.23872 172.25208 174.44592 177.55057 184.17168 186.95952 191.79865 197.57233 201.98376 206.81496 211.65408 216.49319 218.68704 222.80544 227.21687 232.056 236.90305 241.92432 246.33575 248.50584 253.52711 256.78223 261.62927 264.8844 269.56512"
           y="0"
           sodipodi:role="line"
           id="tspan38">OptionnameLToolsPathnotfoundindefaultsforLToolsLoadLibrary.</tspan></text></g></g></svg>
