<?xml version="1.0" encoding="UTF-8" standalone="no"?>
<!-- Created with Inkscape (http://www.inkscape.org/) -->

<svg
   version="1.1"
   id="svg2"
   xml:space="preserve"
   width="606.66669"
   height="46.666668"
   viewBox="0 0 606.66669 46.666668"
   sodipodi:docname="0nwzbpg5gzgtm.pdf"
   xmlns:inkscape="http://www.inkscape.org/namespaces/inkscape"
   xmlns:sodipodi="http://sodipodi.sourceforge.net/DTD/sodipodi-0.dtd"
   xmlns="http://www.w3.org/2000/svg"
   xmlns:svg="http://www.w3.org/2000/svg"><defs
     id="defs6" /><sodipodi:namedview
     id="namedview4"
     pagecolor="#505050"
     bordercolor="#eeeeee"
     borderopacity="1"
     inkscape:pageshadow="0"
     inkscape:pageopacity="0"
     inkscape:pagecheckerboard="0" /><g
     id="g8"
     inkscape:groupmode="layer"
     inkscape:label="0nwzbpg5gzgtm"
     transform="matrix(1.3333333,0,0,1.3333333,0,1.5e-6)"><g
       id="g10"><text
         transform="translate(1.509982,7.44)"
         style="font-variant:normal;font-size:7.92px;font-family:CairoFont-0;-inkscape-font-specification:CairoFont-0-0;writing-mode:lr-tb;fill:#dd1100;fill-opacity:1;fill-rule:nonzero;stroke:none"
         id="text14"><tspan
           x="0 4.7757602 9.6227999 15.048 20.045521 24.72624 29.57328 31.76712 36.780479 41.627522 44.732159"
           y="0"
           sodipodi:role="line"
           id="tspan12">PaXEvaluate</tspan></text><text
         transform="translate(51.861232,7.44)"
         style="font-variant:normal;font-size:7.92px;font-family:CairoFont-0;-inkscape-font-specification:CairoFont-0-0;writing-mode:lr-tb;fill:#000000;fill-opacity:1;fill-rule:nonzero;stroke:none"
         id="text18"><tspan
           x="0"
           y="0"
           id="tspan16">:</tspan></text><text
         transform="translate(58.037465,7.44)"
         style="font-variant:normal;font-size:7.92px;font-family:CairoFont-0;-inkscape-font-specification:CairoFont-0-0;writing-mode:lr-tb;fill:#898989;fill-opacity:1;fill-rule:nonzero;stroke:none"
         id="text22"><tspan
           x="0 4.8312001 9.8445597 17.226 22.0968 26.777519 31.7988 33.992641 36.186481 40.534561 42.728401 48.335758 51.590881 56.461681 60.580078 65.593437 67.787277 73.394638 76.18248 81.021599 86.79528 89.899918 94.913277 102.29472 107.13384 111.48192 115.83 120.84336 124.09848 127.3536 129.54744 134.56081 142.08479 148.1832 155.73096 158.5188 163.53217 168.54552 172.8936 175.99825 178.19208 183.0312"
           y="0"
           sodipodi:role="line"
           id="tspan20">TheexplicitresultfortheoccurringD0function</tspan></text><text
         transform="translate(246.08203,7.44)"
         style="font-variant:normal;font-size:7.92px;font-family:CairoFont-1;-inkscape-font-specification:CairoFont-1-0;writing-mode:lr-tb;fill:#898989;fill-opacity:1;fill-rule:nonzero;stroke:none"
         id="text26"><tspan
           x="0"
           y="0"
           id="tspan24">(</tspan></text><text
         transform="translate(248.71939,7.44)"
         style="font-variant:normal;font-size:7.92px;font-family:CairoFont-0;-inkscape-font-specification:CairoFont-0-0;writing-mode:lr-tb;fill:#898989;fill-opacity:1;fill-rule:nonzero;stroke:none"
         id="text30"><tspan
           x="0"
           y="0"
           id="tspan28">s</tspan></text><text
         transform="translate(252.83779,7.44)"
         style="font-variant:normal;font-size:7.92px;font-family:CairoFont-1;-inkscape-font-specification:CairoFont-1-0;writing-mode:lr-tb;fill:#898989;fill-opacity:1;fill-rule:nonzero;stroke:none"
         id="text34"><tspan
           x="0"
           y="0"
           id="tspan32">)</tspan></text><text
         transform="translate(257.97786,7.44)"
         style="font-variant:normal;font-size:7.92px;font-family:CairoFont-0;-inkscape-font-specification:CairoFont-0-0;writing-mode:lr-tb;fill:#898989;fill-opacity:1;fill-rule:nonzero;stroke:none"
         id="text40"><tspan
           x="0 2.19384 8.8228798 13.69368 18.374399 23.395679 28.266479 32.614559 35.7192 40.59 48.113998 51.218639 58.568401 63.58968 70.979042 75.65976 80.530563 83.785683 90.969116 95.3172 100.15632 107.8704 112.89168 115.08552 117.27936 121.62744 126.47448 129.57912 134.44992 139.47121 144.48456 149.26031 151.45416 156.32497 161.172 165.29041 172.66393 175.91904 180.78984 184.04495 189.05832"
           y="0"
           sodipodi:role="line"
           id="tspan36">isexpectedtobeverycomplicated.Pleasererun</tspan><tspan
           x="-233.33661 -228.56085 -223.71382 -218.28862 -213.29109 -208.61038 -203.76334 -201.5695 -196.55614 -191.70909 -188.60446 -181.23886 -174.76822 -172.57437 -169.46974 -161.94574 -158.84109 -153.82774 -146.44629 -141.60718 -136.58589 -133.48126 -131.28741 -126.4483 -118.92429 -114.14854 -109.3015 -103.8763 -97.777893 -92.740776 -87.743256 -83.062538 -78.04126 -73.194214 -68.204613"
           y="11.8"
           sodipodi:role="line"
           id="tspan38">PaXEvaluatewiththeoptionPaXD0Expand</tspan></text><text
         transform="translate(194.79453,19.24)"
         style="font-variant:normal;font-size:7.92px;font-family:CairoFont-1;-inkscape-font-specification:CairoFont-1-0;writing-mode:lr-tb;fill:#898989;fill-opacity:1;fill-rule:nonzero;stroke:none"
         id="text44"><tspan
           x="0 4.6173601"
           y="0"
           sodipodi:role="line"
           id="tspan42">-&gt;</tspan></text><text
         transform="translate(204.02925,19.24)"
         style="font-variant:normal;font-size:7.92px;font-family:CairoFont-0;-inkscape-font-specification:CairoFont-0-0;writing-mode:lr-tb;fill:#898989;fill-opacity:1;fill-rule:nonzero;stroke:none"
         id="text50"><tspan
           x="0 4.8312001 8.0863199 13.09968 20.481119 23.58576 30.93552 35.053921 40.06728 44.906399 53.88768 56.992321 62.00568 69.395042 72.650162 77.520958 81.639359 86.652718 88.846558 94.453918 99.467278 104.33808 109.0188 113.8896 117.14472 120.24936 125.26272 130.13351 132.32736 137.19817 141.31656 145.43497 150.4404 155.21616 157.41 162.28081 167.12784 171.24625 178.62769 182.74608 187.61688"
           y="0"
           sodipodi:role="line"
           id="tspan46">Truetoshowtheresultnevertheless.Pleaseset</tspan><tspan
           x="-179.388 -174.35088 -169.79688 -164.26872 -158.85144 -153.83015 -149.14944 -146.97935 -142.63129"
           y="11.8"
           sodipodi:role="line"
           id="tspan48">$FCAdvice</tspan></text><text
         transform="translate(66.268769,31.04)"
         style="font-variant:normal;font-size:7.92px;font-family:CairoFont-1;-inkscape-font-specification:CairoFont-1-0;writing-mode:lr-tb;fill:#898989;fill-opacity:1;fill-rule:nonzero;stroke:none"
         id="text54"><tspan
           x="0"
           y="0"
           id="tspan52">=</tspan></text><text
         transform="translate(70.886129,31.04)"
         style="font-variant:normal;font-size:7.92px;font-family:CairoFont-0;-inkscape-font-specification:CairoFont-0-0;writing-mode:lr-tb;fill:#898989;fill-opacity:1;fill-rule:nonzero;stroke:none"
         id="text58"><tspan
           x="0 4.5539999 9.4010401 11.59488 15.71328 23.094721 25.288561 30.73752 35.41824 40.257359 47.781361 52.802639 60.152401 65.165756 70.004883 75.628082 82.098717 86.945763 91.959122 97.574402 100.67904 108.0288 112.1472 117.018 124.40736 127.512 132.52536 134.71919 141.34032 149.0544 153.9252 158.04359 162.162 167.00903 172.03032 179.41176 181.60561 189.12959 191.91743 196.9308 200.03545 205.0488 208.30392 213.17471"
           y="0"
           sodipodi:role="line"
           id="tspan56">Falseifyoudonotwanttoseethismessageinfuture.</tspan></text></g></g></svg>
