<?xml version="1.0" encoding="UTF-8" standalone="no"?>
<!-- Created with Inkscape (http://www.inkscape.org/) -->

<svg
   version="1.1"
   id="svg1"
   width="374.66666"
   height="20"
   viewBox="0 0 374.66666 20"
   sodipodi:docname="0xax37b3to6o9.pdf"
   xmlns:inkscape="http://www.inkscape.org/namespaces/inkscape"
   xmlns:sodipodi="http://sodipodi.sourceforge.net/DTD/sodipodi-0.dtd"
   xmlns="http://www.w3.org/2000/svg"
   xmlns:svg="http://www.w3.org/2000/svg">
  <defs
     id="defs1">
    <clipPath
       clipPathUnits="userSpaceOnUse"
       id="clipPath2">
      <path
         d="m 0,3 h 12.961 v 9 H 0 Z"
         id="path2" />
    </clipPath>
    <clipPath
       clipPathUnits="userSpaceOnUse"
       id="clipPath4">
      <path
         d="m 0,3 h 12.961 v 9 H 0 Z"
         id="path4" />
    </clipPath>
    <clipPath
       clipPathUnits="userSpaceOnUse"
       id="clipPath6">
      <path
         d="m 0,3 h 12.961 v 9 H 0 Z"
         id="path6" />
    </clipPath>
    <clipPath
       clipPathUnits="userSpaceOnUse"
       id="clipPath8">
      <path
         d="m 0,3 h 12.961 v 9 H 0 Z"
         id="path8" />
    </clipPath>
    <clipPath
       clipPathUnits="userSpaceOnUse"
       id="clipPath21">
      <path
         d="m 270.238,2 h 9.602 v 9 h -9.602 z"
         id="path21" />
    </clipPath>
    <clipPath
       clipPathUnits="userSpaceOnUse"
       id="clipPath23">
      <path
         d="m 270.238,2 h 9.602 v 9 h -9.602 z"
         id="path23" />
    </clipPath>
  </defs>
  <sodipodi:namedview
     id="namedview1"
     pagecolor="#ffffff"
     bordercolor="#999999"
     borderopacity="1"
     inkscape:showpageshadow="0"
     inkscape:pageopacity="0"
     inkscape:pagecheckerboard="0"
     inkscape:deskcolor="#d1d1d1">
    <inkscape:page
       x="0"
       y="0"
       id="page1"
       width="374.66666"
       height="20"
       margin="0"
       bleed="0" />
  </sodipodi:namedview>
  <g
     id="g1"
     inkscape:groupmode="layer"
     inkscape:label="">
    <path
       id="path1"
       d="m 12.113,6.73 c 0,-1.554 -1.261,-2.816 -2.816,-2.816 H 3.664 c -1.559,0 -2.82,1.262 -2.82,2.816 v 1.551 c 0,1.555 1.261,2.817 2.82,2.817 h 5.633 c 1.555,0 2.816,-1.262 2.816,-2.817 V 6.73"
       style="fill:none;stroke:#e5e5e5;stroke-width:0.7128;stroke-linecap:square;stroke-linejoin:miter;stroke-miterlimit:3.25;stroke-dasharray:none;stroke-opacity:1"
       transform="scale(1.3333333)"
       clip-path="url(#clipPath2)" />
    <path
       id="path3"
       d="M 7.258,7.508 C 7.258,7.711 7.176,7.91 7.031,8.055 6.883,8.203 6.688,8.285 6.48,8.285 6.273,8.285 6.074,8.203 5.93,8.055 5.785,7.91 5.703,7.711 5.703,7.508 5.703,7.301 5.785,7.102 5.93,6.957 6.074,6.809 6.273,6.727 6.48,6.727 c 0.208,0 0.403,0.082 0.551,0.23 0.145,0.145 0.227,0.344 0.227,0.551 z"
       style="fill:#ff5454;fill-opacity:1;fill-rule:evenodd;stroke:none"
       transform="scale(1.3333333)"
       clip-path="url(#clipPath4)" />
    <path
       id="path5"
       d="M 10.074,7.508 C 10.074,7.711 9.992,7.91 9.848,8.055 9.703,8.203 9.504,8.285 9.297,8.285 9.09,8.285 8.895,8.203 8.746,8.055 8.602,7.91 8.52,7.711 8.52,7.508 8.52,7.301 8.602,7.102 8.746,6.957 8.895,6.809 9.09,6.727 9.297,6.727 c 0.207,0 0.406,0.082 0.551,0.23 0.144,0.145 0.226,0.344 0.226,0.551 z"
       style="fill:#ff5454;fill-opacity:1;fill-rule:evenodd;stroke:none"
       transform="scale(1.3333333)"
       clip-path="url(#clipPath6)" />
    <path
       id="path7"
       d="M 4.441,7.508 C 4.441,7.711 4.359,7.91 4.211,8.055 4.066,8.203 3.867,8.285 3.664,8.285 3.457,8.285 3.258,8.203 3.113,8.055 2.969,7.91 2.887,7.711 2.887,7.508 c 0,-0.207 0.082,-0.406 0.226,-0.551 0.145,-0.148 0.344,-0.23 0.551,-0.23 0.203,0 0.402,0.082 0.547,0.23 0.148,0.145 0.23,0.344 0.23,0.551 z"
       style="fill:#ff5454;fill-opacity:1;fill-rule:evenodd;stroke:none"
       transform="scale(1.3333333)"
       clip-path="url(#clipPath8)" />
    <path
       id="path9"
       d="m 2.2844688,-5.7197266 c 0.75,0 1.2890625,0.1523438 1.640625,0.4453125 0.328125,0.2929688 0.5039062,0.7148438 0.5039062,1.2421875 0,0.234375 -0.035156,0.4570313 -0.1171875,0.6796875 -0.082031,0.2109375 -0.1992187,0.4101563 -0.375,0.5742188 -0.1757812,0.1757812 -0.4101562,0.3164062 -0.703125,0.4101562 -0.2929687,0.09375 -0.65625,0.140625 -1.078125,0.140625 h -0.65625 V -9.765625e-4 H 0.77275 V -5.7197266 Z M 2.225875,-5.0986328 H 1.4993125 v 2.2617187 h 0.5742188 c 0.3632812,0 0.6679687,-0.035156 0.9023437,-0.1171875 0.2460938,-0.082031 0.421875,-0.1992187 0.5390625,-0.375 0.1054688,-0.1640625 0.1757813,-0.3984375 0.1757813,-0.6679687 0,-0.375 -0.1171875,-0.6445313 -0.3515625,-0.8320313 C 3.0930625,-5.0048828 2.7297813,-5.0986328 2.225875,-5.0986328 Z m 4.921875,0.7382812 c 0.515625,0 0.9023438,0.1171875 1.1601563,0.3398438 0.2460937,0.234375 0.375,0.5976562 0.375,1.1015625 V -9.765625e-4 H 8.1672813 L 8.038375,-0.61035156 H 8.003219 c -0.1289063,0.1640625 -0.2578125,0.29296875 -0.3867188,0.3984375 -0.1289062,0.09375 -0.28125,0.17578125 -0.4453125,0.22265625 -0.1757812,0.046875 -0.375,0.0703125 -0.609375,0.0703125 -0.2578125,0 -0.4921875,-0.046875 -0.703125,-0.140625 C 5.6594688,-0.14160156 5.4954063,-0.28222656 5.3782188,-0.46972656 5.2610313,-0.66894531 5.2024375,-0.90332031 5.2024375,-1.1962891 c 0,-0.421875 0.1757813,-0.75 0.5039063,-0.984375 0.3398437,-0.234375 0.8554687,-0.3632812 1.5585937,-0.3867187 L 7.9915,-2.5908203 v -0.2460938 c 0,-0.3632812 -0.082031,-0.609375 -0.234375,-0.75 -0.1523437,-0.140625 -0.375,-0.2109375 -0.65625,-0.2109375 -0.2226562,0 -0.4335937,0.046875 -0.6328125,0.1054688 -0.2109375,0.070312 -0.3984375,0.140625 -0.5742187,0.2226562 L 5.6829063,-3.9970703 c 0.1757812,-0.09375 0.4101562,-0.1875 0.65625,-0.2578125 C 6.5969688,-4.3251953 6.8665,-4.3603516 7.14775,-4.3603516 Z m 0.1992188,2.2851563 c -0.5273438,0.023437 -0.9023438,0.1171875 -1.1015625,0.2578125 -0.2109375,0.1523437 -0.3046875,0.3632812 -0.3046875,0.6328125 0,0.23437499 0.070312,0.41015624 0.2109375,0.52734374 0.140625,0.1171875 0.3398437,0.1640625 0.5742187,0.1640625 0.3515625,0 0.65625,-0.09375 0.9023438,-0.29296875 0.234375,-0.19921875 0.3515625,-0.51562499 0.3515625,-0.92578129 v -0.3867187 z m 4.6640622,-2.296875 c 0.08203,0 0.152344,0.011719 0.257813,0.011719 0.09375,0.011719 0.175781,0.023437 0.246094,0.035156 l -0.09375,0.65625 c -0.07031,-0.023437 -0.152344,-0.035156 -0.222657,-0.046875 -0.08203,-0.011719 -0.164062,-0.011719 -0.234375,-0.011719 -0.175781,0 -0.328125,0.035156 -0.480468,0.1054688 -0.152344,0.070312 -0.28125,0.1640625 -0.398438,0.2929687 -0.117187,0.1289063 -0.210937,0.2695313 -0.28125,0.4453125 -0.05859,0.1757813 -0.09375,0.375 -0.09375,0.5976563 V -9.765625e-4 H 10.007125 V -4.2900391 h 0.574219 l 0.08203,0.7851563 h 0.03516 c 0.08203,-0.1640625 0.199219,-0.3046875 0.328125,-0.4335938 0.128907,-0.1289062 0.269532,-0.234375 0.433594,-0.3164062 0.164063,-0.082031 0.351563,-0.1171875 0.550781,-0.1171875 z m 2.707032,3.87890624 c 0.105468,0 0.222656,-0.0117188 0.328125,-0.0234375 0.117187,-0.0234375 0.199218,-0.046875 0.28125,-0.0703125 v 0.5390625 c -0.08203,0.03515625 -0.1875,0.0703125 -0.328125,0.09375 -0.140625,0.0234375 -0.269532,0.03515625 -0.398438,0.03515625 -0.222656,0 -0.433594,-0.03515625 -0.621094,-0.1171875 -0.199218,-0.08203125 -0.351562,-0.2109375 -0.457031,-0.41015625 -0.117187,-0.1875 -0.175781,-0.4453125 -0.175781,-0.80859374 v -2.4960938 h -0.609375 v -0.328125 l 0.621094,-0.28125 0.269531,-0.9140625 h 0.421875 v 0.984375 h 1.242187 v 0.5390625 h -1.242187 v 2.484375 c 0,0.26953129 0.05859,0.45703129 0.1875,0.58593754 0.128906,0.12890625 0.28125,0.1875 0.480469,0.1875 z m 0,0"
       style="fill:#dd1100;fill-opacity:1;fill-rule:nonzero;stroke:none"
       aria-label="Part"
       transform="matrix(1.3333333,0,0,1.3333333,19.469667,13.333333)" />
    <path
       id="path10"
       d="m 0.57325781,-0.43457031 c 0,-0.1875 0.046875,-0.33984375 0.140625,-0.41015625 0.10546875,-0.0820313 0.2109375,-0.12890625 0.35156249,-0.12890625 0.1289063,0 0.2578125,0.046875 0.3515625,0.12890625 0.09375,0.0703125 0.1523438,0.22265625 0.1523438,0.41015625 0,0.19921875 -0.058594,0.33984375 -0.1523438,0.421875 -0.09375,0.08203125 -0.2226562,0.12890625 -0.3515625,0.12890625 -0.14062499,0 -0.24609374,-0.046875 -0.35156249,-0.12890625 -0.09375,-0.08203125 -0.140625,-0.22265625 -0.140625,-0.421875 z m 0,-3.42187499 c 0,-0.1992188 0.046875,-0.3515625 0.140625,-0.421875 0.10546875,-0.082031 0.2109375,-0.1289063 0.35156249,-0.1289063 0.1289063,0 0.2578125,0.046875 0.3515625,0.1289063 0.09375,0.070312 0.1523438,0.2226562 0.1523438,0.421875 0,0.1875 -0.058594,0.328125 -0.1523438,0.4101562 -0.09375,0.09375 -0.2226562,0.1289063 -0.3515625,0.1289063 -0.14062499,0 -0.24609374,-0.035156 -0.35156249,-0.1289063 -0.09375,-0.082031 -0.140625,-0.2226562 -0.140625,-0.4101562 z m 0,0"
       style="fill:#000000;fill-opacity:1;fill-rule:nonzero;stroke:none"
       aria-label=":"
       transform="matrix(1.3333333,0,0,1.3333333,41.0755,13.333333)" />
    <g
       id="g10"
       aria-label="PartspeciﬁcationﬁleNames〚1〛islongerthandepthofobject."
       transform="matrix(1.3333333,0,0,1.3333333,48.732667,13.333333)">
      <path
         id="path11"
         d="m 2.2864375,-5.7197266 c 0.75,0 1.2890625,0.1523438 1.640625,0.4453125 0.328125,0.2929688 0.5039062,0.7148438 0.5039062,1.2421875 0,0.234375 -0.035156,0.4570313 -0.1171875,0.6796875 -0.082031,0.2109375 -0.1992187,0.4101563 -0.375,0.5742188 -0.1757812,0.1757812 -0.4101562,0.3164062 -0.703125,0.4101562 -0.2929687,0.09375 -0.65625,0.140625 -1.078125,0.140625 h -0.65625 V -9.765625e-4 H 0.77471875 V -5.7197266 Z m -0.058594,0.6210938 H 1.5012812 v 2.2617187 H 2.0755 c 0.3632812,0 0.6679687,-0.035156 0.9023437,-0.1171875 0.2460938,-0.082031 0.421875,-0.1992187 0.5390625,-0.375 0.1054688,-0.1640625 0.1757813,-0.3984375 0.1757813,-0.6679687 0,-0.375 -0.1171875,-0.6445313 -0.3515625,-0.8320313 C 3.0950312,-5.0048828 2.73175,-5.0986328 2.2278435,-5.0986328 Z m 4.921875,0.7382812 c 0.515625,0 0.9023438,0.1171875 1.1601563,0.3398438 0.2460937,0.234375 0.375,0.5976562 0.375,1.1015625 V -9.765625e-4 H 8.16925 L 8.0403437,-0.61035156 h -0.035156 c -0.1289063,0.1640625 -0.2578125,0.29296875 -0.3867188,0.3984375 -0.1289062,0.09375 -0.28125,0.17578125 -0.4453125,0.22265625 -0.1757812,0.046875 -0.375,0.0703125 -0.609375,0.0703125 -0.2578125,0 -0.4921875,-0.046875 -0.703125,-0.140625 C 5.6614375,-0.14160156 5.497375,-0.28222656 5.3801875,-0.46972656 5.263,-0.66894531 5.2044062,-0.90332031 5.2044062,-1.1962891 c 0,-0.421875 0.1757813,-0.75 0.5039063,-0.984375 0.3398437,-0.234375 0.8554687,-0.3632812 1.5585937,-0.3867187 l 0.7265625,-0.023437 v -0.2460938 c 0,-0.3632812 -0.082031,-0.609375 -0.234375,-0.75 -0.1523437,-0.140625 -0.375,-0.2109375 -0.65625,-0.2109375 -0.2226562,0 -0.4335937,0.046875 -0.6328125,0.1054688 -0.2109375,0.070312 -0.3984375,0.140625 -0.5742187,0.2226562 L 5.684875,-3.9970703 c 0.1757812,-0.09375 0.4101562,-0.1875 0.65625,-0.2578125 0.2578125,-0.070312 0.5273437,-0.1054688 0.8085935,-0.1054688 z m 0.1992188,2.2851563 c -0.5273438,0.023437 -0.9023438,0.1171875 -1.1015625,0.2578125 -0.2109375,0.1523437 -0.3046875,0.3632812 -0.3046875,0.6328125 0,0.23437499 0.070312,0.41015624 0.2109375,0.52734374 0.140625,0.1171875 0.3398437,0.1640625 0.5742187,0.1640625 0.3515625,0 0.65625,-0.09375 0.9023438,-0.29296875 C 7.8645625,-0.98535156 7.98175,-1.3017578 7.98175,-1.7119141 V -2.0986328 Z M 12.013,-4.3720703 c 0.08203,0 0.152344,0.011719 0.257812,0.011719 0.09375,0.011719 0.175782,0.023437 0.246094,0.035156 l -0.09375,0.65625 c -0.07031,-0.023437 -0.152344,-0.035156 -0.222656,-0.046875 -0.08203,-0.011719 -0.164063,-0.011719 -0.234375,-0.011719 -0.175781,0 -0.328125,0.035156 -0.480469,0.1054688 -0.152344,0.070312 -0.28125,0.1640625 -0.398437,0.2929687 -0.117188,0.1289063 -0.210938,0.2695313 -0.28125,0.4453125 -0.05859,0.1757813 -0.09375,0.375 -0.09375,0.5976563 V -9.765625e-4 H 10.009094 V -4.2900391 h 0.574218 l 0.08203,0.7851563 h 0.03516 c 0.08203,-0.1640625 0.199219,-0.3046875 0.328125,-0.4335938 0.128906,-0.1289062 0.269531,-0.234375 0.433594,-0.3164062 0.164062,-0.082031 0.351562,-0.1171875 0.550781,-0.1171875 z m 2.704102,3.87890624 c 0.105468,0 0.222656,-0.0117188 0.328125,-0.0234375 0.117187,-0.0234375 0.199218,-0.046875 0.28125,-0.0703125 v 0.5390625 c -0.08203,0.03515625 -0.1875,0.0703125 -0.328125,0.09375 -0.140625,0.0234375 -0.269532,0.03515625 -0.398438,0.03515625 -0.222656,0 -0.433594,-0.03515625 -0.621094,-0.1171875 -0.199218,-0.08203125 -0.351562,-0.2109375 -0.457031,-0.41015625 -0.117187,-0.1875 -0.175781,-0.4453125 -0.175781,-0.80859374 v -2.4960938 h -0.609375 v -0.328125 l 0.621094,-0.28125 0.269531,-0.9140625 h 0.421875 v 0.984375 h 1.242187 v 0.5390625 h -1.242187 v 2.484375 c 0,0.26953129 0.05859,0.45703129 0.1875,0.58593754 0.128906,0.12890625 0.28125,0.1875 0.480469,0.1875 z m 6.310546,-0.69140624 c 0,0.28124999 -0.07031,0.51562499 -0.199218,0.69140624 -0.152344,0.19921875 -0.339844,0.328125 -0.597657,0.43359375 -0.257812,0.09375 -0.5625,0.140625 -0.914062,0.140625 -0.304688,0 -0.5625,-0.0234375 -0.773438,-0.0703125 -0.210937,-0.046875 -0.410156,-0.1171875 -0.5625,-0.19921875 v -0.64453125 c 0.164063,0.0820313 0.375,0.1640625 0.609375,0.234375 0.246094,0.0820313 0.492188,0.10546875 0.75,0.10546875 0.351563,0 0.609375,-0.046875 0.773438,-0.1640625 0.164062,-0.1171875 0.234375,-0.26953125 0.234375,-0.46875004 0,-0.09375 -0.02344,-0.1992187 -0.08203,-0.28125 -0.07031,-0.082031 -0.164063,-0.1757812 -0.316407,-0.2578125 -0.152343,-0.082031 -0.375,-0.1757812 -0.65625,-0.2929687 -0.28125,-0.1054688 -0.515625,-0.1992188 -0.714843,-0.3164063 -0.199219,-0.1054687 -0.351563,-0.234375 -0.457032,-0.3867187 -0.105468,-0.140625 -0.152343,-0.328125 -0.152343,-0.5742188 0,-0.3632812 0.140625,-0.6445312 0.433593,-0.84375 0.304688,-0.1875 0.691407,-0.2929687 1.171875,-0.2929687 0.257813,0 0.503907,0.035156 0.726563,0.082031 0.222656,0.046875 0.445312,0.1171875 0.644531,0.2109375 l -0.246094,0.5507813 c -0.175781,-0.070312 -0.375,-0.1289063 -0.5625,-0.1875 -0.199218,-0.046875 -0.398437,-0.082031 -0.609375,-0.082031 -0.292968,0 -0.515625,0.046875 -0.667968,0.1523438 -0.152344,0.09375 -0.222657,0.2109375 -0.222657,0.375 0,0.1171875 0.03516,0.2226562 0.105469,0.3046875 0.07031,0.070312 0.1875,0.1523437 0.339844,0.234375 0.164062,0.082031 0.386719,0.1640625 0.65625,0.2695312 0.28125,0.1054688 0.503906,0.2109375 0.703125,0.3164063 0.1875,0.1171875 0.339844,0.234375 0.433594,0.3867187 0.105468,0.1523438 0.152343,0.3515625 0.152343,0.5742188 z m 3.082032,-3.1875 c 0.527343,0 0.949218,0.1875 1.277343,0.5507812 0.316407,0.375 0.480469,0.9257813 0.480469,1.6640625 0,0.4921875 -0.07031,0.9023438 -0.222656,1.23046879 -0.140625,0.33984375 -0.351563,0.5859375 -0.609375,0.76171875 -0.269531,0.1640624975 -0.574219,0.24609375 -0.925781,0.24609375 -0.234375,0 -0.421875,-0.0234375 -0.585938,-0.09375 -0.175781,-0.046875 -0.328125,-0.12890625 -0.445312,-0.22265625 -0.117188,-0.09375 -0.222657,-0.19921875 -0.304688,-0.3046875 h -0.04687 c 0.01172,0.09375 0.01172,0.19921875 0.03516,0.33984375 0,0.140625 0.01172,0.2578125 0.01172,0.36328125 V 1.9208984 h -0.703125 v -6.2109375 h 0.574219 l 0.09375,0.5859375 h 0.03516 c 0.08203,-0.1171875 0.1875,-0.234375 0.304688,-0.3398437 0.117187,-0.09375 0.269531,-0.1757813 0.433593,-0.234375 0.164063,-0.058594 0.363282,-0.09375 0.597657,-0.09375 z m -0.128907,0.5976562 c -0.28125,0 -0.515625,0.046875 -0.691406,0.1640625 -0.175781,0.1171875 -0.304687,0.2695313 -0.386719,0.4921875 -0.08203,0.2226563 -0.128906,0.4921875 -0.128906,0.8320313 v 0.1289062 c 0,0.3515625 0.03516,0.65625 0.117188,0.9023438 0.07031,0.2460937 0.199218,0.43359374 0.375,0.56249999 0.175781,0.12890625 0.421875,0.1875 0.738281,0.1875 0.257812,0 0.46875,-0.0703125 0.632812,-0.2109375 0.175782,-0.15234375 0.304688,-0.33984379 0.375,-0.58593749 0.08203,-0.2578125 0.128907,-0.5390625 0.128907,-0.8554688 0,-0.4921875 -0.09375,-0.890625 -0.28125,-1.1835937 -0.199219,-0.28125 -0.480469,-0.4335938 -0.878907,-0.4335938 z m 4.664063,-0.5976562 c 0.375,0 0.679687,0.082031 0.949219,0.2460937 0.269531,0.1523438 0.46875,0.3867188 0.609375,0.6796875 0.140625,0.28125 0.210937,0.6328125 0.210937,1.0078125 v 0.4335938 H 27.48468 c 0,0.4804687 0.128906,0.8554687 0.363281,1.11328124 0.246094,0.24609375 0.574219,0.375 1.007812,0.375 0.269532,0 0.503907,-0.0234375 0.714844,-0.0820313 0.210938,-0.046875 0.433594,-0.1171875 0.65625,-0.22265625 v 0.62109375 c -0.222656,0.09375 -0.445312,0.1640625 -0.644531,0.2109375 -0.222656,0.046875 -0.480469,0.0703125 -0.761719,0.0703125 -0.410156,0 -0.773437,-0.0820312525 -1.078125,-0.24609375 -0.316406,-0.1640625 -0.5625,-0.41015625 -0.738281,-0.73828125 -0.175781,-0.32812494 -0.246094,-0.72656244 -0.246094,-1.20703124 0,-0.46875 0.07031,-0.8789062 0.222656,-1.2070312 0.164063,-0.3398438 0.375,-0.5976563 0.667969,-0.7851563 0.292969,-0.1757812 0.621094,-0.2695312 0.996094,-0.2695312 z m 0,0.5742187 c -0.339844,0 -0.609375,0.1171875 -0.808594,0.328125 -0.1875,0.2226563 -0.304687,0.515625 -0.339844,0.9023438 h 2.191407 c 0,-0.2460938 -0.04687,-0.4570313 -0.117188,-0.6445313 -0.08203,-0.1757812 -0.1875,-0.3164062 -0.339844,-0.421875 -0.152343,-0.1054687 -0.351562,-0.1640625 -0.585937,-0.1640625 z m 4.558594,3.87890629 c -0.386719,0 -0.726563,-0.0703125 -1.019532,-0.234375 -0.292968,-0.15234375 -0.527343,-0.38671875 -0.691406,-0.71484375 -0.175781,-0.32812504 -0.246094,-0.73828124 -0.246094,-1.25390624 0,-0.5273438 0.08203,-0.9492188 0.257813,-1.2890625 0.175781,-0.328125 0.410156,-0.5625 0.714844,-0.7265625 0.304687,-0.1523438 0.644531,-0.234375 1.03125,-0.234375 0.210937,0 0.421875,0.023437 0.632812,0.070312 0.199219,0.046875 0.363281,0.09375 0.492188,0.1640625 l -0.210938,0.5859375 c -0.128906,-0.046875 -0.28125,-0.09375 -0.445312,-0.140625 -0.175782,-0.035156 -0.339844,-0.058594 -0.480469,-0.058594 -0.292969,0 -0.527344,0.058594 -0.714844,0.1757813 -0.199219,0.1289062 -0.328125,0.3046875 -0.421875,0.5507812 -0.09375,0.234375 -0.128906,0.5390625 -0.128906,0.890625 0,0.3515625 0.03516,0.6328125 0.128906,0.8789063 0.09375,0.234375 0.222656,0.42187499 0.410156,0.53906249 0.175782,0.12890625 0.410157,0.1875 0.679688,0.1875 0.234375,0 0.445312,-0.0234375 0.621094,-0.0703125 0.175781,-0.046875 0.339843,-0.10546875 0.492187,-0.17578125 v 0.62109375 c -0.140625,0.08203125 -0.304687,0.140625 -0.480469,0.17578125 -0.175781,0.03515625 -0.386718,0.05859375 -0.621093,0.05859445 z M 36.021789,-4.2900391 V -9.765625e-4 H 35.318664 V -4.2900391 Z m -0.339844,-1.6054687 c 0.105469,0 0.199219,0.035156 0.28125,0.1054687 0.08203,0.070312 0.128907,0.1875 0.128907,0.3398438 0,0.1523437 -0.04687,0.2578125 -0.128907,0.3398437 -0.08203,0.070312 -0.175781,0.1054688 -0.28125,0.1054688 -0.117187,0 -0.222656,-0.035156 -0.292968,-0.1054688 -0.08203,-0.082031 -0.128907,-0.1875 -0.128907,-0.3398437 0,-0.1523438 0.04687,-0.2695313 0.128907,-0.3398438 0.07031,-0.070312 0.175781,-0.1054687 0.292968,-0.1054687 z m 0,0"
         style="fill:#898989;fill-opacity:1;fill-rule:nonzero;stroke:none" />
      <path
         id="path12"
         d="M 39.364562,-3.7509766 H 38.286437 V -9.765625e-4 H 37.571594 V -3.7509766 h -0.75 v -0.328125 l 0.75,-0.234375 v -0.2460937 c 0,-0.375 0.05859,-0.6679688 0.164062,-0.9023438 0.117188,-0.2226562 0.269531,-0.3867187 0.480469,-0.5039062 0.210937,-0.1054688 0.457031,-0.1523438 0.75,-0.1523438 0.175781,0 0.328125,0.011719 0.46875,0.046875 0.140625,0.023437 0.257812,0.058594 0.363281,0.09375 l -0.175781,0.5507813 c -0.09375,-0.023437 -0.1875,-0.046875 -0.304688,-0.082031 -0.105468,-0.023437 -0.222656,-0.035156 -0.339843,-0.035156 -0.246094,0 -0.421875,0.082031 -0.527344,0.234375 -0.117188,0.1640625 -0.164063,0.3984375 -0.164063,0.7382812 v 0.28125 h 1.078125 z m 1.476563,-0.5390625 V -9.765625e-4 H 40.138 V -4.2900391 Z m -0.339844,-1.6054687 c 0.105469,0 0.199219,0.035156 0.28125,0.1054687 0.07031,0.070312 0.128906,0.1875 0.128906,0.3398438 0,0.1523437 -0.05859,0.2578125 -0.128906,0.3398437 -0.08203,0.070312 -0.175781,0.1054688 -0.28125,0.1054688 -0.128906,0 -0.222656,-0.035156 -0.304687,-0.1054688 -0.07031,-0.082031 -0.117188,-0.1875 -0.117188,-0.3398437 0,-0.1523438 0.04687,-0.2695313 0.117188,-0.3398438 0.08203,-0.070312 0.175781,-0.1054687 0.304687,-0.1054687 z m 0,0"
         style="fill:#898989;fill-opacity:1;fill-rule:nonzero;stroke:none" />
      <path
         id="path13"
         d="m 43.899719,0.08105469 c -0.386719,0 -0.726563,-0.0703125 -1.019532,-0.234375 C 42.587219,-0.30566406 42.352844,-0.54003906 42.188781,-0.86816406 42.013,-1.1962891 41.942687,-1.6064453 41.942687,-2.1220703 c 0,-0.5273438 0.08203,-0.9492188 0.257813,-1.2890625 0.175781,-0.328125 0.410156,-0.5625 0.714844,-0.7265625 0.304687,-0.1523438 0.644531,-0.234375 1.03125,-0.234375 0.210937,0 0.421875,0.023437 0.632812,0.070312 0.199219,0.046875 0.363281,0.09375 0.492188,0.1640625 l -0.210938,0.5859375 c -0.128906,-0.046875 -0.28125,-0.09375 -0.445312,-0.140625 -0.175782,-0.035156 -0.339844,-0.058594 -0.480469,-0.058594 -0.292969,0 -0.527344,0.058594 -0.714844,0.1757813 -0.199219,0.1289062 -0.328125,0.3046875 -0.421875,0.5507812 -0.09375,0.234375 -0.128906,0.5390625 -0.128906,0.890625 0,0.3515625 0.03516,0.6328125 0.128906,0.8789063 0.09375,0.234375 0.222656,0.42187499 0.410156,0.53906249 0.175782,0.12890625 0.410157,0.1875 0.679688,0.1875 0.234375,0 0.445312,-0.0234375 0.621094,-0.0703125 0.175781,-0.046875 0.339843,-0.10546875 0.492187,-0.17578125 v 0.62109375 c -0.140625,0.08203125 -0.304687,0.140625 -0.480469,0.17578125 -0.175781,0.03515625 -0.386718,0.05859375 -0.621093,0.05859445 z m 3.74414,-4.44140629 c 0.515625,0 0.902344,0.1171875 1.160157,0.3398438 0.246093,0.234375 0.375,0.5976562 0.375,1.1015625 V -9.765625e-4 H 48.663391 L 48.534484,-0.61035156 h -0.03516 c -0.128906,0.1640625 -0.257812,0.29296875 -0.386719,0.3984375 -0.128906,0.09375 -0.28125,0.17578125 -0.445312,0.22265625 -0.175781,0.046875 -0.375,0.0703125 -0.609375,0.0703125 -0.257813,0 -0.492188,-0.046875 -0.703125,-0.140625 -0.199219,-0.08203125 -0.363281,-0.22265625 -0.480469,-0.41015625 -0.117187,-0.19921875 -0.175781,-0.43359375 -0.175781,-0.72656254 0,-0.421875 0.175781,-0.75 0.503906,-0.984375 0.339844,-0.234375 0.855469,-0.3632812 1.558594,-0.3867187 l 0.726562,-0.023437 v -0.2460938 c 0,-0.3632812 -0.08203,-0.609375 -0.234375,-0.75 -0.152343,-0.140625 -0.375,-0.2109375 -0.65625,-0.2109375 -0.222656,0 -0.433593,0.046875 -0.632812,0.1054688 -0.210938,0.070312 -0.398438,0.140625 -0.574219,0.2226562 l -0.210937,-0.5273437 c 0.175781,-0.09375 0.410156,-0.1875 0.65625,-0.2578125 0.257812,-0.070312 0.527343,-0.1054688 0.808593,-0.1054688 z m 0.199219,2.2851563 c -0.527344,0.023437 -0.902344,0.1171875 -1.101562,0.2578125 -0.210938,0.1523437 -0.304688,0.3632812 -0.304688,0.6328125 0,0.23437499 0.07031,0.41015624 0.210938,0.52734374 0.140625,0.1171875 0.339843,0.1640625 0.574218,0.1640625 0.351563,0 0.65625,-0.09375 0.902344,-0.29296875 0.234375,-0.19921875 0.351563,-0.51562499 0.351563,-0.92578129 v -0.3867187 z m 4.089844,1.58203124 c 0.105469,0 0.222656,-0.0117188 0.328125,-0.0234375 0.117187,-0.0234375 0.199219,-0.046875 0.28125,-0.0703125 v 0.5390625 c -0.08203,0.03515625 -0.1875,0.0703125 -0.328125,0.09375 -0.140625,0.0234375 -0.269531,0.03515625 -0.398438,0.03515625 -0.222656,0 -0.433593,-0.03515625 -0.621093,-0.1171875 -0.199219,-0.08203125 -0.351563,-0.2109375 -0.457032,-0.41015625 -0.117187,-0.1875 -0.175781,-0.4453125 -0.175781,-0.80859374 v -2.4960938 h -0.609375 v -0.328125 l 0.621094,-0.28125 0.269531,-0.9140625 h 0.421875 v 0.984375 h 1.242188 v 0.5390625 h -1.242188 v 2.484375 c 0,0.26953129 0.05859,0.45703129 0.1875,0.58593754 0.128906,0.12890625 0.28125,0.1875 0.480469,0.1875 z M 54.071594,-4.2900391 V -9.765625e-4 H 53.368469 V -4.2900391 Z M 53.73175,-5.8955078 c 0.105469,0 0.199219,0.035156 0.28125,0.1054687 0.08203,0.070312 0.128906,0.1875 0.128906,0.3398438 0,0.1523437 -0.04687,0.2578125 -0.128906,0.3398437 -0.08203,0.070312 -0.175781,0.1054688 -0.28125,0.1054688 -0.117188,0 -0.222656,-0.035156 -0.292969,-0.1054688 -0.08203,-0.082031 -0.128906,-0.1875 -0.128906,-0.3398437 0,-0.1523438 0.04687,-0.2695313 0.128906,-0.3398438 0.07031,-0.070312 0.175781,-0.1054687 0.292969,-0.1054687 z m 5.425781,3.7382812 c 0,0.3632813 -0.04687,0.6796875 -0.140625,0.9609375 -0.09375,0.26953129 -0.222656,0.50390629 -0.398437,0.69140629 -0.175782,0.1875 -0.386719,0.33984375 -0.632813,0.4453125 -0.246094,0.09375 -0.515625,0.140625 -0.820312,0.140625 -0.292969,0 -0.550782,-0.046875 -0.785157,-0.140625 -0.246093,-0.10546875 -0.457031,-0.2578125 -0.632812,-0.4453125 -0.175781,-0.1875 -0.316406,-0.421875 -0.410156,-0.69140629 -0.09375,-0.28125 -0.140625,-0.5976562 -0.140625,-0.9609375 0,-0.46875 0.07031,-0.8671875 0.234375,-1.1953125 0.164062,-0.328125 0.386718,-0.5742187 0.691406,-0.75 0.292969,-0.1757812 0.644531,-0.2695312 1.066406,-0.2695312 0.375,0 0.726563,0.09375 1.019531,0.2695312 0.292969,0.1757813 0.527344,0.421875 0.691407,0.75 0.175781,0.328125 0.257812,0.7265625 0.257812,1.1953125 z m -3.234375,0 c 0,0.3398438 0.03516,0.6328125 0.128906,0.8789063 0.08203,0.2578125 0.222657,0.44531249 0.410157,0.57421874 0.1875,0.140625 0.421875,0.19921875 0.714843,0.19921875 0.292969,0 0.515625,-0.0585938 0.714844,-0.19921875 0.175781,-0.12890625 0.316406,-0.31640624 0.410156,-0.57421874 0.08203,-0.2460938 0.128907,-0.5390625 0.128907,-0.8789063 0,-0.328125 -0.04687,-0.6328125 -0.128907,-0.8671875 -0.105468,-0.2460937 -0.234375,-0.421875 -0.421875,-0.5507812 -0.1875,-0.1289063 -0.421875,-0.1992188 -0.714843,-0.1992188 -0.433594,0 -0.761719,0.140625 -0.949219,0.4335938 -0.199219,0.28125 -0.292969,0.6796875 -0.292969,1.1835937 z m 6.410156,-2.2148437 c 0.515625,0 0.902344,0.1289062 1.160157,0.375 0.257812,0.2460937 0.398437,0.65625 0.398437,1.2070312 V -9.765625e-4 H 63.188781 V -2.7431641 c 0,-0.3515625 -0.07031,-0.5976562 -0.222656,-0.7851562 -0.164063,-0.1640625 -0.410156,-0.2460938 -0.738281,-0.2460938 -0.480469,0 -0.808594,0.1289063 -0.984375,0.3984375 -0.175782,0.2695313 -0.269532,0.65625 -0.269532,1.1484375 V -9.765625e-4 H 60.270812 V -4.2900391 h 0.574219 l 0.09375,0.5859375 h 0.04687 c 0.09375,-0.1523437 0.210938,-0.2695312 0.351563,-0.375 0.140625,-0.09375 0.292968,-0.1757812 0.46875,-0.2226562 0.175781,-0.046875 0.351562,-0.070312 0.527343,-0.070312 z m 0,0"
         style="fill:#898989;fill-opacity:1;fill-rule:nonzero;stroke:none" />
      <path
         id="path14"
         d="M 69.253234,-3.7509766 H 68.175109 V -9.765625e-4 H 67.460266 V -3.7509766 h -0.75 v -0.328125 l 0.75,-0.234375 v -0.2460937 c 0,-0.375 0.05859,-0.6679688 0.164062,-0.9023438 0.117188,-0.2226562 0.269531,-0.3867187 0.480469,-0.5039062 0.210937,-0.1054688 0.457031,-0.1523438 0.75,-0.1523438 0.175781,0 0.328125,0.011719 0.46875,0.046875 0.140625,0.023437 0.257812,0.058594 0.363281,0.09375 l -0.175781,0.5507813 c -0.09375,-0.023437 -0.1875,-0.046875 -0.304688,-0.082031 -0.105468,-0.023437 -0.222656,-0.035156 -0.339843,-0.035156 -0.246094,0 -0.421875,0.082031 -0.527344,0.234375 -0.117188,0.1640625 -0.164063,0.3984375 -0.164063,0.7382812 v 0.28125 h 1.078125 z m 1.476563,-0.5390625 V -9.765625e-4 H 70.026672 V -4.2900391 Z m -0.339844,-1.6054687 c 0.105469,0 0.199219,0.035156 0.28125,0.1054687 0.07031,0.070312 0.128906,0.1875 0.128906,0.3398438 0,0.1523437 -0.05859,0.2578125 -0.128906,0.3398437 -0.08203,0.070312 -0.175781,0.1054688 -0.28125,0.1054688 -0.128906,0 -0.222656,-0.035156 -0.304687,-0.1054688 -0.07031,-0.082031 -0.117188,-0.1875 -0.117188,-0.3398437 0,-0.1523438 0.04687,-0.2695313 0.117188,-0.3398438 0.08203,-0.070312 0.175781,-0.1054687 0.304687,-0.1054687 z m 0,0"
         style="fill:#898989;fill-opacity:1;fill-rule:nonzero;stroke:none" />
      <path
         id="path15"
         d="M 72.789367,-9.765625e-4 H 72.086242 V -6.0830078 h 0.703125 z M 75.804016,-4.3720703 c 0.375,0 0.679687,0.082031 0.949218,0.2460937 0.269532,0.1523438 0.46875,0.3867188 0.609375,0.6796875 0.140625,0.28125 0.210938,0.6328125 0.210938,1.0078125 v 0.4335938 h -2.929688 c 0,0.4804687 0.128907,0.8554687 0.363282,1.11328124 0.246093,0.24609375 0.574218,0.375 1.007812,0.375 0.269531,0 0.503906,-0.0234375 0.714844,-0.0820313 0.210937,-0.046875 0.433594,-0.1171875 0.65625,-0.22265625 v 0.62109375 c -0.222656,0.09375 -0.445313,0.1640625 -0.644531,0.2109375 -0.222657,0.046875 -0.480469,0.0703125 -0.761719,0.0703125 -0.410156,0 -0.773438,-0.0820312525 -1.078125,-0.24609375 -0.316406,-0.1640625 -0.5625,-0.41015625 -0.738281,-0.73828125 -0.175782,-0.32812494 -0.246094,-0.72656244 -0.246094,-1.20703124 0,-0.46875 0.07031,-0.8789062 0.222656,-1.2070312 0.164063,-0.3398438 0.375,-0.5976563 0.667969,-0.7851563 0.292969,-0.1757812 0.621094,-0.2695312 0.996094,-0.2695312 z m 0,0.5742187 c -0.339844,0 -0.609375,0.1171875 -0.808594,0.328125 -0.1875,0.2226563 -0.304688,0.515625 -0.339844,0.9023438 h 2.191406 c 0,-0.2460938 -0.04687,-0.4570313 -0.117187,-0.6445313 -0.08203,-0.1757812 -0.1875,-0.3164062 -0.339844,-0.421875 -0.152344,-0.1054687 -0.351562,-0.1640625 -0.585937,-0.1640625 z m 7.488281,3.7968750375 h -0.84375 L 79.389953,-4.7470703 h -0.03516 c 0.01172,0.1289062 0.02344,0.2695312 0.03516,0.4453125 0,0.1640625 0.01172,0.3398437 0.02344,0.5273437 0,0.1992188 0.01172,0.3867188 0.01172,0.5742188 V -9.765625e-4 H 78.757141 V -5.7197266 h 0.832031 l 3.058594,4.73437504 h 0.02344 c 0,-0.0820312 -0.01172,-0.21093754 -0.02344,-0.38671874 0,-0.1640625 -0.01172,-0.3515625 -0.02344,-0.5625 -0.01172,-0.1992188 -0.01172,-0.375 -0.01172,-0.5507813 v -3.234375 h 0.679688 z M 86.371398,-4.3603516 c 0.515625,0 0.902344,0.1171875 1.160157,0.3398438 0.246093,0.234375 0.375,0.5976562 0.375,1.1015625 V -9.765625e-4 H 87.39093 L 87.262023,-0.61035156 h -0.03516 c -0.128906,0.1640625 -0.257812,0.29296875 -0.386719,0.3984375 -0.128906,0.09375 -0.28125,0.17578125 -0.445312,0.22265625 -0.175781,0.046875 -0.375,0.0703125 -0.609375,0.0703125 -0.257813,0 -0.492188,-0.046875 -0.703125,-0.140625 -0.199219,-0.08203125 -0.363281,-0.22265625 -0.480469,-0.41015625 -0.117187,-0.19921875 -0.175781,-0.43359375 -0.175781,-0.72656254 0,-0.421875 0.175781,-0.75 0.503906,-0.984375 0.339844,-0.234375 0.855469,-0.3632812 1.558594,-0.3867187 l 0.726562,-0.023437 v -0.2460938 c 0,-0.3632812 -0.08203,-0.609375 -0.234375,-0.75 -0.152343,-0.140625 -0.375,-0.2109375 -0.65625,-0.2109375 -0.222656,0 -0.433593,0.046875 -0.632812,0.1054688 -0.210938,0.070312 -0.398438,0.140625 -0.574219,0.2226562 l -0.210937,-0.5273437 c 0.175781,-0.09375 0.410156,-0.1875 0.65625,-0.2578125 0.257812,-0.070312 0.527343,-0.1054688 0.808593,-0.1054688 z m 0.199219,2.2851563 c -0.527344,0.023437 -0.902344,0.1171875 -1.101562,0.2578125 -0.210938,0.1523437 -0.304688,0.3632812 -0.304688,0.6328125 0,0.23437499 0.07031,0.41015624 0.210938,0.52734374 0.140625,0.1171875 0.339843,0.1640625 0.574218,0.1640625 0.351563,0 0.65625,-0.09375 0.902344,-0.29296875 0.234375,-0.19921875 0.351563,-0.51562499 0.351563,-0.92578129 v -0.3867187 z m 7.347656,-2.296875 c 0.480469,0 0.84375,0.1289062 1.089844,0.375 0.234375,0.2460937 0.351563,0.65625 0.351563,1.2070312 V -9.765625e-4 H 94.668273 V -2.7666016 c 0,-0.328125 -0.07031,-0.5742187 -0.222656,-0.7617187 -0.140625,-0.1640625 -0.351562,-0.2460938 -0.65625,-0.2460938 -0.410156,0 -0.714844,0.1171875 -0.890625,0.3515625 -0.175781,0.2460938 -0.269531,0.5976563 -0.269531,1.0546875 V -9.765625e-4 H 91.937805 V -2.7666016 c 0,-0.2226562 -0.03516,-0.3984375 -0.09375,-0.5507812 -0.07031,-0.1523438 -0.164063,-0.2695313 -0.292969,-0.3515625 -0.128906,-0.070312 -0.292969,-0.1054688 -0.492188,-0.1054688 -0.292968,0 -0.527343,0.058594 -0.679687,0.1757813 -0.175781,0.1289062 -0.292969,0.3046875 -0.363281,0.5273437 -0.07031,0.234375 -0.105469,0.5039063 -0.105469,0.84375 V -9.765625e-4 H 89.207336 V -4.2900391 h 0.574219 l 0.09375,0.5859375 h 0.04687 c 0.08203,-0.1523437 0.199218,-0.2695312 0.328125,-0.375 0.128906,-0.09375 0.28125,-0.1757812 0.433593,-0.2226562 0.164063,-0.046875 0.328125,-0.070312 0.503907,-0.070312 0.328125,0 0.597656,0.070312 0.820312,0.1757812 0.222656,0.1171875 0.386719,0.3046875 0.492188,0.5507813 h 0.03516 c 0.140625,-0.2460938 0.339844,-0.4335938 0.585937,-0.5507813 0.246094,-0.1054687 0.515625,-0.1757812 0.796875,-0.1757812 z m 4.420899,0 c 0.375,0 0.679687,0.082031 0.949219,0.2460937 0.269531,0.1523438 0.46875,0.3867188 0.609375,0.6796875 0.140624,0.28125 0.210934,0.6328125 0.210934,1.0078125 v 0.4335938 h -2.929684 c 0,0.4804687 0.128906,0.8554687 0.363281,1.11328124 0.246094,0.24609375 0.574219,0.375 1.007812,0.375 0.269532,0 0.503907,-0.0234375 0.714844,-0.0820313 0.210938,-0.046875 0.433594,-0.1171875 0.65625,-0.22265625 v 0.62109375 c -0.222656,0.09375 -0.445312,0.1640625 -0.644531,0.2109375 -0.222656,0.046875 -0.480469,0.0703125 -0.761719,0.0703125 -0.410156,0 -0.773437,-0.0820312525 -1.078125,-0.24609375 -0.316406,-0.1640625 -0.5625,-0.41015625 -0.738281,-0.73828125 -0.175781,-0.32812504 -0.246094,-0.72656254 -0.246094,-1.20703134 0,-0.46875 0.07031,-0.8789062 0.222656,-1.2070312 0.164063,-0.3398438 0.375,-0.5976563 0.667969,-0.7851562 0.292969,-0.1757813 0.621094,-0.2695313 0.996094,-0.2695312 z m 0,0.5742187 c -0.339844,0 -0.609375,0.1171875 -0.808594,0.328125 -0.1875,0.2226563 -0.304687,0.515625 -0.339844,0.9023438 h 2.191407 c 0,-0.2460938 -0.04687,-0.4570313 -0.117188,-0.6445313 -0.08203,-0.1757812 -0.1875,-0.3164062 -0.339844,-0.421875 -0.152343,-0.1054687 -0.351562,-0.1640625 -0.585937,-0.1640625 z m 5.624998,2.6132813 c 0,0.28124999 -0.0703,0.51562499 -0.19922,0.69140624 -0.15234,0.19921875 -0.33984,0.328125 -0.59765,0.43359375 -0.25782,0.09375 -0.5625,0.140625 -0.91407,0.140625 -0.30468,0 -0.5625,-0.0234375 -0.77343,-0.0703125 -0.21094,-0.046875 -0.41016,-0.1171875 -0.5625,-0.19921875 v -0.64453125 c 0.16406,0.0820313 0.375,0.1640625 0.60937,0.234375 0.2461,0.0820313 0.49219,0.10546875 0.75,0.10546875 0.35156,0 0.60938,-0.046875 0.77344,-0.1640625 0.16406,-0.1171875 0.23437,-0.26953125 0.23437,-0.46875004 0,-0.09375 -0.0234,-0.1992187 -0.082,-0.28125 -0.0703,-0.082031 -0.16406,-0.1757812 -0.3164,-0.2578125 -0.15235,-0.082031 -0.375,-0.1757812 -0.65625,-0.2929687 -0.28125,-0.1054688 -0.51563,-0.1992188 -0.71485,-0.3164063 -0.19922,-0.1054687 -0.35156,-0.234375 -0.45703,-0.3867187 -0.10547,-0.140625 -0.15234,-0.328125 -0.15234,-0.5742188 0,-0.3632812 0.14062,-0.6445312 0.43359,-0.84375 0.30469,-0.1875 0.69141,-0.2929687 1.17188,-0.2929687 0.25781,0 0.5039,0.035156 0.72656,0.082031 0.22266,0.046875 0.44531,0.1171875 0.64453,0.2109375 l -0.24609,0.5507813 c -0.17578,-0.070312 -0.375,-0.1289063 -0.5625,-0.1875 -0.19922,-0.046875 -0.39844,-0.082031 -0.60938,-0.082031 -0.29297,0 -0.51562,0.046875 -0.66797,0.1523438 -0.15234,0.09375 -0.22265,0.2109375 -0.22265,0.375 0,0.1171875 0.0352,0.2226562 0.10547,0.3046875 0.0703,0.070312 0.1875,0.1523437 0.33984,0.234375 0.16406,0.082031 0.38672,0.1640625 0.65625,0.2695312 0.28125,0.1054688 0.50391,0.2109375 0.70312,0.3164063 0.1875,0.1171875 0.33985,0.234375 0.4336,0.3867187 0.10547,0.1523438 0.15234,0.3515625 0.15234,0.5742188 z m 0,0"
         style="fill:#898989;fill-opacity:1;fill-rule:nonzero;stroke:none" />
      <path
         id="path16"
         d="m 107.71417,1.6044922 h -3 v -7.3242188 h 3 v 0.5742188 h -0.84375 v 6.1523437 h 0.84375 z m -1.6289,-6.75 h -0.58594 v 6.1640625 h 0.58594 z m 0,0"
         style="fill:#898989;fill-opacity:1;fill-rule:nonzero;stroke:none" />
      <path
         id="path17"
         d="m 110.82843,-9.765625e-4 h -0.67969 V -3.9970703 c 0,-0.1523438 0,-0.28125 0,-0.3867188 0,-0.1054687 0,-0.1992187 0.0117,-0.3046875 0,-0.09375 0.0117,-0.1875 0.0117,-0.2929687 -0.082,0.09375 -0.16406,0.1640625 -0.22266,0.2226562 -0.0703,0.058594 -0.16406,0.1289063 -0.26953,0.2226563 l -0.60937,0.4921875 -0.36328,-0.46875 1.54687,-1.2070313 h 0.57422 z m 0,0"
         style="fill:#898989;fill-opacity:1;fill-rule:nonzero;stroke:none" />
      <path
         id="path18"
         d="m 115.8382,1.6044922 h -2.98829 V 1.0068359 h 0.84375 v -6.1523437 h -0.84375 v -0.5742188 h 2.98829 z m -0.77344,-0.5859375 v -6.1640625 h -0.58594 v 6.1640625 z m 0,0"
         style="fill:#898989;fill-opacity:1;fill-rule:nonzero;stroke:none" />
      <path
         id="path19"
         d="m 119.67902,-4.2900391 v 4.2890625375 h -0.70313 V -4.2900391 Z m -0.33985,-1.6054687 c 0.10547,0 0.19922,0.035156 0.28125,0.1054687 0.082,0.070312 0.12891,0.1875 0.12891,0.3398438 0,0.1523437 -0.0469,0.2578125 -0.12891,0.3398437 -0.082,0.070312 -0.17578,0.1054688 -0.28125,0.1054688 -0.11719,0 -0.22265,-0.035156 -0.29297,-0.1054688 -0.082,-0.082031 -0.1289,-0.1875 -0.1289,-0.3398437 0,-0.1523438 0.0469,-0.2695313 0.1289,-0.3398438 0.0703,-0.070312 0.17578,-0.1054687 0.29297,-0.1054687 z m 4.48828,4.7109375 c 0,0.28124999 -0.0703,0.51562499 -0.19922,0.69140624 -0.15234,0.19921875 -0.33984,0.328125 -0.59765,0.43359375 -0.25781,0.09375 -0.5625,0.140625 -0.91406,0.140625 -0.30469,0 -0.5625,-0.0234375 -0.77344,-0.0703125 -0.21094,-0.046875 -0.41016,-0.1171875 -0.5625,-0.19921875 v -0.64453125 c 0.16406,0.0820313 0.375,0.1640625 0.60937,0.234375 0.2461,0.0820313 0.49219,0.10546875 0.75,0.10546875 0.35157,0 0.60938,-0.046875 0.77344,-0.1640625 0.16406,-0.1171875 0.23438,-0.26953125 0.23438,-0.46875004 0,-0.09375 -0.0234,-0.1992187 -0.082,-0.28125 -0.0703,-0.082031 -0.16406,-0.1757812 -0.3164,-0.2578125 -0.15235,-0.082031 -0.375,-0.1757812 -0.65625,-0.2929687 -0.28125,-0.1054688 -0.51563,-0.1992188 -0.71485,-0.3164063 -0.19921,-0.1054687 -0.35156,-0.234375 -0.45703,-0.3867187 -0.10547,-0.140625 -0.15234,-0.328125 -0.15234,-0.5742188 0,-0.3632812 0.14062,-0.6445312 0.43359,-0.84375 0.30469,-0.1875 0.69141,-0.2929687 1.17188,-0.2929687 0.25781,0 0.5039,0.035156 0.72656,0.082031 0.22266,0.046875 0.44531,0.1171875 0.64453,0.2109375 l -0.24609,0.5507813 c -0.17578,-0.070312 -0.375,-0.1289063 -0.5625,-0.1875 -0.19922,-0.046875 -0.39844,-0.082031 -0.60938,-0.082031 -0.29297,0 -0.51562,0.046875 -0.66797,0.1523438 -0.15234,0.09375 -0.22265,0.2109375 -0.22265,0.375 0,0.1171875 0.0352,0.2226562 0.10547,0.3046875 0.0703,0.070312 0.1875,0.1523437 0.33984,0.234375 0.16406,0.082031 0.38672,0.1640625 0.65625,0.2695312 0.28125,0.1054688 0.50391,0.2109375 0.70313,0.3164063 0.1875,0.1171875 0.33984,0.234375 0.43359,0.3867187 0.10547,0.1523438 0.15234,0.3515625 0.15234,0.5742188 z m 3.82032,1.1835937375 h -0.70313 V -6.0830078 h 0.70313 z M 132.7337,-2.1572266 c 0,0.3632813 -0.0469,0.6796875 -0.14062,0.9609375 -0.0937,0.26953129 -0.22266,0.50390629 -0.39844,0.69140629 -0.17578,0.1875 -0.38672,0.33984375 -0.63281,0.4453125 -0.2461,0.09375 -0.51563,0.140625 -0.82031,0.140625 -0.29297,0 -0.55079,-0.046875 -0.78516,-0.140625 -0.24609,-0.10546875 -0.45703,-0.2578125 -0.63281,-0.4453125 -0.17578,-0.1875 -0.31641,-0.421875 -0.41016,-0.69140629 -0.0937,-0.28125 -0.14062,-0.5976562 -0.14062,-0.9609375 0,-0.46875 0.0703,-0.8671875 0.23437,-1.1953125 0.16406,-0.328125 0.38672,-0.5742187 0.69141,-0.75 0.29297,-0.1757812 0.64453,-0.2695312 1.0664,-0.2695312 0.375,0 0.72657,0.09375 1.01953,0.2695312 0.29297,0.1757813 0.52735,0.421875 0.69141,0.75 0.17578,0.328125 0.25781,0.7265625 0.25781,1.1953125 z m -3.23437,0 c 0,0.3398438 0.0352,0.6328125 0.1289,0.8789063 0.082,0.2578125 0.22266,0.44531249 0.41016,0.57421874 0.1875,0.140625 0.42188,0.19921875 0.71484,0.19921875 0.29297,0 0.51563,-0.0585938 0.71485,-0.19921875 0.17578,-0.12890625 0.3164,-0.31640624 0.41015,-0.57421874 0.082,-0.2460938 0.12891,-0.5390625 0.12891,-0.8789063 0,-0.328125 -0.0469,-0.6328125 -0.12891,-0.8671875 -0.10546,-0.2460937 -0.23437,-0.421875 -0.42187,-0.5507812 -0.1875,-0.1289063 -0.42188,-0.1992188 -0.71484,-0.1992188 -0.4336,0 -0.76172,0.140625 -0.94922,0.4335938 -0.19922,0.28125 -0.29297,0.6796875 -0.29297,1.1835937 z m 6.41015,-2.2148437 c 0.51563,0 0.90235,0.1289062 1.16016,0.375 0.25781,0.2460937 0.39844,0.65625 0.39844,1.2070312 v 2.7890625375 h -0.70313 V -2.7431641 c 0,-0.3515625 -0.0703,-0.5976562 -0.22265,-0.7851562 -0.16407,-0.1640625 -0.41016,-0.2460938 -0.73828,-0.2460938 -0.48047,0 -0.8086,0.1289063 -0.98438,0.3984375 -0.17578,0.2695313 -0.26953,0.65625 -0.26953,1.1484375 v 2.2265625375 h -0.70313 V -4.2900391 h 0.57422 l 0.0937,0.5859375 h 0.0469 c 0.0937,-0.1523437 0.21094,-0.2695312 0.35156,-0.375 0.14063,-0.09375 0.29297,-0.1757812 0.46875,-0.2226562 0.17578,-0.046875 0.35156,-0.070312 0.52734,-0.070312 z m 4.40625,0 c 0.28125,0 0.53907,0.058594 0.76172,0.1640625 0.22266,0.1054687 0.42188,0.2695312 0.58594,0.4804687 h 0.0352 l 0.0937,-0.5625 h 0.5625 v 4.35937504 c 0,0.41015625 -0.0703,0.75 -0.21094,1.03124996 -0.14063,0.2695313 -0.35156,0.4804688 -0.63281,0.609375 -0.28125,0.140625 -0.64453,0.2109375 -1.07813,0.2109375 -0.3164,0 -0.59765,-0.011719 -0.85547,-0.070312 -0.25781,-0.046875 -0.49218,-0.1054687 -0.6914,-0.1992187 V 0.99511719 c 0.19922,0.11718751 0.44531,0.19921871 0.71484,0.25781251 0.26953,0.058594 0.5625,0.082031 0.86719,0.082031 0.375,0 0.65625,-0.1054687 0.86719,-0.3164062 0.21093,-0.22265626 0.32812,-0.51562501 0.32812,-0.89062501 v -0.1640625 c 0,-0.0703125 0,-0.15234375 0,-0.28125 0,-0.1171875 0.0117,-0.19921875 0.0234,-0.24609375 h -0.0352 c -0.15234,0.22265625 -0.33984,0.375 -0.5625,0.48046875 -0.22265,0.1171875 -0.48047,0.1640625 -0.76172,0.1640625 -0.5625,0 -0.99609,-0.19921875 -1.3125,-0.5859375 -0.30468,-0.38671875 -0.45703,-0.92578129 -0.45703,-1.62890629 0,-0.6796875 0.15235,-1.2304687 0.45703,-1.6289062 0.31641,-0.3984375 0.75,-0.609375 1.30078,-0.609375 z m 0.0937,0.5976562 c -0.23437,0 -0.44531,0.058594 -0.62109,0.1875 -0.16406,0.1289063 -0.29297,0.3164063 -0.375,0.5625 -0.0937,0.2460938 -0.12891,0.5390625 -0.12891,0.890625 0,0.5273438 0.0937,0.9375 0.28125,1.21875004 0.19922,0.28125 0.48047,0.421875 0.85547,0.421875 0.22266,0 0.41016,-0.0234375 0.5625,-0.0820313 0.15235,-0.0585938 0.28125,-0.140625 0.38672,-0.26953125 0.0937,-0.1171875 0.17578,-0.26953119 0.22266,-0.45703119 0.0469,-0.1875 0.0703,-0.4101563 0.0703,-0.6679689 v -0.1640625 c 0,-0.3867187 -0.0469,-0.703125 -0.12891,-0.9492187 -0.0937,-0.234375 -0.22265,-0.4101563 -0.41015,-0.5273438 -0.19922,-0.1171875 -0.42188,-0.1640625 -0.71485,-0.1640625 z m 4.92188,-0.5976562 c 0.375,0 0.67969,0.082031 0.94922,0.2460937 0.26953,0.1523438 0.46875,0.3867188 0.60937,0.6796875 0.14063,0.28125 0.21094,0.6328125 0.21094,1.0078125 v 0.4335938 h -2.92969 c 0,0.4804687 0.12891,0.8554687 0.36328,1.11328124 0.2461,0.24609375 0.57422,0.375 1.00782,0.375 0.26953,0 0.5039,-0.0234375 0.71484,-0.0820313 0.21094,-0.046875 0.43359,-0.1171875 0.65625,-0.22265625 v 0.62109375 c -0.22266,0.09375 -0.44531,0.1640625 -0.64453,0.2109375 -0.22266,0.046875 -0.48047,0.0703125 -0.76172,0.0703125 -0.41016,0 -0.77344,-0.0820312525 -1.07812,-0.24609375 -0.31641,-0.1640625 -0.5625,-0.41015625 -0.73829,-0.73828125 -0.17578,-0.32812494 -0.24609,-0.72656244 -0.24609,-1.20703124 0,-0.46875 0.0703,-0.8789062 0.22266,-1.2070312 0.16406,-0.3398438 0.375,-0.5976563 0.66797,-0.7851563 0.29296,-0.1757812 0.62109,-0.2695312 0.99609,-0.2695312 z m 0,0.5742187 c -0.33984,0 -0.60938,0.1171875 -0.80859,0.328125 -0.1875,0.2226563 -0.30469,0.515625 -0.33985,0.9023438 h 2.19141 c 0,-0.2460938 -0.0469,-0.4570313 -0.11719,-0.6445313 -0.082,-0.1757812 -0.1875,-0.3164062 -0.33984,-0.421875 -0.15235,-0.1054687 -0.35157,-0.1640625 -0.58594,-0.1640625 z m 4.86328,-0.5742187 c 0.082,0 0.15234,0.011719 0.25781,0.011719 0.0937,0.011719 0.17578,0.023437 0.2461,0.035156 l -0.0937,0.65625 c -0.0703,-0.023437 -0.15235,-0.035156 -0.22266,-0.046875 -0.082,-0.011719 -0.16406,-0.011719 -0.23437,-0.011719 -0.17579,0 -0.32813,0.035156 -0.48047,0.1054688 -0.15235,0.070312 -0.28125,0.1640625 -0.39844,0.2929687 -0.11719,0.1289063 -0.21094,0.2695313 -0.28125,0.4453125 -0.0586,0.1757813 -0.0937,0.375 -0.0937,0.5976563 v 2.2851562375 h -0.70313 V -4.2900391 h 0.57422 l 0.082,0.7851563 h 0.0352 c 0.082,-0.1640625 0.19922,-0.3046875 0.32813,-0.4335938 0.1289,-0.1289062 0.26953,-0.234375 0.43359,-0.3164062 0.16406,-0.082031 0.35156,-0.1171875 0.55078,-0.1171875 z m 4.78711,3.87890624 c 0.10547,0 0.22266,-0.0117188 0.32812,-0.0234375 0.11719,-0.0234375 0.19922,-0.046875 0.28125,-0.0703125 v 0.5390625 c -0.082,0.03515625 -0.1875,0.0703125 -0.32812,0.09375 -0.14063,0.0234375 -0.26953,0.03515625 -0.39844,0.03515625 -0.22265,0 -0.43359,-0.03515625 -0.62109,-0.1171875 -0.19922,-0.08203125 -0.35156,-0.2109375 -0.45703,-0.41015625 -0.11719,-0.1875 -0.17578,-0.4453125 -0.17578,-0.80859374 v -2.4960938 h -0.60938 v -0.328125 l 0.62109,-0.28125 0.26954,-0.9140625 h 0.42187 v 0.984375 h 1.24219 v 0.5390625 h -1.24219 v 2.484375 c 0,0.26953129 0.0586,0.45703129 0.1875,0.58593754 0.12891,0.12890625 0.28125,0.1875 0.48047,0.1875 z m 2.16211,-3.80859374 c 0,0.1054687 -0.0117,0.2109375 -0.0117,0.3164062 -0.0117,0.1054688 -0.0234,0.2109375 -0.0234,0.28125 h 0.0469 c 0.082,-0.140625 0.19922,-0.2695312 0.33984,-0.3632812 0.14063,-0.09375 0.29297,-0.1640625 0.46875,-0.2109375 0.16406,-0.058594 0.33985,-0.082031 0.52735,-0.082031 0.33984,0 0.63281,0.058594 0.86718,0.1640625 0.22266,0.1171875 0.39844,0.28125 0.52735,0.5039063 0.10547,0.234375 0.17578,0.5273437 0.17578,0.9023437 V -9.765625e-4 H 159.3587 V -2.7431641 c 0,-0.3515625 -0.0703,-0.5976562 -0.22265,-0.7851562 -0.16407,-0.1640625 -0.41016,-0.2460938 -0.73828,-0.2460938 -0.31641,0 -0.57422,0.058594 -0.75,0.1757813 -0.1875,0.1289062 -0.30469,0.3046875 -0.38672,0.5273437 -0.082,0.234375 -0.11719,0.515625 -0.11719,0.8554688 v 2.2148437375 h -0.70313 V -6.0830078 h 0.70313 z m 5.86816,-0.058594 c 0.51563,0 0.90235,0.1171875 1.16016,0.3398438 0.24609,0.234375 0.375,0.5976562 0.375,1.1015625 V -9.767625e-4 H 164.0315 L 163.9026,-0.61035176 h -0.0352 c -0.1289,0.1640625 -0.25781,0.29296875 -0.38672,0.3984375 -0.1289,0.09375 -0.28125,0.17578125 -0.44531,0.22265625 -0.17578,0.046875 -0.375,0.0703125 -0.60937,0.0703125 -0.25782,0 -0.49219,-0.046875 -0.70313,-0.140625 -0.19922,-0.08203125 -0.36328,-0.22265625 -0.48047,-0.41015625 -0.11719,-0.19921875 -0.17578,-0.43359375 -0.17578,-0.72656254 0,-0.421875 0.17578,-0.75 0.50391,-0.984375 0.33984,-0.234375 0.85547,-0.3632812 1.55859,-0.3867187 l 0.72656,-0.023437 v -0.2460938 c 0,-0.3632812 -0.082,-0.609375 -0.23437,-0.75 -0.15235,-0.140625 -0.375,-0.2109375 -0.65625,-0.2109375 -0.22266,0 -0.4336,0.046875 -0.63281,0.1054688 -0.21094,0.070312 -0.39844,0.140625 -0.57422,0.2226562 L 161.54709,-3.99707 c 0.17578,-0.09375 0.41016,-0.1875 0.65625,-0.2578125 0.25781,-0.070312 0.52734,-0.1054688 0.80859,-0.1054688 z m 0.19922,2.2851563 c -0.52734,0.023437 -0.90234,0.1171875 -1.10156,0.2578125 -0.21094,0.1523437 -0.30469,0.3632812 -0.30469,0.6328125 0,0.23437499 0.0703,0.41015624 0.21094,0.52734374 0.14062,0.1171875 0.33984,0.1640625 0.57422,0.1640625 0.35156,0 0.65625,-0.09375 0.90234,-0.29296875 0.23438,-0.19921875 0.35156,-0.51562499 0.35156,-0.92578129 V -2.098633 Z m 4.69922,-2.296875 c 0.51563,0 0.90234,0.1289062 1.16016,0.375 0.25781,0.2460937 0.39843,0.65625 0.39843,1.2070312 v 2.7890625375 h -0.70312 V -2.7431641 c 0,-0.3515625 -0.0703,-0.5976562 -0.22266,-0.7851562 -0.16406,-0.1640625 -0.41015,-0.2460938 -0.73828,-0.2460938 -0.48047,0 -0.80859,0.1289063 -0.98437,0.3984375 -0.17578,0.2695313 -0.26953,0.65625 -0.26953,1.1484375 v 2.2265625375 h -0.70313 V -4.2900391 h 0.57422 l 0.0937,0.5859375 h 0.0469 c 0.0937,-0.1523437 0.21094,-0.2695312 0.35157,-0.375 0.14062,-0.09375 0.29297,-0.1757812 0.46875,-0.2226562 0.17578,-0.046875 0.35156,-0.070312 0.52734,-0.070312 z m 6.47754,4.45312499 c -0.53906,0 -0.96094,-0.1875 -1.27734,-0.55078125 -0.32813,-0.375 -0.48047,-0.93750004 -0.48047,-1.66406254 0,-0.7382812 0.15234,-1.2890625 0.48047,-1.6640625 0.3164,-0.3867187 0.75,-0.5742187 1.28906,-0.5742187 0.22265,0 0.41015,0.035156 0.57422,0.09375 0.16406,0.046875 0.30468,0.1289062 0.43359,0.2226562 0.11719,0.09375 0.22266,0.1992188 0.31641,0.3164063 h 0.0469 c -0.0117,-0.058594 -0.0117,-0.1640625 -0.0352,-0.3046875 -0.0117,-0.140625 -0.0117,-0.2460938 -0.0117,-0.328125 V -6.083008 h 0.70312 v 6.0820312375 h -0.57422 l -0.0937,-0.5742187475 h -0.0351 c -0.0937,0.12890625 -0.19922,0.234375 -0.31641,0.33984375 -0.12891,0.09375 -0.26953,0.17578125 -0.43359,0.22265625 -0.17578,0.0703125 -0.36328,0.09375 -0.58594,0.09375 z m 0.10547,-0.5859375 c 0.45703,0 0.77344,-0.1171875 0.96094,-0.36328125 0.17578,-0.25781254 0.28125,-0.63281254 0.28125,-1.13671874 v -0.1289063 c 0,-0.5273437 -0.0937,-0.9375 -0.26954,-1.21875 -0.17578,-0.2929687 -0.5039,-0.4335937 -0.97265,-0.4335937 -0.38672,0 -0.66797,0.1523437 -0.85547,0.4570312 -0.19922,0.3046875 -0.28125,0.703125 -0.28125,1.2070313 0,0.515625 0.082,0.9140625 0.28125,1.19531249 0.1875,0.28125 0.48047,0.421875 0.85547,0.421875 z m 4.94238,-3.86718749 c 0.375,0 0.67969,0.082031 0.94922,0.2460937 0.26953,0.1523438 0.46875,0.3867188 0.60938,0.6796875 0.14062,0.28125 0.21093,0.6328125 0.21093,1.0078125 v 0.4335938 h -2.92968 c 0,0.4804687 0.1289,0.8554687 0.36328,1.11328124 0.24609,0.24609375 0.57422,0.375 1.00781,0.375 0.26953,0 0.50391,-0.0234375 0.71484,-0.0820313 0.21094,-0.046875 0.4336,-0.1171875 0.65625,-0.22265625 v 0.62109375 c -0.22265,0.09375 -0.44531,0.1640625 -0.64453,0.2109375 -0.22265,0.046875 -0.48047,0.0703125 -0.76172,0.0703125 -0.41015,0 -0.77343,-0.0820312525 -1.07812,-0.24609375 -0.31641,-0.1640625 -0.5625,-0.41015625 -0.73828,-0.73828125 -0.17578,-0.32812494 -0.2461,-0.72656244 -0.2461,-1.20703124 0,-0.46875 0.0703,-0.8789062 0.22266,-1.2070312 0.16406,-0.3398438 0.375,-0.5976563 0.66797,-0.7851563 0.29297,-0.1757812 0.62109,-0.2695312 0.99609,-0.2695312 z m 0,0.5742187 c -0.33984,0 -0.60937,0.1171875 -0.80859,0.328125 -0.1875,0.2226563 -0.30469,0.515625 -0.33985,0.9023438 h 2.19141 c 0,-0.2460938 -0.0469,-0.4570313 -0.11719,-0.6445313 -0.082,-0.1757812 -0.1875,-0.3164062 -0.33984,-0.421875 -0.15234,-0.1054687 -0.35156,-0.1640625 -0.58594,-0.1640625 z m 4.875,-0.5742187 c 0.52735,0 0.94922,0.1875 1.27735,0.5507812 0.3164,0.375 0.48046,0.9257813 0.48046,1.6640625 0,0.4921875 -0.0703,0.9023438 -0.22265,1.23046879 -0.14063,0.33984375 -0.35156,0.5859375 -0.60938,0.76171875 -0.26953,0.1640624975 -0.57422,0.24609375 -0.92578,0.24609375 -0.23437,0 -0.42187,-0.0234375 -0.58594,-0.09375 -0.17578,-0.046875 -0.32812,-0.12890625 -0.44531,-0.22265625 -0.11719,-0.09375 -0.22265,-0.19921875 -0.30469,-0.3046875 h -0.0469 c 0.0117,0.09375 0.0117,0.19921875 0.0352,0.33984375 0,0.140625 0.0117,0.2578125 0.0117,0.36328125 V 1.9208984 h -0.70312 v -6.2109375 h 0.57422 l 0.0937,0.5859375 h 0.0351 c 0.082,-0.1171875 0.1875,-0.234375 0.30469,-0.3398437 0.11719,-0.09375 0.26953,-0.1757813 0.4336,-0.234375 0.16406,-0.058594 0.36328,-0.09375 0.59765,-0.09375 z m -0.1289,0.5976562 c -0.28125,0 -0.51563,0.046875 -0.69141,0.1640625 -0.17578,0.1171875 -0.30469,0.2695313 -0.38672,0.4921875 -0.082,0.2226563 -0.12891,0.4921875 -0.12891,0.8320313 v 0.1289062 c 0,0.3515625 0.0352,0.65625 0.11719,0.9023438 0.0703,0.2460937 0.19922,0.43359374 0.375,0.56249999 0.17578,0.12890625 0.42188,0.1875 0.73828,0.1875 0.25782,0 0.46875,-0.0703125 0.63282,-0.2109375 0.17578,-0.15234375 0.30468,-0.33984379 0.375,-0.58593749 0.082,-0.2578125 0.1289,-0.5390625 0.1289,-0.8554688 0,-0.4921875 -0.0937,-0.890625 -0.28125,-1.1835937 -0.19922,-0.28125 -0.48047,-0.4335938 -0.8789,-0.4335938 z m 4.43847,3.28125004 c 0.10547,0 0.22266,-0.0117188 0.32813,-0.0234375 0.11718,-0.0234375 0.19922,-0.046875 0.28125,-0.0703125 v 0.5390625 c -0.082,0.03515625 -0.1875,0.0703125 -0.32813,0.09375 -0.14062,0.0234375 -0.26953,0.03515625 -0.39844,0.03515625 -0.22265,0 -0.43359,-0.03515625 -0.62109,-0.1171875 -0.19922,-0.08203125 -0.35156,-0.2109375 -0.45703,-0.41015625 -0.11719,-0.1875 -0.17578,-0.4453125 -0.17578,-0.80859374 v -2.4960938 h -0.60938 v -0.328125 l 0.6211,-0.28125 0.26953,-0.9140625 h 0.42187 v 0.984375 h 1.24219 v 0.5390625 h -1.24219 v 2.484375 c 0,0.26953129 0.0586,0.45703129 0.1875,0.58593754 0.12891,0.12890625 0.28125,0.1875 0.48047,0.1875 z m 2.13867,-3.80859374 c 0,0.1054687 -0.0117,0.2109375 -0.0117,0.3164062 -0.0117,0.1054688 -0.0234,0.2109375 -0.0234,0.28125 h 0.0469 c 0.082,-0.140625 0.19922,-0.2695312 0.33985,-0.3632812 0.14062,-0.09375 0.29296,-0.1640625 0.46875,-0.2109375 0.16406,-0.058594 0.33984,-0.082031 0.52734,-0.082031 0.33984,0 0.63281,0.058594 0.86719,0.1640625 0.22265,0.1171875 0.39843,0.28125 0.52734,0.5039063 0.10547,0.234375 0.17578,0.5273437 0.17578,0.9023437 v 2.7890625375 h -0.70312 V -2.7431641 c 0,-0.3515625 -0.0703,-0.5976562 -0.22266,-0.7851562 -0.16406,-0.1640625 -0.41016,-0.2460938 -0.73828,-0.2460938 -0.31641,0 -0.57422,0.058594 -0.75,0.1757813 -0.1875,0.1289062 -0.30469,0.3046875 -0.38672,0.5273437 -0.082,0.234375 -0.11719,0.515625 -0.11719,0.8554688 V -9.765625e-4 H 190.056 V -6.0830078 h 0.70312 z m 10.04004,2.1445312 c 0,0.3632813 -0.0469,0.6796875 -0.14062,0.9609375 -0.0937,0.26953129 -0.22266,0.50390629 -0.39844,0.69140629 -0.17578,0.1875 -0.38672,0.33984375 -0.63281,0.4453125 -0.2461,0.09375 -0.51563,0.140625 -0.82031,0.140625 -0.29297,0 -0.55079,-0.046875 -0.78516,-0.140625 -0.24609,-0.10546875 -0.45703,-0.2578125 -0.63281,-0.4453125 -0.17578,-0.1875 -0.31641,-0.421875 -0.41016,-0.69140629 -0.0937,-0.28125 -0.14062,-0.5976562 -0.14062,-0.9609375 0,-0.46875 0.0703,-0.8671875 0.23437,-1.1953125 0.16406,-0.328125 0.38672,-0.5742187 0.69141,-0.75 0.29297,-0.1757812 0.64453,-0.2695312 1.0664,-0.2695312 0.375,0 0.72657,0.09375 1.01953,0.2695312 0.29297,0.1757813 0.52735,0.421875 0.69141,0.75 0.17578,0.328125 0.25781,0.7265625 0.25781,1.1953125 z m -3.23437,0 c 0,0.3398438 0.0351,0.6328125 0.1289,0.8789063 0.082,0.2578125 0.22266,0.44531249 0.41016,0.57421874 0.1875,0.140625 0.42188,0.19921875 0.71484,0.19921875 0.29297,0 0.51563,-0.0585938 0.71485,-0.19921875 0.17578,-0.12890625 0.3164,-0.31640624 0.41015,-0.57421874 0.082,-0.2460938 0.12891,-0.5390625 0.12891,-0.8789063 0,-0.328125 -0.0469,-0.6328125 -0.12891,-0.8671875 -0.10546,-0.2460937 -0.23437,-0.421875 -0.42187,-0.5507812 -0.1875,-0.1289063 -0.42188,-0.1992188 -0.71484,-0.1992188 -0.4336,0 -0.76172,0.140625 -0.94922,0.4335938 -0.19922,0.28125 -0.29297,0.6796875 -0.29297,1.1835937 z m 6.32812,-1.59375 h -1.07812 v 3.7500000375 h -0.71485 V -3.7509766 h -0.75 v -0.328125 l 0.75,-0.234375 v -0.2460937 c 0,-0.375 0.0586,-0.6679688 0.16407,-0.9023438 0.11718,-0.2226562 0.26953,-0.3867187 0.48047,-0.5039062 0.21093,-0.1054688 0.45703,-0.1523438 0.75,-0.1523438 0.17578,0 0.32812,0.011719 0.46875,0.046875 0.14062,0.023437 0.25781,0.058594 0.36328,0.09375 l -0.17578,0.5507813 c -0.0937,-0.023437 -0.1875,-0.046875 -0.30469,-0.082031 -0.10547,-0.023437 -0.22266,-0.035156 -0.33985,-0.035156 -0.24609,0 -0.42187,0.082031 -0.52734,0.234375 -0.11719,0.1640625 -0.16406,0.3984375 -0.16406,0.7382812 v 0.28125 h 1.07812 z m 7.00196,1.59375 c 0,0.3632813 -0.0469,0.6796875 -0.14063,0.9609375 -0.0937,0.26953129 -0.22266,0.50390629 -0.39844,0.69140629 -0.17578,0.1875 -0.38672,0.33984375 -0.63281,0.4453125 -0.24609,0.09375 -0.51562,0.140625 -0.82031,0.140625 -0.29297,0 -0.55078,-0.046875 -0.78516,-0.140625 -0.24609,-0.10546875 -0.45703,-0.2578125 -0.63281,-0.4453125 -0.17578,-0.1875 -0.31641,-0.421875 -0.41016,-0.69140629 -0.0937,-0.28125 -0.14062,-0.5976562 -0.14062,-0.9609375 0,-0.46875 0.0703,-0.8671875 0.23437,-1.1953125 0.16407,-0.328125 0.38672,-0.5742187 0.69141,-0.75 0.29297,-0.1757812 0.64453,-0.2695312 1.06641,-0.2695312 0.375,0 0.72656,0.09375 1.01953,0.2695312 0.29297,0.1757813 0.52734,0.421875 0.6914,0.75 0.17578,0.328125 0.25782,0.7265625 0.25782,1.1953125 z m -3.23438,0 c 0,0.3398438 0.0352,0.6328125 0.12891,0.8789063 0.082,0.2578125 0.22265,0.44531249 0.41015,0.57421874 0.1875,0.140625 0.42188,0.19921875 0.71485,0.19921875 0.29297,0 0.51562,-0.0585938 0.71484,-0.19921875 0.17578,-0.12890625 0.31641,-0.31640624 0.41016,-0.57421874 0.082,-0.2460938 0.1289,-0.5390625 0.1289,-0.8789063 0,-0.328125 -0.0469,-0.6328125 -0.1289,-0.8671875 -0.10547,-0.2460937 -0.23438,-0.421875 -0.42188,-0.5507812 -0.1875,-0.1289063 -0.42187,-0.1992188 -0.71484,-0.1992188 -0.4336,0 -0.76172,0.140625 -0.94922,0.4335938 -0.19922,0.28125 -0.29297,0.6796875 -0.29297,1.1835937 z m 5.05078,-2.4492187 c 0,0.1875 -0.0117,0.3515625 -0.0117,0.515625 -0.0117,0.1640625 -0.0234,0.28125 -0.0234,0.3632812 h 0.0352 c 0.11719,-0.1757812 0.29297,-0.328125 0.50391,-0.4570312 0.21094,-0.1171875 0.49219,-0.1757813 0.83203,-0.1757813 0.52734,0 0.94922,0.1875 1.27734,0.5625 0.31641,0.3632813 0.48047,0.9140625 0.48047,1.6523438 0,0.4921875 -0.0703,0.9023437 -0.22265,1.23046874 -0.14063,0.33984375 -0.35157,0.5859375 -0.60938,0.75 -0.26953,0.1640624975 -0.57422,0.24609375 -0.92578,0.24609375 -0.33984,0 -0.62109,-0.05859375 -0.83203,-0.1875 -0.21094,-0.1171875 -0.38672,-0.2578125 -0.50391,-0.43359375 h -0.0586 l -0.14063,0.5390624975 h -0.5039 V -6.0830078 h 0.70312 z m 1.20703,0.8320312 c -0.30468,0 -0.53906,0.058594 -0.71484,0.1757813 -0.17578,0.1054687 -0.30469,0.28125 -0.375,0.5273437 -0.082,0.234375 -0.11719,0.5273438 -0.11719,0.9023438 v 0.035156 c 0,0.5273438 0.082,0.9375 0.25781,1.20703129 0.17579,0.28125 0.49219,0.421875 0.97266,0.421875 0.375,0 0.65625,-0.140625 0.85547,-0.421875 0.1875,-0.28124999 0.28125,-0.69140629 0.28125,-1.23046879 0,-0.5273437 -0.0937,-0.9375 -0.28125,-1.21875 -0.19922,-0.2695312 -0.48047,-0.3984375 -0.87891,-0.3984373 z m 2.47266,5.6953125 c -0.14063,0 -0.25781,-0.011719 -0.35156,-0.023437 -0.10547,-0.011719 -0.1875,-0.046875 -0.26953,-0.070312 V 1.2529297 c 0.082,0.023437 0.16406,0.046875 0.25781,0.058594 0.0703,0.011719 0.17578,0.023437 0.28125,0.023437 0.16406,0 0.30469,-0.035156 0.42187,-0.140625 0.10547,-0.09375 0.16407,-0.26953121 0.16407,-0.52734371 V -4.2900391 h 0.70312 v 4.93359379 c 0,0.26953125 -0.0469,0.49218751 -0.12891,0.67968751 -0.082,0.1992187 -0.21093,0.3515625 -0.38671,0.4453125 -0.17579,0.1054687 -0.41016,0.1523437 -0.69141,0.1523435 z m 0.44531,-7.3710937 c 0,-0.1523438 0.0469,-0.2695313 0.12891,-0.3398438 0.0703,-0.070312 0.17578,-0.1054687 0.29297,-0.1054687 0.10547,0 0.19922,0.035156 0.28125,0.1054687 0.082,0.070312 0.1289,0.1875 0.1289,0.3398438 0,0.1523437 -0.0469,0.2578125 -0.1289,0.3398437 -0.082,0.070312 -0.17578,0.1054688 -0.28125,0.1054688 -0.11719,0 -0.22266,-0.035156 -0.29297,-0.1054688 -0.082,-0.082031 -0.12891,-0.1875 -0.12891,-0.3398437 z m 3.77637,1.078125 c 0.375,0 0.67969,0.082031 0.94922,0.2460937 0.26953,0.1523438 0.46875,0.3867188 0.60937,0.6796875 0.14063,0.28125 0.21094,0.6328125 0.21094,1.0078125 v 0.4335938 h -2.92969 c 0,0.4804687 0.12891,0.8554687 0.36328,1.11328124 0.2461,0.24609375 0.57422,0.375 1.00782,0.375 0.26953,0 0.5039,-0.0234375 0.71484,-0.0820313 0.21094,-0.046875 0.43359,-0.1171875 0.65625,-0.22265625 v 0.62109375 c -0.22266,0.09375 -0.44531,0.1640625 -0.64453,0.2109375 -0.22266,0.046875 -0.48047,0.0703125 -0.76172,0.0703125 -0.41016,0 -0.77344,-0.0820312525 -1.07812,-0.24609375 -0.31641,-0.1640625 -0.5625,-0.41015625 -0.73829,-0.73828125 -0.17578,-0.32812494 -0.24609,-0.72656244 -0.24609,-1.20703124 0,-0.46875 0.0703,-0.8789062 0.22266,-1.2070312 0.16406,-0.3398438 0.375,-0.5976563 0.66797,-0.7851563 0.29296,-0.1757812 0.62109,-0.2695312 0.99609,-0.2695312 z m 0,0.5742187 c -0.33984,0 -0.60938,0.1171875 -0.80859,0.328125 -0.1875,0.2226563 -0.30469,0.515625 -0.33985,0.9023438 h 2.19141 c 0,-0.2460938 -0.0469,-0.4570313 -0.11719,-0.6445313 -0.082,-0.1757812 -0.1875,-0.3164062 -0.33984,-0.421875 -0.15235,-0.1054687 -0.35157,-0.1640625 -0.58594,-0.1640625 z m 4.58203,3.87890629 c -0.38672,0 -0.72656,-0.0703125 -1.01953,-0.234375 -0.29297,-0.15234375 -0.52734,-0.38671875 -0.69141,-0.71484375 -0.17578,-0.32812504 -0.24609,-0.73828124 -0.24609,-1.25390624 0,-0.5273438 0.082,-0.9492188 0.25781,-1.2890625 0.17578,-0.328125 0.41016,-0.5625 0.71485,-0.7265625 0.30468,-0.1523438 0.64453,-0.234375 1.03125,-0.234375 0.21093,0 0.42187,0.023437 0.63281,0.070312 0.19922,0.046875 0.36328,0.09375 0.49219,0.1640625 l -0.21094,0.5859375 c -0.12891,-0.046875 -0.28125,-0.09375 -0.44531,-0.140625 -0.17579,-0.035156 -0.33985,-0.058594 -0.48047,-0.058594 -0.29297,0 -0.52735,0.058594 -0.71485,0.1757813 -0.19922,0.1289062 -0.32812,0.3046875 -0.42187,0.5507812 -0.0937,0.234375 -0.12891,0.5390625 -0.12891,0.890625 0,0.3515625 0.0352,0.6328125 0.12891,0.8789063 0.0937,0.234375 0.22265,0.42187499 0.41015,0.53906249 0.17579,0.12890625 0.41016,0.1875 0.67969,0.1875 0.23438,0 0.44531,-0.0234375 0.6211,-0.0703125 0.17578,-0.046875 0.33984,-0.10546875 0.49218,-0.17578125 v 0.62109375 c -0.14062,0.08203125 -0.30468,0.140625 -0.48047,0.17578125 -0.17578,0.03515625 -0.38671,0.05859375 -0.62109,0.05859445 z m 3.52148,-0.57421875 c 0.10547,0 0.22266,-0.0117188 0.32813,-0.0234375 0.11719,-0.0234375 0.19922,-0.046875 0.28125,-0.0703125 v 0.5390625 c -0.082,0.03515625 -0.1875,0.0703125 -0.32813,0.09375 -0.14062,0.0234375 -0.26953,0.03515625 -0.39843,0.03515625 -0.22266,0 -0.4336,-0.03515625 -0.6211,-0.1171875 -0.19922,-0.08203125 -0.35156,-0.2109375 -0.45703,-0.41015625 -0.11719,-0.1875 -0.17578,-0.4453125 -0.17578,-0.80859374 v -2.4960938 h -0.60937 v -0.328125 l 0.62109,-0.28125 0.26953,-0.9140625 h 0.42188 v 0.984375 h 1.24218 v 0.5390625 h -1.24218 v 2.484375 c 0,0.26953129 0.0586,0.45703129 0.1875,0.58593754 0.1289,0.12890625 0.28125,0.1875 0.48046,0.1875 z m 1.35352,0.0585938 c 0,-0.1875 0.0469,-0.33984375 0.14063,-0.41015625 0.10546,-0.0820313 0.21093,-0.12890625 0.35156,-0.12890625 0.1289,0 0.25781,0.046875 0.35156,0.12890625 0.0937,0.0703125 0.15234,0.22265625 0.15234,0.41015625 0,0.19921875 -0.0586,0.33984375 -0.15234,0.421875 -0.0937,0.08203125 -0.22266,0.12890625 -0.35156,0.12890625 -0.14063,0 -0.2461,-0.046875 -0.35156,-0.12890625 -0.0937,-0.08203125 -0.14063,-0.22265625 -0.14063,-0.421875 z m 0,0"
         style="fill:#898989;fill-opacity:1;fill-rule:nonzero;stroke:none" />
    </g>
    <path
       id="path20"
       d="m 275.031,2.266 c -2.238,0 -4.058,1.816 -4.058,4.054 0,2.235 1.82,4.055 4.058,4.055 2.235,0 4.055,-1.82 4.055,-4.055 0,-2.238 -1.82,-4.054 -4.055,-4.054 z"
       style="fill:#8eccf9;fill-opacity:1;fill-rule:evenodd;stroke:none"
       transform="scale(1.3333333)"
       clip-path="url(#clipPath21)" />
    <path
       id="path22"
       d="m 275.91,4.648 c -0.094,0.094 -0.207,0.141 -0.34,0.141 -0.132,0 -0.25,-0.047 -0.343,-0.141 -0.094,-0.097 -0.141,-0.21 -0.141,-0.343 0,-0.133 0.047,-0.246 0.141,-0.34 0.093,-0.094 0.211,-0.141 0.343,-0.141 0.133,0 0.246,0.047 0.34,0.141 0.094,0.094 0.141,0.207 0.141,0.34 0,0.133 -0.047,0.246 -0.141,0.343 z m -0.57,3.872 c -0.203,0.199 -0.422,0.296 -0.652,0.296 -0.133,0 -0.25,-0.039 -0.356,-0.121 -0.102,-0.082 -0.156,-0.203 -0.156,-0.371 0,-0.058 0.015,-0.152 0.043,-0.277 0.015,-0.074 0.039,-0.168 0.074,-0.289 l 0.441,-1.613 c 0.004,-0.02 0.008,-0.04 0.012,-0.055 0.004,-0.02 0.008,-0.039 0.008,-0.055 0,-0.094 -0.031,-0.156 -0.094,-0.18 -0.058,-0.023 -0.172,-0.039 -0.332,-0.043 V 5.621 c 0.133,-0.008 0.332,-0.027 0.586,-0.059 0.258,-0.027 0.441,-0.054 0.547,-0.074 l 0.309,-0.058 -0.559,2.047 c -0.047,0.175 -0.078,0.296 -0.098,0.363 -0.039,0.172 -0.062,0.285 -0.062,0.336 0,0.054 0.011,0.086 0.035,0.101 0.023,0.016 0.051,0.024 0.078,0.024 0.074,0 0.16,-0.063 0.27,-0.188 0.109,-0.121 0.203,-0.254 0.285,-0.39 l 0.16,0.101 c -0.234,0.348 -0.414,0.578 -0.539,0.696 z"
       style="fill:#ffffff;fill-opacity:1;fill-rule:evenodd;stroke:none"
       transform="scale(1.3333333)"
       clip-path="url(#clipPath23)" />
  </g>
</svg>
