<?xml version="1.0" encoding="UTF-8" standalone="no"?>
<!-- Created with Inkscape (http://www.inkscape.org/) -->

<svg
   version="1.1"
   id="svg2"
   xml:space="preserve"
   width="621.33331"
   height="30.666668"
   viewBox="0 0 621.33331 30.666668"
   sodipodi:docname="0z6bsy6lc1psd.pdf"
   xmlns:inkscape="http://www.inkscape.org/namespaces/inkscape"
   xmlns:sodipodi="http://sodipodi.sourceforge.net/DTD/sodipodi-0.dtd"
   xmlns="http://www.w3.org/2000/svg"
   xmlns:svg="http://www.w3.org/2000/svg"><defs
     id="defs6" /><sodipodi:namedview
     id="namedview4"
     pagecolor="#505050"
     bordercolor="#eeeeee"
     borderopacity="1"
     inkscape:pageshadow="0"
     inkscape:pageopacity="0"
     inkscape:pagecheckerboard="0" /><g
     id="g8"
     inkscape:groupmode="layer"
     inkscape:label="0z6bsy6lc1psd"
     transform="matrix(1.3333333,0,0,1.3333333,0,1.1e-6)"><g
       id="g10"><text
         transform="translate(1.509982,7.44)"
         style="font-variant:normal;font-size:7.92px;font-family:CairoFont-0;-inkscape-font-specification:CairoFont-0-0;writing-mode:lr-tb;fill:#dd1100;fill-opacity:1;fill-rule:nonzero;stroke:none"
         id="text14"><tspan
           x="0 4.5539999 6.8824801 12.37896 17.37648 22.20768 27.046801 31.6008 37.12896 41.960159 46.799278 51.82056 56.635921 58.829762 63.66888 68.690163"
           y="0"
           sodipodi:role="line"
           id="tspan12">FIREToFCTopology</tspan></text><text
         transform="translate(75.684983,7.44)"
         style="font-variant:normal;font-size:7.92px;font-family:CairoFont-0;-inkscape-font-specification:CairoFont-0-0;writing-mode:lr-tb;fill:#000000;fill-opacity:1;fill-rule:nonzero;stroke:none"
         id="text18"><tspan
           x="0"
           y="0"
           id="tspan16">:</tspan></text><text
         transform="translate(81.861215,7.44)"
         style="font-variant:normal;font-size:7.92px;font-family:CairoFont-0;-inkscape-font-specification:CairoFont-0-0;writing-mode:lr-tb;fill:#898989;fill-opacity:1;fill-rule:nonzero;stroke:none"
         id="text22"><tspan
           x="0 4.99752 8.2526398 11.50776 16.34688"
           y="0"
           sodipodi:role="line"
           id="tspan20">Error</tspan></text><text
         transform="translate(101.46322,7.44)"
         style="font-variant:normal;font-size:7.92px;font-family:CairoFont-1;-inkscape-font-specification:CairoFont-1-0;writing-mode:lr-tb;fill:#898989;fill-opacity:1;fill-rule:nonzero;stroke:none"
         id="text26"><tspan
           x="0"
           y="0"
           id="tspan24">!</tspan></text><text
         transform="translate(106.1677,7.44)"
         style="font-variant:normal;font-size:7.92px;font-family:CairoFont-0;-inkscape-font-specification:CairoFont-0-0;writing-mode:lr-tb;fill:#898989;fill-opacity:1;fill-rule:nonzero;stroke:none"
         id="text32"><tspan
           x="0 4.5539999 6.8824801 12.37896 17.37648 22.20768 27.046801 31.6008 37.12896 41.960159 46.77552 51.796799 56.635921 58.829762 63.66888 68.690163 75.881523 80.894882 85.74192 92.370956 97.24176 102.25512 106.6032 111.44232 116.45568 121.46904 124.57368 129.44447 132.6996 137.5704 145.09441 152.45209 155.23991 160.08696 163.1916 168.03864 172.74312 177.7644 181.01952 185.85864 190.87991 193.07376 197.94456 208.16136 213.00841 218.02176 225.55368 233.26776 238.28111 242.39952 248.0148 252.86185 257.88312 262.72223 265.97736 271.59265 274.69727 279.71063 287.10001 291.44809 296.2872 304.00128 309.02255 314.03592 317.14056 321.98761 325.09225 327.28607 332.12521 337.13855 342.14401 346.97519 351.98856"
           y="0"
           sodipodi:role="line"
           id="tspan28">FIREToFCTopologyhasencounteredafatalproblemandmustabortthecomputation.The</tspan><tspan
           x="-81.526443 -76.505165 -73.250046 -68.410927 -63.389645 -61.195805 -56.325005 -46.108204 -42.853085 -37.982285 -33.135246 -28.113964 -23.995565 -18.823805 -14.269805 -9.4227648 -7.2289248 -5.0350847 -0.16428456 7.3597155 10.464355 17.814116 22.162195 27.001316 32.014675 36.695396 41.566196 44.821316 50.436596 55.283634 57.477474 62.181957 67.203232 70.458359 75.297478 80.318756 85.165794 90.187073 95.034119 98.138756 102.97787 108.73572 111.84035 119.19012 122.29475 127.30811 134.69748 139.25148 144.12227 148.80299 153.81636 159.34451 164.19156 166.38539 173.22827 178.24164 183.08075 186.18539 191.03244 194.13707 196.33092 201.17003 206.1834"
           y="11.8"
           sodipodi:role="line"
           id="tspan30">problemreads:FailedtoconvertallpropagatortotheFeynCalcnotation.</tspan></text></g></g></svg>
