<?xml version="1.0" encoding="UTF-8" standalone="no"?>
<!-- Created with Inkscape (http://www.inkscape.org/) -->

<svg
   version="1.1"
   id="svg1"
   width="424"
   height="20"
   viewBox="0 0 424 20"
   sodipodi:docname="0zgw7om8p0zoz.pdf"
   xmlns:inkscape="http://www.inkscape.org/namespaces/inkscape"
   xmlns:sodipodi="http://sodipodi.sourceforge.net/DTD/sodipodi-0.dtd"
   xmlns="http://www.w3.org/2000/svg"
   xmlns:svg="http://www.w3.org/2000/svg">
  <defs
     id="defs1">
    <clipPath
       clipPathUnits="userSpaceOnUse"
       id="clipPath2">
      <path
         d="m 0,3 h 12.961 v 9 H 0 Z"
         id="path2" />
    </clipPath>
    <clipPath
       clipPathUnits="userSpaceOnUse"
       id="clipPath4">
      <path
         d="m 0,3 h 12.961 v 9 H 0 Z"
         id="path4" />
    </clipPath>
    <clipPath
       clipPathUnits="userSpaceOnUse"
       id="clipPath6">
      <path
         d="m 0,3 h 12.961 v 9 H 0 Z"
         id="path6" />
    </clipPath>
    <clipPath
       clipPathUnits="userSpaceOnUse"
       id="clipPath8">
      <path
         d="m 0,3 h 12.961 v 9 H 0 Z"
         id="path8" />
    </clipPath>
  </defs>
  <sodipodi:namedview
     id="namedview1"
     pagecolor="#ffffff"
     bordercolor="#999999"
     borderopacity="1"
     inkscape:showpageshadow="0"
     inkscape:pageopacity="0"
     inkscape:pagecheckerboard="0"
     inkscape:deskcolor="#d1d1d1">
    <inkscape:page
       x="0"
       y="0"
       id="page1"
       width="424"
       height="20"
       margin="0"
       bleed="0" />
  </sodipodi:namedview>
  <g
     id="g1"
     inkscape:groupmode="layer"
     inkscape:label="">
    <path
       id="path1"
       d="m 12.113,6.73 c 0,-1.554 -1.261,-2.816 -2.816,-2.816 H 3.664 c -1.559,0 -2.82,1.262 -2.82,2.816 v 1.551 c 0,1.555 1.261,2.817 2.82,2.817 h 5.633 c 1.555,0 2.816,-1.262 2.816,-2.817 V 6.73"
       style="fill:none;stroke:#e5e5e5;stroke-width:0.7128;stroke-linecap:square;stroke-linejoin:miter;stroke-miterlimit:3.25;stroke-dasharray:none;stroke-opacity:1"
       transform="scale(1.3333333)"
       clip-path="url(#clipPath2)" />
    <path
       id="path3"
       d="M 7.258,7.508 C 7.258,7.711 7.176,7.91 7.031,8.055 6.883,8.203 6.688,8.285 6.48,8.285 6.273,8.285 6.074,8.203 5.93,8.055 5.785,7.91 5.703,7.711 5.703,7.508 5.703,7.301 5.785,7.102 5.93,6.957 6.074,6.809 6.273,6.727 6.48,6.727 c 0.208,0 0.403,0.082 0.551,0.23 0.145,0.145 0.227,0.344 0.227,0.551 z"
       style="fill:#ff5454;fill-opacity:1;fill-rule:evenodd;stroke:none"
       transform="scale(1.3333333)"
       clip-path="url(#clipPath4)" />
    <path
       id="path5"
       d="M 10.074,7.508 C 10.074,7.711 9.992,7.91 9.848,8.055 9.703,8.203 9.504,8.285 9.297,8.285 9.09,8.285 8.895,8.203 8.746,8.055 8.602,7.91 8.52,7.711 8.52,7.508 8.52,7.301 8.602,7.102 8.746,6.957 8.895,6.809 9.09,6.727 9.297,6.727 c 0.207,0 0.406,0.082 0.551,0.23 0.144,0.145 0.226,0.344 0.226,0.551 z"
       style="fill:#ff5454;fill-opacity:1;fill-rule:evenodd;stroke:none"
       transform="scale(1.3333333)"
       clip-path="url(#clipPath6)" />
    <path
       id="path7"
       d="M 4.441,7.508 C 4.441,7.711 4.359,7.91 4.211,8.055 4.066,8.203 3.867,8.285 3.664,8.285 3.457,8.285 3.258,8.203 3.113,8.055 2.969,7.91 2.887,7.711 2.887,7.508 c 0,-0.207 0.082,-0.406 0.226,-0.551 0.145,-0.148 0.344,-0.23 0.551,-0.23 0.203,0 0.402,0.082 0.547,0.23 0.148,0.145 0.23,0.344 0.23,0.551 z"
       style="fill:#ff5454;fill-opacity:1;fill-rule:evenodd;stroke:none"
       transform="scale(1.3333333)"
       clip-path="url(#clipPath8)" />
    <path
       id="path9"
       d="M 1.4993125,-9.765625e-4 H 0.77275 V -5.7197266 h 3.1992188 v 0.6328125 H 1.4993125 v 2.0273438 H 3.819625 v 0.6328125 H 1.4993125 Z M 5.5334922,-4.2900391 V -9.765625e-4 H 4.8303672 V -4.2900391 Z M 5.1936484,-5.8955078 c 0.1054688,0 0.1992188,0.035156 0.28125,0.1054687 0.082031,0.070312 0.1289063,0.1875 0.1289063,0.3398438 0,0.1523437 -0.046875,0.2578125 -0.1289063,0.3398437 -0.082031,0.070312 -0.1757812,0.1054688 -0.28125,0.1054688 -0.1171875,0 -0.2226562,-0.035156 -0.2929687,-0.1054688 -0.082031,-0.082031 -0.1289063,-0.1875 -0.1289063,-0.3398437 0,-0.1523438 0.046875,-0.2695313 0.1289063,-0.3398438 0.070312,-0.070312 0.1757812,-0.1054687 0.2929687,-0.1054687 z M 7.5989219,-9.765625e-4 H 6.8957969 V -6.0830078 h 0.703125 z M 10.610641,-4.3720703 c 0.375,0 0.679687,0.082031 0.949218,0.2460937 0.269532,0.1523438 0.46875,0.3867188 0.609375,0.6796875 0.140625,0.28125 0.210938,0.6328125 0.210938,1.0078125 v 0.4335938 H 9.4504844 c 0,0.4804687 0.1289062,0.8554687 0.3632812,1.11328124 0.2460934,0.24609375 0.5742184,0.375 1.0078124,0.375 0.269531,0 0.503906,-0.0234375 0.714844,-0.0820313 0.210937,-0.046875 0.433594,-0.1171875 0.65625,-0.22265625 v 0.62109375 c -0.222656,0.09375 -0.445313,0.1640625 -0.644531,0.2109375 -0.222657,0.046875 -0.480469,0.0703125 -0.761719,0.0703125 -0.410156,0 -0.773438,-0.0820312525 -1.0781251,-0.24609375 -0.3164063,-0.1640625 -0.5625,-0.41015625 -0.7382813,-0.73828125 C 8.7942344,-1.2314453 8.7239219,-1.6298828 8.7239219,-2.1103516 c 0,-0.46875 0.070312,-0.8789062 0.2226562,-1.2070312 0.1640625,-0.3398438 0.375,-0.5976563 0.6679688,-0.7851563 0.2929687,-0.1757812 0.6210941,-0.2695312 0.9960941,-0.2695312 z m 0,0.5742187 c -0.339844,0 -0.609375,0.1171875 -0.8085941,0.328125 -0.1875,0.2226563 -0.3046875,0.515625 -0.3398438,0.9023438 h 2.1914059 c 0,-0.2460938 -0.04687,-0.4570313 -0.117187,-0.6445313 -0.08203,-0.1757812 -0.1875,-0.3164062 -0.339844,-0.421875 -0.152344,-0.1054687 -0.351562,-0.1640625 -0.585937,-0.1640625 z m 4.441406,-1.921875 c 0.75,0 1.289062,0.1523438 1.640625,0.4453125 0.328125,0.2929688 0.503906,0.7148438 0.503906,1.2421875 0,0.234375 -0.03516,0.4570313 -0.117187,0.6796875 -0.08203,0.2109375 -0.199219,0.4101563 -0.375,0.5742188 -0.175782,0.1757812 -0.410157,0.3164062 -0.703125,0.4101562 -0.292969,0.09375 -0.65625,0.140625 -1.078125,0.140625 h -0.65625 V -9.765625e-4 H 13.540328 V -5.7197266 Z m -0.05859,0.6210938 h -0.726562 v 2.2617187 h 0.574218 c 0.363282,0 0.667969,-0.035156 0.902344,-0.1171875 0.246094,-0.082031 0.421875,-0.1992187 0.539063,-0.375 0.105468,-0.1640625 0.175781,-0.3984375 0.175781,-0.6679687 0,-0.375 -0.117188,-0.6445313 -0.351563,-0.8320313 -0.246093,-0.1757812 -0.609375,-0.2695312 -1.113281,-0.2695312 z m 5.296875,0.7265625 c 0.08203,0 0.152344,0.011719 0.257813,0.011719 0.09375,0.011719 0.175781,0.023437 0.246093,0.035156 l -0.09375,0.65625 c -0.07031,-0.023437 -0.152343,-0.035156 -0.222656,-0.046875 -0.08203,-0.011719 -0.164062,-0.011719 -0.234375,-0.011719 -0.175781,0 -0.328125,0.035156 -0.480469,0.1054688 -0.152343,0.070312 -0.28125,0.1640625 -0.398437,0.2929687 -0.117188,0.1289063 -0.210938,0.2695313 -0.28125,0.4453125 -0.05859,0.1757813 -0.09375,0.375 -0.09375,0.5976563 V -9.765625e-4 H 18.286422 V -4.2900391 h 0.574219 l 0.08203,0.7851563 h 0.03516 c 0.08203,-0.1640625 0.199219,-0.3046875 0.328125,-0.4335938 0.128906,-0.1289062 0.269531,-0.234375 0.433594,-0.3164062 0.164062,-0.082031 0.351562,-0.1171875 0.550782,-0.1171875 z m 1.980469,0.082031 V -9.765625e-4 H 21.567672 V -4.2900391 Z M 21.930957,-5.895508 c 0.105469,0 0.199219,0.035156 0.28125,0.1054687 0.08203,0.070312 0.128906,0.1875 0.128906,0.3398438 0,0.1523437 -0.04687,0.2578125 -0.128906,0.3398437 -0.08203,0.070312 -0.175781,0.1054688 -0.28125,0.1054688 -0.117187,0 -0.222656,-0.035156 -0.292969,-0.1054688 -0.08203,-0.082031 -0.128906,-0.1875 -0.128906,-0.3398437 0,-0.1523438 0.04687,-0.2695313 0.128906,-0.3398438 0.07031,-0.070312 0.175782,-0.1054687 0.292969,-0.1054687 z m 3.764649,1.5234375 c 0.515625,0 0.902343,0.1289062 1.160156,0.375 0.257812,0.2460937 0.398437,0.65625 0.398437,1.2070312 V -9.765625e-4 H 26.55107 V -2.7431641 c 0,-0.3515625 -0.07031,-0.5976562 -0.222656,-0.7851562 -0.164062,-0.1640625 -0.410156,-0.2460938 -0.738281,-0.2460938 -0.480469,0 -0.808594,0.1289063 -0.984375,0.3984375 -0.175781,0.2695313 -0.269531,0.65625 -0.269531,1.1484375 V -9.765625e-4 H 23.633102 V -4.2900391 h 0.574218 l 0.09375,0.5859375 h 0.04687 c 0.09375,-0.1523437 0.210938,-0.2695312 0.351563,-0.375 0.140625,-0.09375 0.292969,-0.1757812 0.46875,-0.2226562 0.175781,-0.046875 0.351562,-0.070312 0.527344,-0.070312 z m 4.30957,3.87890624 c 0.105469,0 0.222656,-0.0117188 0.328125,-0.0234375 0.117187,-0.0234375 0.199219,-0.046875 0.28125,-0.0703125 v 0.5390625 c -0.08203,0.03515625 -0.1875,0.0703125 -0.328125,0.09375 -0.140625,0.0234375 -0.269531,0.03515625 -0.398438,0.03515625 -0.222656,0 -0.433593,-0.03515625 -0.621093,-0.1171875 -0.199219,-0.08203125 -0.351563,-0.2109375 -0.457032,-0.41015625 -0.117187,-0.1875 -0.175781,-0.4453125 -0.175781,-0.80859374 v -2.4960938 h -0.609375 v -0.328125 l 0.621094,-0.28125 0.269531,-0.9140625 h 0.421875 v 0.984375 h 1.242188 v 0.5390625 h -1.242188 v 2.484375 c 0,0.26953129 0.05859,0.45703129 0.1875,0.58593754 0.128906,0.12890625 0.28125,0.1875 0.480469,0.1875 z m 0,0"
       style="fill:#dd1100;fill-opacity:1;fill-rule:nonzero;stroke:none"
       aria-label="FilePrint"
       transform="matrix(1.3333333,0,0,1.3333333,19.469667,13.333333)" />
    <path
       id="path10"
       d="m 0.57325781,-0.43457031 c 0,-0.1875 0.046875,-0.33984375 0.140625,-0.41015625 0.10546875,-0.0820313 0.2109375,-0.12890625 0.35156249,-0.12890625 0.1289063,0 0.2578125,0.046875 0.3515625,0.12890625 0.09375,0.0703125 0.1523438,0.22265625 0.1523438,0.41015625 0,0.19921875 -0.058594,0.33984375 -0.1523438,0.421875 -0.09375,0.08203125 -0.2226562,0.12890625 -0.3515625,0.12890625 -0.14062499,0 -0.24609374,-0.046875 -0.35156249,-0.12890625 -0.09375,-0.08203125 -0.140625,-0.22265625 -0.140625,-0.421875 z m 0,-3.42187499 c 0,-0.1992188 0.046875,-0.3515625 0.140625,-0.421875 0.10546875,-0.082031 0.2109375,-0.1289063 0.35156249,-0.1289063 0.1289063,0 0.2578125,0.046875 0.3515625,0.1289063 0.09375,0.070312 0.1523438,0.2226562 0.1523438,0.421875 0,0.1875 -0.058594,0.328125 -0.1523438,0.4101562 -0.09375,0.09375 -0.2226562,0.1289063 -0.3515625,0.1289063 -0.14062499,0 -0.24609374,-0.035156 -0.35156249,-0.1289063 -0.09375,-0.082031 -0.140625,-0.2226562 -0.140625,-0.4101562 z m 0,0"
       style="fill:#000000;fill-opacity:1;fill-rule:nonzero;stroke:none"
       aria-label=":"
       transform="matrix(1.3333333,0,0,1.3333333,61.4505,13.333333)" />
    <g
       id="g10"
       aria-label="Thespeciﬁedargument,ﬁleNames〚1〛,shouldbeavalidstringorFile."
       transform="matrix(1.3333333,0,0,1.3333333,69.107667,13.333333)">
      <path
         id="path11"
         d="M 2.591125,-9.765625e-4 H 1.8645625 V -5.0869141 h -1.78125 v -0.6328125 h 4.2773438 v 0.6328125 H 2.591125 Z M 5.8313594,-4.3017578 c 0,0.1054687 -0.011719,0.2109375 -0.011719,0.3164062 -0.011719,0.1054688 -0.023437,0.2109375 -0.023437,0.28125 h 0.046875 c 0.082031,-0.140625 0.1992188,-0.2695312 0.3398438,-0.3632812 0.140625,-0.09375 0.2929687,-0.1640625 0.46875,-0.2109375 0.1640625,-0.058594 0.3398437,-0.082031 0.5273437,-0.082031 0.3398438,0 0.6328125,0.058594 0.8671875,0.1640625 0.2226563,0.1171875 0.3984375,0.28125 0.5273438,0.5039063 0.1054687,0.234375 0.1757812,0.5273437 0.1757812,0.9023437 V -9.765625e-4 H 8.0462031 V -2.7431641 c 0,-0.3515625 -0.070312,-0.5976562 -0.2226562,-0.7851562 -0.1640625,-0.1640625 -0.4101563,-0.2460938 -0.7382813,-0.2460938 -0.3164062,0 -0.5742187,0.058594 -0.75,0.1757813 -0.1875,0.1289062 -0.3046875,0.3046875 -0.3867187,0.5273437 -0.082031,0.234375 -0.1171875,0.515625 -0.1171875,0.8554688 V -9.765625e-4 H 5.1282344 V -6.0830078 h 0.703125 z m 5.8916016,-0.070312 c 0.375,0 0.679687,0.082031 0.949219,0.2460937 0.269531,0.1523438 0.46875,0.3867188 0.609375,0.6796875 0.140625,0.28125 0.210937,0.6328125 0.210937,1.0078125 v 0.4335938 h -2.929687 c 0,0.4804687 0.128906,0.8554687 0.363281,1.11328124 0.246094,0.24609375 0.574219,0.375 1.007812,0.375 0.269532,0 0.503907,-0.0234375 0.714844,-0.0820313 0.210938,-0.046875 0.433594,-0.1171875 0.65625,-0.22265625 v 0.62109375 c -0.222656,0.09375 -0.445312,0.1640625 -0.644531,0.2109375 -0.222656,0.046875 -0.480469,0.0703125 -0.761719,0.0703125 -0.410156,0 -0.773437,-0.0820312525 -1.078125,-0.24609375 -0.316406,-0.1640625 -0.5625,-0.41015625 -0.738281,-0.73828125 C 9.9065547,-1.2314453 9.8362422,-1.6298828 9.8362422,-2.1103516 c 0,-0.46875 0.070312,-0.8789062 0.2226558,-1.2070312 0.164063,-0.3398438 0.375,-0.5976563 0.667969,-0.7851563 0.292969,-0.1757812 0.621094,-0.2695312 0.996094,-0.2695307 z m 0,0.5742187 c -0.339844,0 -0.609375,0.1171875 -0.808594,0.328125 -0.1875,0.2226563 -0.304687,0.515625 -0.339844,0.9023438 h 2.191407 c 0,-0.2460938 -0.04687,-0.4570313 -0.117188,-0.6445313 -0.08203,-0.1757812 -0.1875,-0.3164062 -0.339844,-0.421875 -0.152343,-0.1054687 -0.351562,-0.1640625 -0.585937,-0.1640625 z m 7.699219,2.6132813 c 0,0.28124999 -0.07031,0.51562499 -0.199219,0.69140624 -0.152344,0.19921875 -0.339844,0.328125 -0.597656,0.43359375 -0.257813,0.09375 -0.5625,0.140625 -0.914063,0.140625 -0.304687,0 -0.5625,-0.0234375 -0.773437,-0.0703125 -0.210938,-0.046875 -0.410157,-0.1171875 -0.5625,-0.19921875 v -0.64453125 c 0.164062,0.0820313 0.375,0.1640625 0.609375,0.234375 0.246093,0.0820313 0.492187,0.10546875 0.75,0.10546875 0.351562,0 0.609375,-0.046875 0.773437,-0.1640625 0.164063,-0.1171875 0.234375,-0.26953125 0.234375,-0.46875004 0,-0.09375 -0.02344,-0.1992187 -0.08203,-0.28125 -0.07031,-0.082031 -0.164063,-0.1757812 -0.316406,-0.2578125 -0.152344,-0.082031 -0.375,-0.1757812 -0.65625,-0.2929687 -0.28125,-0.1054688 -0.515625,-0.1992188 -0.714844,-0.3164063 -0.199219,-0.1054687 -0.351563,-0.234375 -0.457031,-0.3867187 -0.105469,-0.140625 -0.152344,-0.328125 -0.152344,-0.5742188 0,-0.3632812 0.140625,-0.6445312 0.433594,-0.84375 0.304687,-0.1875 0.691406,-0.2929687 1.171875,-0.2929687 0.257812,0 0.503906,0.035156 0.726562,0.082031 0.222656,0.046875 0.445313,0.1171875 0.644531,0.2109375 L 19.094056,-3.52832 c -0.175782,-0.070312 -0.375,-0.1289063 -0.5625,-0.1875 -0.199219,-0.046875 -0.398438,-0.082031 -0.609375,-0.082031 -0.292969,0 -0.515625,0.046875 -0.667969,0.1523438 -0.152344,0.09375 -0.222656,0.2109375 -0.222656,0.375 0,0.1171875 0.03516,0.2226562 0.105468,0.3046875 0.07031,0.070312 0.1875,0.1523437 0.339844,0.234375 0.164063,0.082031 0.386719,0.1640625 0.65625,0.2695312 0.28125,0.1054688 0.503906,0.2109375 0.703125,0.3164063 0.1875,0.1171875 0.339844,0.234375 0.433594,0.3867187 0.105469,0.1523438 0.152344,0.3515625 0.152344,0.5742188 z m 3.082031,-3.1875 c 0.527344,0 0.949219,0.1875 1.277344,0.5507812 0.316406,0.375 0.480468,0.9257813 0.480468,1.6640625 0,0.4921875 -0.07031,0.9023438 -0.222656,1.23046879 -0.140625,0.33984375 -0.351562,0.5859375 -0.609375,0.76171875 -0.269531,0.1640624975 -0.574219,0.24609375 -0.925781,0.24609375 -0.234375,0 -0.421875,-0.0234375 -0.585938,-0.09375 -0.175781,-0.046875 -0.328125,-0.12890625 -0.445312,-0.22265625 -0.117188,-0.09375 -0.222656,-0.19921875 -0.304688,-0.3046875 h -0.04687 c 0.01172,0.09375 0.01172,0.19921875 0.03516,0.33984375 0,0.140625 0.01172,0.2578125 0.01172,0.36328125 V 1.9208984 h -0.703125 v -6.2109375 h 0.574219 l 0.09375,0.5859375 h 0.03516 c 0.08203,-0.1171875 0.1875,-0.234375 0.304688,-0.3398437 0.117187,-0.09375 0.269531,-0.1757813 0.433594,-0.234375 0.164062,-0.058594 0.363281,-0.09375 0.597656,-0.09375 z m -0.128906,0.5976562 c -0.28125,0 -0.515625,0.046875 -0.691407,0.1640625 -0.175781,0.1171875 -0.304687,0.2695313 -0.386718,0.4921875 -0.08203,0.2226563 -0.128907,0.4921875 -0.128907,0.8320313 v 0.1289062 c 0,0.3515625 0.03516,0.65625 0.117188,0.9023438 0.07031,0.2460937 0.199219,0.43359374 0.375,0.56249999 0.175781,0.12890625 0.421875,0.1875 0.738281,0.1875 0.257813,0 0.46875,-0.0703125 0.632813,-0.2109375 0.175781,-0.15234375 0.304687,-0.33984379 0.375,-0.58593749 0.08203,-0.2578125 0.128906,-0.5390625 0.128906,-0.8554688 0,-0.4921875 -0.09375,-0.890625 -0.28125,-1.1835937 -0.199219,-0.28125 -0.480469,-0.4335938 -0.878906,-0.4335938 z m 4.661133,-0.5976562 c 0.375,0 0.679687,0.082031 0.949218,0.2460937 0.269532,0.1523438 0.46875,0.3867188 0.609375,0.6796875 0.140625,0.28125 0.210938,0.6328125 0.210938,1.0078125 v 0.4335938 h -2.929688 c 0,0.4804687 0.128907,0.8554687 0.363282,1.11328124 0.246093,0.24609375 0.574218,0.375 1.007812,0.375 0.269531,0 0.503906,-0.0234375 0.714844,-0.0820313 0.210937,-0.046875 0.433594,-0.1171875 0.65625,-0.22265625 v 0.62109375 c -0.222656,0.09375 -0.445313,0.1640625 -0.644531,0.2109375 -0.222657,0.046875 -0.480469,0.0703125 -0.761719,0.0703125 -0.410156,0 -0.773438,-0.0820312525 -1.078125,-0.24609375 -0.316406,-0.1640625 -0.5625,-0.41015625 -0.738281,-0.73828125 -0.175782,-0.32812494 -0.246094,-0.72656244 -0.246094,-1.20703124 0,-0.46875 0.07031,-0.8789062 0.222656,-1.2070313 0.164063,-0.3398438 0.375,-0.5976563 0.667969,-0.7851562 0.292969,-0.1757812 0.621094,-0.2695312 0.996094,-0.2695312 z m 0,0.5742187 c -0.339844,0 -0.609375,0.1171875 -0.808594,0.328125 -0.1875,0.2226563 -0.304688,0.515625 -0.339844,0.9023438 h 2.191406 c 0,-0.2460938 -0.04687,-0.4570313 -0.117187,-0.6445313 -0.08203,-0.1757812 -0.1875,-0.3164062 -0.339844,-0.421875 -0.152344,-0.1054687 -0.351562,-0.1640625 -0.585937,-0.1640625 z m 4.549804,3.87890629 c -0.386719,0 -0.726562,-0.0703125 -1.019531,-0.234375 -0.292969,-0.15234375 -0.527344,-0.38671875 -0.691406,-0.71484375 -0.175782,-0.32812504 -0.246094,-0.73828124 -0.246094,-1.25390624 0,-0.5273438 0.08203,-0.9492188 0.257812,-1.2890625 0.175782,-0.328125 0.410157,-0.5625 0.714844,-0.7265625 0.304688,-0.1523438 0.644531,-0.234375 1.03125,-0.234375 0.210938,0 0.421875,0.023437 0.632813,0.070312 0.199218,0.046875 0.363281,0.09375 0.492187,0.1640625 l -0.210937,0.5859375 c -0.128907,-0.046875 -0.28125,-0.09375 -0.445313,-0.140625 -0.175781,-0.035156 -0.339844,-0.058594 -0.480469,-0.058594 -0.292968,0 -0.527343,0.058594 -0.714843,0.1757813 -0.199219,0.1289062 -0.328125,0.3046875 -0.421875,0.5507812 -0.09375,0.234375 -0.128907,0.5390625 -0.128907,0.890625 0,0.3515625 0.03516,0.6328125 0.128907,0.8789063 0.09375,0.234375 0.222656,0.42187499 0.410156,0.53906249 0.175781,0.12890625 0.410156,0.1875 0.679687,0.1875 0.234375,0 0.445313,-0.0234375 0.621094,-0.0703125 0.175781,-0.046875 0.339844,-0.10546875 0.492188,-0.17578125 v 0.62109375 c -0.140625,0.08203125 -0.304688,0.140625 -0.480469,0.17578125 -0.175781,0.03515625 -0.386719,0.05859375 -0.621094,0.05859445 z M 34.407531,-4.2900391 V -9.765625e-4 H 33.704406 V -4.2900391 Z m -0.339843,-1.6054687 c 0.105468,0 0.199218,0.035156 0.28125,0.1054687 0.08203,0.070312 0.128906,0.1875 0.128906,0.3398438 0,0.1523437 -0.04687,0.2578125 -0.128906,0.3398437 -0.08203,0.070312 -0.175782,0.1054688 -0.28125,0.1054688 -0.117188,0 -0.222657,-0.035156 -0.292969,-0.1054688 -0.08203,-0.082031 -0.128906,-0.1875 -0.128906,-0.3398437 0,-0.1523438 0.04687,-0.2695313 0.128906,-0.3398438 0.07031,-0.070312 0.175781,-0.1054687 0.292969,-0.1054687 z m 0,0"
         style="fill:#898989;fill-opacity:1;fill-rule:nonzero;stroke:none" />
      <path
         id="path12"
         d="M 37.747375,-3.7509766 H 36.66925 V -9.765625e-4 H 35.954406 V -3.7509766 h -0.75 v -0.328125 l 0.75,-0.234375 v -0.2460937 c 0,-0.375 0.05859,-0.6679688 0.164063,-0.9023438 0.117187,-0.2226562 0.269531,-0.3867187 0.480469,-0.5039062 0.210937,-0.1054688 0.457031,-0.1523438 0.75,-0.1523438 0.175781,0 0.328125,0.011719 0.46875,0.046875 0.140625,0.023437 0.257812,0.058594 0.363281,0.09375 l -0.175781,0.5507813 c -0.09375,-0.023437 -0.1875,-0.046875 -0.304688,-0.082031 -0.105469,-0.023437 -0.222656,-0.035156 -0.339844,-0.035156 -0.246093,0 -0.421875,0.082031 -0.527343,0.234375 -0.117188,0.1640625 -0.164063,0.3984375 -0.164063,0.7382812 v 0.28125 h 1.078125 z m 1.476563,-0.5390625 V -9.765625e-4 H 38.520813 V -4.2900391 Z m -0.339844,-1.6054687 c 0.105469,0 0.199219,0.035156 0.28125,0.1054687 0.07031,0.070312 0.128906,0.1875 0.128906,0.3398438 0,0.1523437 -0.05859,0.2578125 -0.128906,0.3398437 -0.08203,0.070312 -0.175781,0.1054688 -0.28125,0.1054688 -0.128906,0 -0.222656,-0.035156 -0.304688,-0.1054688 -0.07031,-0.082031 -0.117187,-0.1875 -0.117187,-0.3398437 0,-0.1523438 0.04687,-0.2695313 0.117187,-0.3398438 0.08203,-0.070312 0.175782,-0.1054687 0.304688,-0.1054687 z m 0,0"
         style="fill:#898989;fill-opacity:1;fill-rule:nonzero;stroke:none" />
      <path
         id="path13"
         d="m 42.235656,-4.3720703 c 0.375,0 0.679688,0.082031 0.949219,0.2460937 0.269531,0.1523438 0.46875,0.3867188 0.609375,0.6796875 0.140625,0.28125 0.210938,0.6328125 0.210938,1.0078125 v 0.4335938 H 41.0755 c 0,0.4804687 0.128906,0.8554687 0.363281,1.11328124 0.246094,0.24609375 0.574219,0.375 1.007813,0.375 0.269531,0 0.503906,-0.0234375 0.714844,-0.0820313 0.210937,-0.046875 0.433593,-0.1171875 0.65625,-0.22265625 v 0.62109375 c -0.222657,0.09375 -0.445313,0.1640625 -0.644532,0.2109375 -0.222656,0.046875 -0.480468,0.0703125 -0.761718,0.0703125 -0.410157,0 -0.773438,-0.0820312525 -1.078125,-0.24609375 -0.316407,-0.1640625 -0.5625,-0.41015625 -0.738282,-0.73828125 -0.175781,-0.32812494 -0.246093,-0.72656244 -0.246093,-1.20703124 0,-0.46875 0.07031,-0.8789062 0.222656,-1.2070312 0.164062,-0.3398438 0.375,-0.5976563 0.667969,-0.7851563 0.292968,-0.1757812 0.621093,-0.2695312 0.996093,-0.2695312 z m 0,0.5742187 c -0.339843,0 -0.609375,0.1171875 -0.808593,0.328125 -0.1875,0.2226563 -0.304688,0.515625 -0.339844,0.9023438 h 2.191406 c 0,-0.2460938 -0.04687,-0.4570313 -0.117187,-0.6445313 -0.08203,-0.1757812 -0.1875,-0.3164062 -0.339844,-0.421875 -0.152344,-0.1054687 -0.351563,-0.1640625 -0.585938,-0.1640625 z m 4.359375,3.87890629 c -0.539062,0 -0.960937,-0.1875 -1.277343,-0.55078125 -0.328125,-0.375 -0.480469,-0.93750004 -0.480469,-1.66406254 0,-0.7382812 0.152344,-1.2890625 0.480469,-1.6640625 0.316406,-0.3867187 0.75,-0.5742187 1.289062,-0.5742187 0.222656,0 0.410156,0.035156 0.574219,0.09375 0.164062,0.046875 0.304687,0.1289062 0.433594,0.2226562 0.117187,0.09375 0.222656,0.1992188 0.316406,0.3164063 h 0.04687 c -0.01172,-0.058594 -0.01172,-0.1640625 -0.03516,-0.3046875 -0.01172,-0.140625 -0.01172,-0.2460938 -0.01172,-0.328125 v -1.7109375 h 0.703125 V -9.765625e-4 H 48.059875 L 47.966125,-0.57519531 h -0.03516 c -0.09375,0.12890625 -0.199219,0.234375 -0.316406,0.33984375 -0.128907,0.09375 -0.269532,0.17578125 -0.433594,0.22265625 -0.175781,0.0703125 -0.363281,0.09375 -0.585938,0.09375 z m 0.105469,-0.5859375 c 0.457031,0 0.773438,-0.1171875 0.960938,-0.36328125 0.175781,-0.25781254 0.28125,-0.63281254 0.28125,-1.13671874 v -0.1289063 c 0,-0.5273437 -0.09375,-0.9375 -0.269532,-1.21875 -0.175781,-0.2929687 -0.503906,-0.4335937 -0.972656,-0.4335937 -0.386719,0 -0.667969,0.1523437 -0.855469,0.4570312 -0.199218,0.3046875 -0.28125,0.703125 -0.28125,1.2070313 0,0.515625 0.08203,0.9140625 0.28125,1.19531249 0.1875,0.28125 0.480469,0.421875 0.855469,0.421875 z m 6.984375,-3.85546879 c 0.515625,0 0.902344,0.1171875 1.160156,0.3398438 0.246094,0.234375 0.375,0.5976562 0.375,1.1015625 V -9.765625e-4 H 54.704406 L 54.5755,-0.61035156 h -0.03516 c -0.128906,0.1640625 -0.257813,0.29296875 -0.386719,0.3984375 -0.128906,0.09375 -0.28125,0.17578125 -0.445312,0.22265625 -0.175782,0.046875 -0.375,0.0703125 -0.609375,0.0703125 -0.257813,0 -0.492188,-0.046875 -0.703125,-0.140625 -0.199219,-0.08203125 -0.363282,-0.22265625 -0.480469,-0.41015625 -0.117188,-0.19921875 -0.175781,-0.43359375 -0.175781,-0.72656254 0,-0.421875 0.175781,-0.75 0.503906,-0.984375 0.339844,-0.234375 0.855469,-0.3632812 1.558594,-0.3867187 l 0.726562,-0.023437 v -0.2460938 c 0,-0.3632812 -0.08203,-0.609375 -0.234375,-0.75 -0.152344,-0.140625 -0.375,-0.2109375 -0.65625,-0.2109375 -0.222656,0 -0.433594,0.046875 -0.632812,0.1054688 -0.210938,0.070312 -0.398438,0.140625 -0.574219,0.2226562 l -0.210938,-0.5273437 c 0.175782,-0.09375 0.410157,-0.1875 0.65625,-0.2578125 0.257813,-0.070312 0.527344,-0.1054688 0.808594,-0.1054688 z m 0.199219,2.2851563 c -0.527344,0.023437 -0.902344,0.1171875 -1.101563,0.2578125 -0.210937,0.1523437 -0.304687,0.3632812 -0.304687,0.6328125 0,0.23437499 0.07031,0.41015624 0.210937,0.52734374 0.140625,0.1171875 0.339844,0.1640625 0.574219,0.1640625 0.351563,0 0.65625,-0.09375 0.902344,-0.29296875 0.234375,-0.19921875 0.351562,-0.51562499 0.351562,-0.92578129 v -0.3867187 z m 4.664062,-2.296875 c 0.08203,0 0.152344,0.011719 0.257813,0.011719 0.09375,0.011719 0.175781,0.023437 0.246094,0.035156 l -0.09375,0.65625 c -0.07031,-0.023437 -0.152344,-0.035156 -0.222657,-0.046875 -0.08203,-0.011719 -0.164062,-0.011719 -0.234375,-0.011719 -0.175781,0 -0.328125,0.035156 -0.480468,0.1054688 -0.152344,0.070312 -0.28125,0.1640625 -0.398438,0.2929687 -0.117187,0.1289063 -0.210937,0.2695313 -0.28125,0.4453125 -0.05859,0.1757813 -0.09375,0.375 -0.09375,0.5976563 V -9.765625e-4 H 56.54425 V -4.2900391 h 0.574219 l 0.08203,0.7851563 h 0.03516 c 0.08203,-0.1640625 0.199219,-0.3046875 0.328125,-0.4335938 0.128907,-0.1289062 0.269532,-0.234375 0.433594,-0.3164062 0.164063,-0.082031 0.351563,-0.1171875 0.550781,-0.1171875 z m 2.824219,0 c 0.28125,0 0.539063,0.058594 0.761719,0.1640625 0.222656,0.1054687 0.421875,0.2695312 0.585937,0.4804687 h 0.03516 l 0.09375,-0.5625 h 0.5625 v 4.35937504 c 0,0.41015625 -0.07031,0.75 -0.210938,1.03124996 -0.140625,0.2695313 -0.351562,0.4804688 -0.632812,0.609375 -0.28125,0.140625 -0.644532,0.2109375 -1.078125,0.2109375 -0.316407,0 -0.597657,-0.011719 -0.855469,-0.070312 C 60.376281,1.8037109 60.141906,1.7451172 59.942688,1.6513672 V 0.99511719 C 60.141906,1.1123047 60.388,1.1943359 60.657531,1.2529297 c 0.269532,0.058594 0.5625,0.082031 0.867188,0.082031 0.375,0 0.65625,-0.1054687 0.867187,-0.3164062 0.210938,-0.22265626 0.328125,-0.51562501 0.328125,-0.89062501 v -0.1640625 c 0,-0.0703125 0,-0.15234375 0,-0.28125 0,-0.1171875 0.01172,-0.19921875 0.02344,-0.24609375 h -0.03516 c -0.152344,0.22265625 -0.339844,0.375 -0.5625,0.48046875 -0.222657,0.1171875 -0.480469,0.1640625 -0.761719,0.1640625 -0.5625,0 -0.996094,-0.19921875 -1.3125,-0.5859375 -0.304688,-0.38671875 -0.457031,-0.92578129 -0.457031,-1.62890629 0,-0.6796875 0.152343,-1.2304687 0.457031,-1.6289062 0.316406,-0.3984375 0.75,-0.609375 1.300781,-0.609375 z m 0.09375,0.5976562 c -0.234375,0 -0.445312,0.058594 -0.621094,0.1875 -0.164062,0.1289063 -0.292968,0.3164063 -0.375,0.5625 -0.09375,0.2460938 -0.128906,0.5390625 -0.128906,0.890625 0,0.5273438 0.09375,0.9375 0.28125,1.21875004 0.199219,0.28125 0.480469,0.421875 0.855469,0.421875 0.222656,0 0.410156,-0.0234375 0.5625,-0.0820313 0.152344,-0.0585938 0.28125,-0.140625 0.386719,-0.26953125 0.09375,-0.1171875 0.175781,-0.26953119 0.222656,-0.45703119 0.04687,-0.1875 0.07031,-0.4101563 0.07031,-0.6679688 v -0.1640625 c 0,-0.3867187 -0.04687,-0.703125 -0.128906,-0.9492187 -0.09375,-0.234375 -0.222656,-0.4101563 -0.410156,-0.5273438 -0.199219,-0.1171875 -0.421875,-0.1640625 -0.714844,-0.1640625 z m 6.864258,-0.515625 V -9.765625e-4 H 67.756164 L 67.650695,-0.56347656 h -0.03516 c -0.09375,0.140625 -0.210937,0.26953125 -0.351562,0.36328125 -0.140625,0.09375 -0.304688,0.1640625 -0.46875,0.2109375 -0.175782,0.046875 -0.351563,0.0703125 -0.539063,0.0703125 -0.339844,0 -0.632812,-0.046875 -0.867187,-0.1640625 -0.222657,-0.10546875 -0.398438,-0.28125 -0.515625,-0.515625 C 64.756164,-0.82128906 64.69757,-1.1142578 64.69757,-1.4775391 v -2.8125 h 0.714844 v 2.765625 c 0,0.3398438 0.07031,0.59765629 0.234375,0.76171879 0.152344,0.17578125 0.386719,0.2578125 0.714844,0.2578125 0.316406,0 0.574219,-0.0585938 0.75,-0.17578125 0.1875,-0.1171875 0.316406,-0.29296875 0.398437,-0.52734374 0.08203,-0.234375 0.117188,-0.515625 0.117188,-0.8554688 v -2.2265625 z m 6.067383,-0.082031 c 0.480468,0 0.84375,0.1289062 1.089843,0.375 0.234375,0.2460937 0.351563,0.65625 0.351563,1.2070312 V -9.765625e-4 H 75.147766 V -2.7666016 c 0,-0.328125 -0.07031,-0.5742187 -0.222657,-0.7617187 -0.140625,-0.1640625 -0.351562,-0.2460938 -0.65625,-0.2460938 -0.410156,0 -0.714843,0.1171875 -0.890625,0.3515625 -0.175781,0.2460938 -0.269531,0.5976563 -0.269531,1.0546875 V -9.765625e-4 H 72.417297 V -2.7666016 c 0,-0.2226562 -0.03516,-0.3984375 -0.09375,-0.5507812 -0.07031,-0.1523438 -0.164063,-0.2695313 -0.292969,-0.3515625 -0.128906,-0.070312 -0.292969,-0.1054688 -0.492187,-0.1054688 -0.292969,0 -0.527344,0.058594 -0.679688,0.1757813 -0.175781,0.1289062 -0.292969,0.3046875 -0.363281,0.5273437 -0.07031,0.234375 -0.105469,0.5039063 -0.105469,0.84375 V -9.765625e-4 H 69.686828 V -4.2900391 h 0.574219 l 0.09375,0.5859375 h 0.04687 c 0.08203,-0.1523437 0.199219,-0.2695312 0.328125,-0.375 0.128906,-0.09375 0.28125,-0.1757812 0.433594,-0.2226562 0.164062,-0.046875 0.328125,-0.070312 0.503906,-0.070312 0.328125,0 0.597656,0.070312 0.820312,0.1757812 0.222657,0.1171875 0.386719,0.3046875 0.492188,0.5507813 h 0.03516 c 0.140625,-0.2460938 0.339844,-0.4335938 0.585938,-0.5507813 0.246093,-0.1054687 0.515625,-0.1757812 0.796875,-0.1757812 z m 4.420898,0 c 0.375,0 0.679688,0.082031 0.949219,0.2460937 0.269531,0.1523438 0.46875,0.3867188 0.609375,0.6796875 0.140625,0.28125 0.210937,0.6328125 0.210937,1.0078125 v 0.4335938 h -2.929687 c 0,0.4804687 0.128906,0.8554687 0.363281,1.11328124 0.246094,0.24609375 0.574219,0.375 1.007813,0.375 0.269531,0 0.503906,-0.0234375 0.714843,-0.0820313 0.210938,-0.046875 0.433594,-0.1171875 0.65625,-0.22265625 v 0.62109375 c -0.222656,0.09375 -0.445312,0.1640625 -0.644531,0.2109375 -0.222656,0.046875 -0.480469,0.0703125 -0.761719,0.0703125 -0.410156,0 -0.773437,-0.0820312525 -1.078125,-0.24609375 -0.316406,-0.1640625 -0.5625,-0.41015625 -0.738281,-0.73828125 -0.175781,-0.32812494 -0.246094,-0.72656244 -0.246094,-1.20703124 0,-0.46875 0.07031,-0.8789062 0.222657,-1.2070312 0.164062,-0.3398438 0.375,-0.5976563 0.667968,-0.7851563 0.292969,-0.1757812 0.621094,-0.2695312 0.996094,-0.2695312 z m 0,0.5742187 c -0.339844,0 -0.609375,0.1171875 -0.808594,0.328125 -0.1875,0.2226563 -0.304687,0.515625 -0.339843,0.9023438 h 2.191406 c 0,-0.2460938 -0.04687,-0.4570313 -0.117188,-0.6445313 -0.08203,-0.1757812 -0.1875,-0.3164062 -0.339843,-0.421875 -0.152344,-0.1054687 -0.351563,-0.1640625 -0.585938,-0.1640625 z m 4.892578,-0.5742187 c 0.515625,0 0.902344,0.1289062 1.160156,0.375 0.257813,0.2460937 0.398438,0.65625 0.398438,1.2070312 V -9.765625e-4 H 84.566711 V -2.7431641 c 0,-0.3515625 -0.07031,-0.5976562 -0.222656,-0.7851562 -0.164063,-0.1640625 -0.410157,-0.2460938 -0.738282,-0.2460938 -0.480468,0 -0.808593,0.1289063 -0.984375,0.3984375 -0.175781,0.2695313 -0.269531,0.65625 -0.269531,1.1484375 V -9.765625e-4 H 81.648742 V -4.2900391 h 0.574219 l 0.09375,0.5859375 h 0.04687 c 0.09375,-0.1523437 0.210937,-0.2695312 0.351562,-0.375 0.140625,-0.09375 0.292969,-0.1757812 0.46875,-0.2226562 0.175782,-0.046875 0.351563,-0.070312 0.527344,-0.070312 z m 4.309571,3.87890624 c 0.105468,0 0.222656,-0.0117188 0.328125,-0.0234375 0.117187,-0.0234375 0.199218,-0.046875 0.28125,-0.0703125 v 0.5390625 c -0.08203,0.03515625 -0.1875,0.0703125 -0.328125,0.09375 -0.140625,0.0234375 -0.269532,0.03515625 -0.398438,0.03515625 -0.222656,0 -0.433594,-0.03515625 -0.621094,-0.1171875 -0.199218,-0.08203125 -0.351562,-0.2109375 -0.457031,-0.41015625 -0.117187,-0.1875 -0.175781,-0.4453125 -0.175781,-0.80859374 v -2.4960938 h -0.609375 v -0.328125 l 0.621094,-0.28125 0.269531,-0.9140625 h 0.421875 v 0.984375 h 1.242187 v 0.5390625 h -1.242187 v 2.484375 c 0,0.26953129 0.05859,0.45703129 0.1875,0.58593754 0.128906,0.12890625 0.28125,0.1875 0.480469,0.1875 z m 2.314453,-0.3515625 c -0.04687,0.19921875 -0.105469,0.3984375 -0.1875,0.609375 -0.07031,0.22265625 -0.152344,0.4453125 -0.246094,0.65625 -0.08203,0.22265625 -0.175781,0.421875 -0.257813,0.60937496 h -0.515625 c 0.04687,-0.19921871 0.105469,-0.41015621 0.152344,-0.64453121 0.04687,-0.234375 0.09375,-0.46875 0.140625,-0.69140625 0.04687,-0.22265625 0.07031,-0.43359375 0.105469,-0.62109375 h 0.75 z m 0,0"
         style="fill:#898989;fill-opacity:1;fill-rule:nonzero;stroke:none" />
      <path
         id="path14"
         d="M 95.661438,-3.7509766 H 94.583313 V -9.765625e-4 H 93.868469 V -3.7509766 h -0.75 v -0.328125 l 0.75,-0.234375 v -0.2460937 c 0,-0.375 0.05859,-0.6679688 0.164062,-0.9023438 0.117188,-0.2226562 0.269532,-0.3867187 0.480469,-0.5039062 0.210938,-0.1054688 0.457031,-0.1523438 0.75,-0.1523438 0.175781,0 0.328125,0.011719 0.46875,0.046875 0.140625,0.023437 0.257813,0.058594 0.363281,0.09375 l -0.175781,0.5507813 c -0.09375,-0.023437 -0.1875,-0.046875 -0.304687,-0.082031 -0.105469,-0.023437 -0.222657,-0.035156 -0.339844,-0.035156 -0.246094,0 -0.421875,0.082031 -0.527344,0.234375 -0.117187,0.1640625 -0.164062,0.3984375 -0.164062,0.7382812 v 0.28125 h 1.078125 z M 97.138,-4.2900391 V -9.765625e-4 H 96.434875 V -4.2900391 Z m -0.339844,-1.6054687 c 0.105469,0 0.199219,0.035156 0.28125,0.1054687 0.07031,0.070312 0.128907,0.1875 0.128907,0.3398438 0,0.1523437 -0.05859,0.2578125 -0.128907,0.3398437 -0.08203,0.070312 -0.175781,0.1054688 -0.28125,0.1054688 -0.128906,0 -0.222656,-0.035156 -0.304687,-0.1054688 -0.07031,-0.082031 -0.117188,-0.1875 -0.117188,-0.3398437 0,-0.1523438 0.04687,-0.2695313 0.117188,-0.3398438 0.08203,-0.070312 0.175781,-0.1054687 0.304687,-0.1054687 z m 0,0"
         style="fill:#898989;fill-opacity:1;fill-rule:nonzero;stroke:none" />
      <path
         id="path15"
         d="M 99.19757,-9.765625e-4 H 98.494445 V -6.0830078 H 99.19757 Z M 102.21222,-4.3720703 c 0.375,0 0.67969,0.082031 0.94922,0.2460937 0.26953,0.1523438 0.46875,0.3867188 0.60937,0.6796875 0.14063,0.28125 0.21094,0.6328125 0.21094,1.0078125 v 0.4335938 h -2.92969 c 0,0.4804687 0.12891,0.8554687 0.36328,1.11328124 0.2461,0.24609375 0.57422,0.375 1.00782,0.375 0.26953,0 0.5039,-0.0234375 0.71484,-0.0820313 0.21094,-0.046875 0.43359,-0.1171875 0.65625,-0.22265625 v 0.62109375 c -0.22266,0.09375 -0.44531,0.1640625 -0.64453,0.2109375 -0.22266,0.046875 -0.48047,0.0703125 -0.76172,0.0703125 -0.41016,0 -0.77344,-0.0820312525 -1.07812,-0.24609375 -0.31641,-0.1640625 -0.5625,-0.41015625 -0.73829,-0.73828125 -0.17578,-0.32812494 -0.24609,-0.72656244 -0.24609,-1.20703124 0,-0.46875 0.0703,-0.8789062 0.22266,-1.2070312 0.16406,-0.3398438 0.375,-0.5976563 0.66797,-0.7851563 0.29296,-0.1757812 0.62109,-0.2695312 0.99609,-0.2695312 z m 0,0.5742187 c -0.33984,0 -0.60938,0.1171875 -0.80859,0.328125 -0.1875,0.2226563 -0.30469,0.515625 -0.33985,0.9023438 h 2.19141 c 0,-0.2460938 -0.0469,-0.4570313 -0.11719,-0.6445313 -0.082,-0.1757812 -0.1875,-0.3164062 -0.33984,-0.421875 -0.15235,-0.1054687 -0.35157,-0.1640625 -0.58594,-0.1640625 z m 7.48828,3.7968750375 h -0.84375 L 105.79816,-4.7470703 h -0.0352 c 0.0117,0.1289062 0.0234,0.2695312 0.0352,0.4453125 0,0.1640625 0.0117,0.3398437 0.0234,0.5273437 0,0.1992188 0.0117,0.3867188 0.0117,0.5742188 v 3.1992187375 h -0.66797 V -5.7197266 h 0.83204 l 3.05859,4.73437504 h 0.0234 c 0,-0.0820312 -0.0117,-0.21093754 -0.0234,-0.38671874 0,-0.1640625 -0.0117,-0.3515625 -0.0234,-0.5625 -0.0117,-0.1992188 -0.0117,-0.375 -0.0117,-0.5507813 v -3.234375 h 0.67969 z M 112.7796,-4.3603516 c 0.51563,0 0.90235,0.1171875 1.16016,0.3398438 0.24609,0.234375 0.375,0.5976562 0.375,1.1015625 v 2.9179687375 h -0.51563 l -0.1289,-0.6093749975 h -0.0352 c -0.12891,0.1640625 -0.25781,0.29296875 -0.38672,0.3984375 -0.1289,0.09375 -0.28125,0.17578125 -0.44531,0.22265625 -0.17578,0.046875 -0.375,0.0703125 -0.60938,0.0703125 -0.25781,0 -0.49218,-0.046875 -0.70312,-0.140625 -0.19922,-0.08203125 -0.36328,-0.22265625 -0.48047,-0.41015625 -0.11719,-0.19921875 -0.17578,-0.43359375 -0.17578,-0.72656254 0,-0.421875 0.17578,-0.75 0.50391,-0.984375 0.33984,-0.234375 0.85546,-0.3632812 1.55859,-0.3867187 l 0.72656,-0.023437 v -0.2460938 c 0,-0.3632812 -0.082,-0.609375 -0.23437,-0.75 -0.15235,-0.140625 -0.375,-0.2109375 -0.65625,-0.2109375 -0.22266,0 -0.4336,0.046875 -0.63282,0.1054688 -0.21093,0.070312 -0.39843,0.140625 -0.57421,0.2226562 l -0.21094,-0.5273437 c 0.17578,-0.09375 0.41015,-0.1875 0.65625,-0.2578125 0.25781,-0.070312 0.52734,-0.1054688 0.80859,-0.1054688 z m 0.19922,2.2851563 c -0.52734,0.023437 -0.90234,0.1171875 -1.10156,0.2578125 -0.21094,0.1523437 -0.30469,0.3632812 -0.30469,0.6328125 0,0.23437499 0.0703,0.41015624 0.21094,0.52734374 0.14062,0.1171875 0.33984,0.1640625 0.57422,0.1640625 0.35156,0 0.65625,-0.09375 0.90234,-0.29296875 0.23438,-0.19921875 0.35156,-0.51562499 0.35156,-0.92578129 v -0.3867187 z m 7.34766,-2.296875 c 0.48047,0 0.84375,0.1289062 1.08984,0.375 0.23438,0.2460937 0.35156,0.65625 0.35156,1.2070312 v 2.7890625375 h -0.6914 V -2.7666016 c 0,-0.328125 -0.0703,-0.5742187 -0.22266,-0.7617187 -0.14062,-0.1640625 -0.35156,-0.2460938 -0.65625,-0.2460938 -0.41016,0 -0.71484,0.1171875 -0.89062,0.3515625 -0.17579,0.2460938 -0.26954,0.5976563 -0.26954,1.0546875 v 2.3671875375 h -0.6914 V -2.7666016 c 0,-0.2226562 -0.0352,-0.3984375 -0.0937,-0.5507812 -0.0703,-0.1523438 -0.16406,-0.2695313 -0.29297,-0.3515625 -0.12891,-0.070312 -0.29297,-0.1054688 -0.49219,-0.1054688 -0.29297,0 -0.52734,0.058594 -0.67969,0.1757813 -0.17578,0.1289062 -0.29296,0.3046875 -0.36328,0.5273437 -0.0703,0.234375 -0.10547,0.5039063 -0.10547,0.84375 v 2.2265625375 h -0.70312 V -4.2900391 h 0.57422 l 0.0937,0.5859375 h 0.0469 c 0.082,-0.1523437 0.19922,-0.2695312 0.32813,-0.375 0.1289,-0.09375 0.28125,-0.1757812 0.43359,-0.2226562 0.16406,-0.046875 0.32813,-0.070312 0.50391,-0.070312 0.32812,0 0.59765,0.070312 0.82031,0.1757812 0.22266,0.1171875 0.38672,0.3046875 0.49219,0.5507813 h 0.0351 c 0.14063,-0.2460938 0.33985,-0.4335938 0.58594,-0.5507813 0.2461,-0.1054687 0.51563,-0.1757812 0.79688,-0.1757812 z m 4.4209,0 c 0.375,0 0.67968,0.082031 0.94921,0.2460937 0.26954,0.1523438 0.46875,0.3867188 0.60938,0.6796875 0.14062,0.28125 0.21094,0.6328125 0.21094,1.0078125 v 0.4335938 h -2.92969 c 0,0.4804687 0.12891,0.8554687 0.36328,1.11328124 0.24609,0.24609375 0.57422,0.375 1.00781,0.375 0.26953,0 0.50391,-0.0234375 0.71485,-0.0820313 0.21093,-0.046875 0.43359,-0.1171875 0.65625,-0.22265625 v 0.62109375 c -0.22266,0.09375 -0.44532,0.1640625 -0.64453,0.2109375 -0.22266,0.046875 -0.48047,0.0703125 -0.76172,0.0703125 -0.41016,0 -0.77344,-0.0820312525 -1.07813,-0.24609375 -0.3164,-0.1640625 -0.5625,-0.41015625 -0.73828,-0.73828125 -0.17578,-0.32812504 -0.24609,-0.72656254 -0.24609,-1.20703134 0,-0.46875 0.0703,-0.8789062 0.22265,-1.2070312 0.16407,-0.3398438 0.375,-0.5976563 0.66797,-0.7851562 0.29297,-0.1757813 0.6211,-0.2695313 0.9961,-0.2695312 z m 0,0.5742187 c -0.33985,0 -0.60938,0.1171875 -0.8086,0.328125 -0.1875,0.2226563 -0.30469,0.515625 -0.33984,0.9023438 h 2.1914 c 0,-0.2460938 -0.0469,-0.4570313 -0.11718,-0.6445313 -0.082,-0.1757812 -0.1875,-0.3164062 -0.33985,-0.421875 -0.15234,-0.1054687 -0.35156,-0.1640625 -0.58593,-0.1640625 z m 5.62499,2.6132813 c 0,0.28124999 -0.0703,0.51562499 -0.19921,0.69140624 -0.15235,0.19921875 -0.33985,0.328125 -0.59766,0.43359375 -0.25781,0.09375 -0.5625,0.140625 -0.91406,0.140625 -0.30469,0 -0.5625,-0.0234375 -0.77344,-0.0703125 -0.21094,-0.046875 -0.41016,-0.1171875 -0.5625,-0.19921875 v -0.64453125 c 0.16406,0.0820313 0.375,0.1640625 0.60938,0.234375 0.24609,0.0820313 0.49218,0.10546875 0.74999,0.10546875 0.35157,0 0.60938,-0.046875 0.77344,-0.1640625 0.16406,-0.1171875 0.23438,-0.26953125 0.23438,-0.46875004 0,-0.09375 -0.0234,-0.1992187 -0.082,-0.28125 -0.0703,-0.082031 -0.16407,-0.1757812 -0.31641,-0.2578125 -0.15234,-0.082031 -0.375,-0.1757812 -0.65625,-0.2929687 -0.28125,-0.1054688 -0.51563,-0.1992188 -0.71484,-0.3164063 -0.19922,-0.1054687 -0.35157,-0.234375 -0.45703,-0.3867187 -0.10547,-0.140625 -0.15235,-0.328125 -0.15235,-0.5742188 0,-0.3632812 0.14063,-0.6445312 0.4336,-0.84375 0.30468,-0.1875 0.6914,-0.2929687 1.17187,-0.2929687 0.25781,0 0.50391,0.035156 0.72656,0.082031 0.22266,0.046875 0.44531,0.1171875 0.64453,0.2109375 l -0.24609,0.5507813 c -0.17578,-0.070312 -0.375,-0.1289063 -0.5625,-0.1875 -0.19922,-0.046875 -0.39844,-0.082031 -0.60938,-0.082031 -0.29296,0 -0.51562,0.046875 -0.66796,0.1523438 -0.15235,0.09375 -0.22266,0.2109375 -0.22266,0.375 0,0.1171875 0.0352,0.2226562 0.10547,0.3046875 0.0703,0.070312 0.1875,0.1523437 0.33984,0.234375 0.16406,0.082031 0.38672,0.1640625 0.65625,0.2695312 0.28125,0.1054688 0.50391,0.2109375 0.70313,0.3164063 0.1875,0.1171875 0.33984,0.234375 0.43359,0.3867187 0.10547,0.1523438 0.15234,0.3515625 0.15234,0.5742188 z m 0,0"
         style="fill:#898989;fill-opacity:1;fill-rule:nonzero;stroke:none" />
      <path
         id="path16"
         d="m 134.12237,1.6044922 h -3 v -7.3242188 h 3 v 0.5742188 h -0.84375 v 6.1523437 h 0.84375 z m -1.6289,-6.75 h -0.58594 v 6.1640625 h 0.58594 z m 0,0"
         style="fill:#898989;fill-opacity:1;fill-rule:nonzero;stroke:none" />
      <path
         id="path17"
         d="m 137.23663,-9.765625e-4 h -0.67968 V -3.9970703 c 0,-0.1523438 0,-0.28125 0,-0.3867188 0,-0.1054687 0,-0.1992187 0.0117,-0.3046875 0,-0.09375 0.0117,-0.1875 0.0117,-0.2929687 -0.082,0.09375 -0.16406,0.1640625 -0.22265,0.2226562 -0.0703,0.058594 -0.16407,0.1289063 -0.26953,0.2226563 l -0.60938,0.4921875 -0.36328,-0.46875 1.54687,-1.2070313 h 0.57422 z m 0,0"
         style="fill:#898989;fill-opacity:1;fill-rule:nonzero;stroke:none" />
      <path
         id="path18"
         d="m 142.2464,1.6044922 h -2.98828 V 1.0068359 h 0.84375 v -6.1523437 h -0.84375 v -0.5742188 h 2.98828 z m -0.77344,-0.5859375 v -6.1640625 h -0.58594 v 6.1640625 z m 0,0"
         style="fill:#898989;fill-opacity:1;fill-rule:nonzero;stroke:none" />
      <path
         id="path19"
         d="m 144.17413,-0.84472656 c -0.0469,0.19921875 -0.10547,0.3984375 -0.1875,0.609375 -0.0703,0.22265625 -0.15234,0.4453125 -0.24609,0.65625 -0.082,0.22265625 -0.17578,0.421875 -0.25781,0.60937496 h -0.51563 c 0.0469,-0.19921871 0.10547,-0.41015621 0.15235,-0.64453121 0.0469,-0.234375 0.0937,-0.46875 0.14062,-0.69140625 0.0469,-0.22265625 0.0703,-0.43359375 0.10547,-0.62109375 h 0.75 z m 6.13477,-0.33984374 c 0,0.28124999 -0.0703,0.51562499 -0.19922,0.69140624 -0.15234,0.19921875 -0.33984,0.328125 -0.59766,0.43359375 -0.25781,0.09375 -0.5625,0.140625 -0.91406,0.140625 -0.30469,0 -0.5625,-0.0234375 -0.77344,-0.0703125 -0.21093,-0.046875 -0.41015,-0.1171875 -0.5625,-0.19921875 v -0.64453125 c 0.16407,0.0820313 0.375,0.1640625 0.60938,0.234375 0.24609,0.0820313 0.49219,0.10546875 0.75,0.10546875 0.35156,0 0.60937,-0.046875 0.77344,-0.1640625 0.16406,-0.1171875 0.23437,-0.26953125 0.23437,-0.46875004 0,-0.09375 -0.0234,-0.1992187 -0.082,-0.28125 -0.0703,-0.082031 -0.16406,-0.1757812 -0.31641,-0.2578125 -0.15234,-0.082031 -0.375,-0.1757812 -0.65625,-0.2929687 -0.28125,-0.1054688 -0.51562,-0.1992188 -0.71484,-0.3164063 -0.19922,-0.1054687 -0.35156,-0.234375 -0.45703,-0.3867187 -0.10547,-0.140625 -0.15235,-0.328125 -0.15235,-0.5742188 0,-0.3632812 0.14063,-0.6445312 0.4336,-0.84375 0.30469,-0.1875 0.6914,-0.2929687 1.17187,-0.2929687 0.25782,0 0.50391,0.035156 0.72657,0.082031 0.22265,0.046875 0.44531,0.1171875 0.64453,0.2109375 l -0.2461,0.5507813 c -0.17578,-0.070312 -0.375,-0.1289063 -0.5625,-0.1875 -0.19922,-0.046875 -0.39843,-0.082031 -0.60937,-0.082031 -0.29297,0 -0.51563,0.046875 -0.66797,0.1523438 -0.15234,0.09375 -0.22266,0.2109375 -0.22266,0.375 0,0.1171875 0.0352,0.2226562 0.10547,0.3046875 0.0703,0.070312 0.1875,0.1523437 0.33985,0.234375 0.16406,0.082031 0.38671,0.1640625 0.65625,0.2695312 0.28125,0.1054688 0.5039,0.2109375 0.70312,0.3164063 0.1875,0.1171875 0.33984,0.234375 0.43359,0.3867187 0.10547,0.1523438 0.15235,0.3515625 0.15235,0.5742188 z m 1.74609,-3.1171875 c 0,0.1054687 -0.0117,0.2109375 -0.0117,0.3164062 -0.0117,0.1054688 -0.0234,0.2109375 -0.0234,0.28125 h 0.0469 c 0.082,-0.140625 0.19922,-0.2695312 0.33984,-0.3632812 0.14063,-0.09375 0.29297,-0.1640625 0.46875,-0.2109375 0.16407,-0.058594 0.33985,-0.082031 0.52735,-0.082031 0.33984,0 0.63281,0.058594 0.86719,0.1640625 0.22265,0.1171875 0.39843,0.28125 0.52734,0.5039063 0.10547,0.234375 0.17578,0.5273437 0.17578,0.9023437 v 2.7890625375 h -0.70312 V -2.7431641 c 0,-0.3515625 -0.0703,-0.5976562 -0.22266,-0.7851562 -0.16406,-0.1640625 -0.41016,-0.2460938 -0.73828,-0.2460938 -0.31641,0 -0.57422,0.058594 -0.75,0.1757813 -0.1875,0.1289062 -0.30469,0.3046875 -0.38672,0.5273437 -0.082,0.234375 -0.11719,0.515625 -0.11719,0.8554688 v 2.2148437375 h -0.70312 V -6.0830078 h 0.70312 z m 7.96582,2.1445312 c 0,0.3632813 -0.0469,0.6796875 -0.14062,0.9609375 -0.0937,0.26953129 -0.22266,0.50390629 -0.39844,0.69140629 -0.17578,0.1875 -0.38672,0.33984375 -0.63281,0.4453125 -0.2461,0.09375 -0.51563,0.140625 -0.82032,0.140625 -0.29296,0 -0.55078,-0.046875 -0.78515,-0.140625 -0.2461,-0.10546875 -0.45703,-0.2578125 -0.63281,-0.4453125 -0.17579,-0.1875 -0.31641,-0.421875 -0.41016,-0.69140629 -0.0937,-0.28125 -0.14063,-0.5976562 -0.14063,-0.9609375 0,-0.46875 0.0703,-0.8671875 0.23438,-1.1953125 0.16406,-0.328125 0.38672,-0.5742187 0.69141,-0.75 0.29296,-0.1757812 0.64453,-0.2695312 1.0664,-0.2695312 0.375,0 0.72656,0.09375 1.01953,0.2695312 0.29297,0.1757813 0.52735,0.421875 0.69141,0.75 0.17578,0.328125 0.25781,0.7265625 0.25781,1.1953125 z m -3.23437,0 c 0,0.3398438 0.0351,0.6328125 0.1289,0.8789063 0.082,0.2578125 0.22266,0.44531249 0.41016,0.57421874 0.1875,0.140625 0.42187,0.19921875 0.71484,0.19921875 0.29297,0 0.51563,-0.0585938 0.71485,-0.19921875 0.17578,-0.12890625 0.3164,-0.31640624 0.41015,-0.57421874 0.082,-0.2460938 0.12891,-0.5390625 0.12891,-0.8789063 0,-0.328125 -0.0469,-0.6328125 -0.12891,-0.8671875 -0.10547,-0.2460937 -0.23437,-0.421875 -0.42187,-0.5507812 -0.1875,-0.1289063 -0.42188,-0.1992188 -0.71485,-0.1992188 -0.43359,0 -0.76171,0.140625 -0.94921,0.4335938 -0.19922,0.28125 -0.29297,0.6796875 -0.29297,1.1835937 z m 7.93652,-2.1328125 v 4.2890625375 h -0.57422 L 164.04327,-0.56347656 h -0.0352 c -0.0937,0.140625 -0.21094,0.26953125 -0.35157,0.36328125 -0.14062,0.09375 -0.30468,0.1640625 -0.46875,0.2109375 -0.17578,0.046875 -0.35156,0.0703125 -0.53906,0.0703125 -0.33984,0 -0.63281,-0.046875 -0.86719,-0.1640625 -0.22265,-0.10546875 -0.39843,-0.28125 -0.51562,-0.515625 -0.11719,-0.22265625 -0.17578,-0.51562499 -0.17578,-0.87890629 v -2.8125 h 0.71484 v 2.765625 c 0,0.3398438 0.0703,0.59765629 0.23438,0.76171879 0.15234,0.17578125 0.38672,0.2578125 0.71484,0.2578125 0.31641,0 0.57422,-0.0585938 0.75,-0.17578125 0.1875,-0.1171875 0.31641,-0.29296875 0.39844,-0.52734374 0.082,-0.234375 0.11719,-0.515625 0.11719,-0.8554688 v -2.2265625 z m 2.03613,4.2890625375 h -0.70312 V -6.0830078 h 0.70312 z m 2.88282,0.0820312525 c -0.53907,0 -0.96094,-0.1875 -1.27735,-0.55078125 -0.32812,-0.375 -0.48047,-0.93750004 -0.48047,-1.66406254 0,-0.7382812 0.15235,-1.2890625 0.48047,-1.6640625 0.31641,-0.3867187 0.75,-0.5742187 1.28906,-0.5742187 0.22266,0 0.41016,0.035156 0.57422,0.09375 0.16407,0.046875 0.30469,0.1289062 0.4336,0.2226562 0.11718,0.09375 0.22265,0.1992188 0.3164,0.3164063 h 0.0469 c -0.0117,-0.058594 -0.0117,-0.1640625 -0.0352,-0.3046875 -0.0117,-0.140625 -0.0117,-0.2460938 -0.0117,-0.328125 v -1.7109375 h 0.70313 v 6.0820312375 h -0.57422 L 171.013,-0.57519531 h -0.0352 c -0.0937,0.12890625 -0.19922,0.234375 -0.3164,0.33984375 -0.12891,0.09375 -0.26953,0.17578125 -0.4336,0.22265625 -0.17578,0.0703125 -0.36328,0.09375 -0.58593,0.09375 z m 0.10546,-0.5859375 c 0.45704,0 0.77344,-0.1171875 0.96094,-0.36328125 0.17578,-0.25781254 0.28125,-0.63281254 0.28125,-1.13671874 v -0.1289063 c 0,-0.5273437 -0.0937,-0.9375 -0.26953,-1.21875 -0.17578,-0.2929687 -0.50391,-0.4335937 -0.97266,-0.4335937 -0.38671,0 -0.66796,0.1523437 -0.85546,0.4570312 -0.19922,0.3046875 -0.28125,0.703125 -0.28125,1.2070313 0,0.515625 0.082,0.9140625 0.28125,1.19531249 0.1875,0.28125 0.48046,0.421875 0.85546,0.421875 z m 6.0586,-4.10156249 c 0,0.1875 -0.0117,0.3515625 -0.0117,0.515625 -0.0117,0.1640625 -0.0234,0.28125 -0.0234,0.3632812 h 0.0352 c 0.11719,-0.1757812 0.29297,-0.328125 0.5039,-0.4570312 0.21094,-0.1171875 0.49219,-0.1757813 0.83204,-0.1757813 0.52734,0 0.94921,0.1875 1.27734,0.5625 0.31641,0.3632813 0.48047,0.9140625 0.48047,1.6523438 0,0.4921875 -0.0703,0.9023437 -0.22266,1.23046874 -0.14062,0.33984375 -0.35156,0.5859375 -0.60937,0.75 -0.26953,0.1640624975 -0.57422,0.24609375 -0.92578,0.24609375 -0.33985,0 -0.6211,-0.05859375 -0.83204,-0.1875 -0.21093,-0.1171875 -0.38671,-0.2578125 -0.5039,-0.43359375 h -0.0586 l -0.14062,0.5390624975 h -0.50391 V -6.0830078 h 0.70313 z m 1.20703,0.8320312 c -0.30469,0 -0.53906,0.058594 -0.71484,0.1757813 -0.17579,0.1054687 -0.30469,0.28125 -0.375,0.5273437 -0.082,0.234375 -0.11719,0.5273438 -0.11719,0.9023438 v 0.035156 c 0,0.5273438 0.082,0.9375 0.25781,1.20703129 0.17578,0.28125 0.49219,0.421875 0.97266,0.421875 0.375,0 0.65625,-0.140625 0.85547,-0.421875 0.1875,-0.28124999 0.28125,-0.69140629 0.28125,-1.23046879 0,-0.5273437 -0.0937,-0.9375 -0.28125,-1.21875 -0.19922,-0.2695312 -0.48047,-0.3984375 -0.87891,-0.3984373 z m 4.66406,-0.5976562 c 0.375,0 0.67969,0.082031 0.94922,0.2460937 0.26953,0.1523438 0.46875,0.3867188 0.60938,0.6796875 0.14062,0.28125 0.21093,0.6328125 0.21093,1.0078125 v 0.4335938 h -2.92968 c 0,0.4804687 0.1289,0.8554687 0.36328,1.11328124 0.24609,0.24609375 0.57422,0.375 1.00781,0.375 0.26953,0 0.50391,-0.0234375 0.71484,-0.0820313 0.21094,-0.046875 0.4336,-0.1171875 0.65625,-0.22265625 v 0.62109375 c -0.22265,0.09375 -0.44531,0.1640625 -0.64453,0.2109375 -0.22265,0.046875 -0.48047,0.0703125 -0.76172,0.0703125 -0.41015,0 -0.77343,-0.0820312525 -1.07812,-0.24609375 -0.31641,-0.1640625 -0.5625,-0.41015625 -0.73828,-0.73828125 -0.17578,-0.32812494 -0.2461,-0.72656244 -0.2461,-1.20703124 0,-0.46875 0.0703,-0.8789062 0.22266,-1.2070312 0.16406,-0.3398438 0.375,-0.5976563 0.66797,-0.7851563 0.29297,-0.1757812 0.62109,-0.2695312 0.99609,-0.2695312 z m 0,0.5742187 c -0.33984,0 -0.60937,0.1171875 -0.80859,0.328125 -0.1875,0.2226563 -0.30469,0.515625 -0.33985,0.9023438 h 2.19141 c 0,-0.2460938 -0.0469,-0.4570313 -0.11719,-0.6445313 -0.082,-0.1757812 -0.1875,-0.3164062 -0.33984,-0.421875 -0.15234,-0.1054687 -0.35156,-0.1640625 -0.58594,-0.1640625 z m 6.53614,-0.5625 c 0.51562,0 0.90234,0.1171875 1.16015,0.3398438 0.2461,0.234375 0.375,0.5976562 0.375,1.1015625 v 2.9179687375 h -0.51562 L 189.10382,-0.61035156 h -0.0352 c -0.1289,0.1640625 -0.25781,0.29296875 -0.38671,0.3984375 -0.12891,0.09375 -0.28125,0.17578125 -0.44532,0.22265625 -0.17578,0.046875 -0.375,0.0703125 -0.60937,0.0703125 -0.25781,0 -0.49219,-0.046875 -0.70313,-0.140625 -0.19922,-0.08203125 -0.36328,-0.22265625 -0.48047,-0.41015625 -0.11718,-0.19921875 -0.17578,-0.43359375 -0.17578,-0.72656254 0,-0.421875 0.17578,-0.75 0.50391,-0.984375 0.33984,-0.234375 0.85547,-0.3632812 1.55859,-0.3867187 l 0.72657,-0.023437 v -0.2460938 c 0,-0.3632812 -0.082,-0.609375 -0.23438,-0.75 -0.15234,-0.140625 -0.375,-0.2109375 -0.65625,-0.2109375 -0.22266,0 -0.43359,0.046875 -0.63281,0.1054688 -0.21094,0.070312 -0.39844,0.140625 -0.57422,0.2226562 l -0.21094,-0.5273437 c 0.17578,-0.09375 0.41016,-0.1875 0.65625,-0.2578125 0.25781,-0.070312 0.52735,-0.1054688 0.8086,-0.1054688 z m 0.19921,2.2851563 c -0.52734,0.023437 -0.90234,0.1171875 -1.10156,0.2578125 -0.21094,0.1523437 -0.30469,0.3632812 -0.30469,0.6328125 0,0.23437499 0.0703,0.41015624 0.21094,0.52734374 0.14063,0.1171875 0.33985,0.1640625 0.57422,0.1640625 0.35156,0 0.65625,-0.09375 0.90234,-0.29296875 0.23438,-0.19921875 0.35157,-0.51562499 0.35157,-0.92578129 v -0.3867187 z m 5.68946,2.0742187375 -1.62891,-4.2890625375 h 0.75 l 0.91406,2.53125 c 0.0352,0.1171875 0.0937,0.2460938 0.14063,0.3867188 0.0469,0.1523437 0.082,0.2929687 0.1289,0.42187499 0.0234,0.12890625 0.0586,0.234375 0.0703,0.328125 h 0.0352 c 0.0234,-0.09375 0.0469,-0.19921875 0.0937,-0.33984375 0.0352,-0.12890624 0.082,-0.26953124 0.12891,-0.41015624 0.0469,-0.1523438 0.0937,-0.28125 0.14062,-0.3867188 l 0.91407,-2.53125 h 0.75 l -1.62891,4.2890625375 z M 198.84503,-4.3603516 c 0.51563,0 0.90234,0.1171875 1.16016,0.3398438 0.24609,0.234375 0.375,0.5976562 0.375,1.1015625 v 2.9179687375 h -0.51563 l -0.1289,-0.6093749975 h -0.0352 c -0.12891,0.1640625 -0.25781,0.29296875 -0.38672,0.3984375 -0.12891,0.09375 -0.28125,0.17578125 -0.44531,0.22265625 -0.17578,0.046875 -0.375,0.0703125 -0.60938,0.0703125 -0.25781,0 -0.49218,-0.046875 -0.70312,-0.140625 -0.19922,-0.08203125 -0.36328,-0.22265625 -0.48047,-0.41015625 -0.11719,-0.19921875 -0.17578,-0.43359375 -0.17578,-0.72656254 0,-0.421875 0.17578,-0.75 0.5039,-0.984375 0.33985,-0.234375 0.85547,-0.3632812 1.5586,-0.3867187 l 0.72656,-0.023437 v -0.2460938 c 0,-0.3632812 -0.082,-0.609375 -0.23437,-0.75 -0.15235,-0.140625 -0.375,-0.2109375 -0.65625,-0.2109375 -0.22266,0 -0.4336,0.046875 -0.63282,0.1054688 -0.21093,0.070312 -0.39843,0.140625 -0.57422,0.2226562 l -0.21093,-0.5273437 c 0.17578,-0.09375 0.41015,-0.1875 0.65625,-0.2578125 0.25781,-0.070312 0.52734,-0.1054688 0.80859,-0.1054688 z m 0.19922,2.2851563 c -0.52734,0.023437 -0.90234,0.1171875 -1.10156,0.2578125 -0.21094,0.1523437 -0.30469,0.3632812 -0.30469,0.6328125 0,0.23437499 0.0703,0.41015624 0.21094,0.52734374 0.14062,0.1171875 0.33984,0.1640625 0.57422,0.1640625 0.35156,0 0.65625,-0.09375 0.90234,-0.29296875 0.23437,-0.19921875 0.35156,-0.51562499 0.35156,-0.92578129 v -0.3867187 z m 3.36328,2.0742187375 h -0.70312 V -6.0830078 h 0.70312 z m 2.0625,-4.2890625375 v 4.2890625375 h -0.70312 V -4.2900391 Z m -0.33984,-1.6054687 c 0.10547,0 0.19922,0.035156 0.28125,0.1054687 0.082,0.070312 0.1289,0.1875 0.1289,0.3398438 0,0.1523437 -0.0469,0.2578125 -0.1289,0.3398437 -0.082,0.070312 -0.17578,0.1054688 -0.28125,0.1054688 -0.11719,0 -0.22266,-0.035156 -0.29297,-0.1054688 -0.082,-0.082031 -0.12891,-0.1875 -0.12891,-0.3398437 0,-0.1523438 0.0469,-0.2695313 0.12891,-0.3398438 0.0703,-0.070312 0.17578,-0.1054687 0.29297,-0.1054687 z m 3.22558,5.97656249 c -0.53906,0 -0.96093,-0.1875 -1.27734,-0.55078125 -0.32813,-0.375 -0.48047,-0.93750004 -0.48047,-1.66406254 0,-0.7382812 0.15234,-1.2890625 0.48047,-1.6640625 0.31641,-0.3867187 0.75,-0.5742187 1.28906,-0.5742187 0.22266,0 0.41016,0.035156 0.57422,0.09375 0.16406,0.046875 0.30469,0.1289062 0.43359,0.2226562 0.11719,0.09375 0.22266,0.1992188 0.31641,0.3164063 h 0.0469 c -0.0117,-0.058594 -0.0117,-0.1640625 -0.0352,-0.3046875 -0.0117,-0.140625 -0.0117,-0.2460938 -0.0117,-0.328125 v -1.7109375 h 0.70313 v 6.0820312375 h -0.57422 l -0.0937,-0.5742187475 h -0.0352 c -0.0937,0.12890625 -0.19922,0.234375 -0.31641,0.33984375 -0.1289,0.09375 -0.26953,0.17578125 -0.43359,0.22265625 -0.17578,0.0703125 -0.36328,0.09375 -0.58594,0.09375 z m 0.10547,-0.5859375 c 0.45703,0 0.77344,-0.1171875 0.96094,-0.36328125 0.17578,-0.25781254 0.28125,-0.63281254 0.28125,-1.13671874 v -0.1289063 c 0,-0.5273437 -0.0937,-0.9375 -0.26953,-1.21875 -0.17578,-0.2929687 -0.50391,-0.4335937 -0.97266,-0.4335937 -0.38672,0 -0.66797,0.1523437 -0.85547,0.4570312 -0.19922,0.3046875 -0.28125,0.703125 -0.28125,1.2070313 0,0.515625 0.082,0.9140625 0.28125,1.19531249 0.1875,0.28125 0.48047,0.421875 0.85547,0.421875 z m 8.13574,-0.67968749 c 0,0.28124999 -0.0703,0.51562499 -0.19921,0.69140624 -0.15235,0.19921875 -0.33985,0.328125 -0.59766,0.43359375 -0.25781,0.09375 -0.5625,0.140625 -0.91406,0.140625 -0.30469,0 -0.5625,-0.0234375 -0.77344,-0.0703125 -0.21094,-0.046875 -0.41016,-0.1171875 -0.5625,-0.19921875 v -0.64453125 c 0.16406,0.0820313 0.375,0.1640625 0.60937,0.234375 0.2461,0.0820313 0.49219,0.10546875 0.75,0.10546875 0.35157,0 0.60938,-0.046875 0.77344,-0.1640625 0.16406,-0.1171875 0.23438,-0.26953125 0.23438,-0.46875004 0,-0.09375 -0.0234,-0.1992187 -0.082,-0.28125 -0.0703,-0.082031 -0.16407,-0.1757812 -0.31641,-0.2578125 -0.15234,-0.082031 -0.375,-0.1757812 -0.65625,-0.2929687 -0.28125,-0.1054688 -0.51563,-0.1992188 -0.71484,-0.3164063 -0.19922,-0.1054687 -0.35157,-0.234375 -0.45704,-0.3867187 -0.10546,-0.140625 -0.15234,-0.328125 -0.15234,-0.5742188 0,-0.3632812 0.14063,-0.6445312 0.43359,-0.84375 0.30469,-0.1875 0.69141,-0.2929687 1.17188,-0.2929687 0.25781,0 0.50391,0.035156 0.72656,0.082031 0.22266,0.046875 0.44531,0.1171875 0.64453,0.2109375 l -0.24609,0.5507813 c -0.17578,-0.070312 -0.375,-0.1289063 -0.5625,-0.1875 -0.19922,-0.046875 -0.39844,-0.082031 -0.60938,-0.082031 -0.29296,0 -0.51562,0.046875 -0.66796,0.1523438 -0.15235,0.09375 -0.22266,0.2109375 -0.22266,0.375 0,0.1171875 0.0352,0.2226562 0.10547,0.3046875 0.0703,0.070312 0.1875,0.1523437 0.33984,0.234375 0.16406,0.082031 0.38672,0.1640625 0.65625,0.2695312 0.28125,0.1054688 0.50391,0.2109375 0.70313,0.3164063 0.1875,0.1171875 0.33984,0.234375 0.43359,0.3867187 0.10547,0.1523438 0.15234,0.3515625 0.15234,0.5742188 z m 2.47266,0.69140624 c 0.10547,0 0.22266,-0.0117188 0.32813,-0.0234375 0.11718,-0.0234375 0.19921,-0.046875 0.28125,-0.0703125 v 0.5390625 c -0.082,0.03515625 -0.1875,0.0703125 -0.32813,0.09375 -0.14062,0.0234375 -0.26953,0.03515625 -0.39844,0.03515625 -0.22265,0 -0.43359,-0.03515625 -0.62109,-0.1171875 -0.19922,-0.08203125 -0.35156,-0.2109375 -0.45703,-0.41015625 -0.11719,-0.1875 -0.17578,-0.4453125 -0.17578,-0.80859374 v -2.4960938 h -0.60938 v -0.328125 l 0.6211,-0.28125 0.26953,-0.9140625 h 0.42187 v 0.984375 h 1.24219 v 0.5390625 h -1.24219 v 2.484375 c 0,0.26953129 0.0586,0.45703129 0.1875,0.58593754 0.12891,0.12890625 0.28125,0.1875 0.48047,0.1875 z m 3.46289,-3.87890624 c 0.082,0 0.15234,0.011719 0.25781,0.011719 0.0937,0.011719 0.17578,0.023437 0.2461,0.035156 l -0.0937,0.65625 c -0.0703,-0.023437 -0.15235,-0.035156 -0.22266,-0.046875 -0.082,-0.011719 -0.16406,-0.011719 -0.23437,-0.011719 -0.17579,0 -0.32813,0.035156 -0.48047,0.1054688 -0.15235,0.070312 -0.28125,0.1640625 -0.39844,0.2929687 -0.11719,0.1289063 -0.21094,0.2695313 -0.28125,0.4453125 -0.0586,0.1757813 -0.0937,0.375 -0.0937,0.5976563 v 2.2851562375 h -0.70313 V -4.2900391 h 0.57422 l 0.082,0.7851563 h 0.0352 c 0.082,-0.1640625 0.19922,-0.3046875 0.32813,-0.4335938 0.1289,-0.1289062 0.26953,-0.234375 0.43359,-0.3164062 0.16406,-0.082031 0.35156,-0.1171875 0.55078,-0.1171875 z m 1.97754,0.082031 v 4.2890625375 h -0.70312 V -4.2900391 Z m -0.33984,-1.6054687 c 0.10547,0 0.19922,0.035156 0.28125,0.1054687 0.082,0.070312 0.1289,0.1875 0.1289,0.3398438 0,0.1523437 -0.0469,0.2578125 -0.1289,0.3398437 -0.082,0.070312 -0.17578,0.1054688 -0.28125,0.1054688 -0.11719,0 -0.22266,-0.035156 -0.29297,-0.1054688 -0.082,-0.082031 -0.12891,-0.1875 -0.12891,-0.3398437 0,-0.1523438 0.0469,-0.2695313 0.12891,-0.3398438 0.0703,-0.070312 0.17578,-0.1054687 0.29297,-0.1054687 z m 3.76464,1.5234375 c 0.51563,0 0.90235,0.1289062 1.16016,0.375 0.25781,0.2460937 0.39844,0.65625 0.39844,1.2070312 v 2.7890625375 h -0.70313 V -2.7431641 c 0,-0.3515625 -0.0703,-0.5976562 -0.22265,-0.7851562 -0.16407,-0.1640625 -0.41016,-0.2460938 -0.73828,-0.2460938 -0.48047,0 -0.8086,0.1289063 -0.98438,0.3984375 -0.17578,0.2695313 -0.26953,0.65625 -0.26953,1.1484375 v 2.2265625375 h -0.70313 V -4.2900391 h 0.57422 l 0.0937,0.5859375 h 0.0469 c 0.0937,-0.1523437 0.21094,-0.2695312 0.35156,-0.375 0.14063,-0.09375 0.29297,-0.1757812 0.46875,-0.2226562 0.17578,-0.046875 0.35156,-0.070312 0.52734,-0.070312 z m 4.40333,0 c 0.28125,0 0.53906,0.058594 0.76171,0.1640625 0.22266,0.1054687 0.42188,0.2695312 0.58594,0.4804687 h 0.0352 l 0.0937,-0.5625 h 0.5625 v 4.35937504 c 0,0.41015625 -0.0703,0.75 -0.21094,1.03124996 -0.14062,0.2695313 -0.35156,0.4804688 -0.63281,0.609375 -0.28125,0.140625 -0.64453,0.2109375 -1.07813,0.2109375 -0.3164,0 -0.59765,-0.011719 -0.85547,-0.070312 -0.25781,-0.046875 -0.49218,-0.1054687 -0.6914,-0.1992187 V 0.99511719 c 0.19922,0.11718751 0.44531,0.19921871 0.71484,0.25781251 0.26953,0.058594 0.5625,0.082031 0.86719,0.082031 0.375,0 0.65625,-0.1054687 0.86719,-0.3164062 0.21093,-0.22265626 0.32812,-0.51562501 0.32812,-0.89062501 v -0.1640625 c 0,-0.0703125 0,-0.15234375 0,-0.28125 0,-0.1171875 0.0117,-0.19921875 0.0234,-0.24609375 h -0.0352 c -0.15234,0.22265625 -0.33984,0.375 -0.5625,0.48046875 -0.22265,0.1171875 -0.48047,0.1640625 -0.76172,0.1640625 -0.5625,0 -0.99609,-0.19921875 -1.3125,-0.5859375 -0.30468,-0.38671875 -0.45703,-0.92578129 -0.45703,-1.62890629 0,-0.6796875 0.15235,-1.2304687 0.45703,-1.6289062 0.31641,-0.3984375 0.75,-0.609375 1.30079,-0.609375 z m 0.0937,0.5976562 c -0.23438,0 -0.44532,0.058594 -0.6211,0.1875 -0.16406,0.1289063 -0.29297,0.3164063 -0.375,0.5625 -0.0937,0.2460938 -0.1289,0.5390625 -0.1289,0.890625 0,0.5273438 0.0937,0.9375 0.28125,1.21875004 0.19921,0.28125 0.48046,0.421875 0.85546,0.421875 0.22266,0 0.41016,-0.0234375 0.5625,-0.0820313 0.15235,-0.0585938 0.28125,-0.140625 0.38672,-0.26953125 0.0937,-0.1171875 0.17578,-0.26953129 0.22266,-0.45703129 0.0469,-0.1875 0.0703,-0.4101563 0.0703,-0.6679688 v -0.1640625 c 0,-0.3867187 -0.0469,-0.703125 -0.1289,-0.9492187 -0.0937,-0.234375 -0.22266,-0.4101563 -0.41016,-0.5273438 -0.19922,-0.1171875 -0.42188,-0.1640625 -0.71484,-0.1640625 z m 9.08496,1.6171875 c 0,0.3632813 -0.0469,0.6796875 -0.14063,0.9609375 -0.0937,0.26953129 -0.22266,0.50390629 -0.39844,0.69140629 -0.17578,0.1875 -0.38672,0.33984375 -0.63281,0.4453125 -0.24609,0.09375 -0.51562,0.140625 -0.82031,0.140625 -0.29297,0 -0.55078,-0.046875 -0.78516,-0.140625 -0.24609,-0.10546875 -0.45703,-0.2578125 -0.63281,-0.4453125 -0.17578,-0.1875 -0.31641,-0.421875 -0.41016,-0.69140629 -0.0937,-0.28125 -0.14062,-0.5976562 -0.14062,-0.9609375 0,-0.46875 0.0703,-0.8671875 0.23437,-1.1953125 0.16407,-0.328125 0.38672,-0.5742187 0.69141,-0.75 0.29297,-0.1757812 0.64453,-0.2695312 1.06641,-0.2695312 0.375,0 0.72656,0.09375 1.01953,0.2695312 0.29297,0.1757813 0.52734,0.421875 0.6914,0.75 0.17578,0.328125 0.25782,0.7265625 0.25782,1.1953125 z m -3.23438,0 c 0,0.3398438 0.0352,0.6328125 0.12891,0.8789063 0.082,0.2578125 0.22265,0.44531249 0.41015,0.57421874 0.1875,0.140625 0.42188,0.19921875 0.71485,0.19921875 0.29297,0 0.51562,-0.0585938 0.71484,-0.19921875 0.17578,-0.12890625 0.31641,-0.31640624 0.41016,-0.57421874 0.082,-0.2460938 0.1289,-0.5390625 0.1289,-0.8789063 0,-0.328125 -0.0469,-0.6328125 -0.1289,-0.8671875 -0.10547,-0.2460937 -0.23438,-0.421875 -0.42188,-0.5507812 -0.1875,-0.1289063 -0.42187,-0.1992188 -0.71484,-0.1992188 -0.4336,0 -0.76172,0.140625 -0.94922,0.4335938 -0.19922,0.28125 -0.29297,0.6796875 -0.29297,1.1835937 z m 6.35449,-2.2148437 c 0.082,0 0.15235,0.011719 0.25782,0.011719 0.0937,0.011719 0.17578,0.023437 0.24609,0.035156 l -0.0937,0.65625 c -0.0703,-0.023437 -0.15234,-0.035156 -0.22266,-0.046875 -0.082,-0.011719 -0.16406,-0.011719 -0.23437,-0.011719 -0.17578,0 -0.32813,0.035156 -0.48047,0.1054688 -0.15234,0.070312 -0.28125,0.1640625 -0.39844,0.2929687 -0.11719,0.1289063 -0.21094,0.2695313 -0.28125,0.4453125 -0.0586,0.1757813 -0.0937,0.375 -0.0937,0.5976563 v 2.2851562375 h -0.70312 V -4.2900391 h 0.57422 l 0.082,0.7851563 h 0.0352 c 0.082,-0.1640625 0.19922,-0.3046875 0.32813,-0.4335938 0.1289,-0.1289062 0.26953,-0.234375 0.43359,-0.3164062 0.16406,-0.082031 0.35156,-0.1171875 0.55078,-0.1171875 z m 4.17481,4.3710937375 h -0.72656 V -5.7197266 h 3.19921 v 0.6328125 h -2.47265 v 2.0273438 h 2.32031 v 0.6328125 h -2.32031 z M 251.84601,-4.2900391 v 4.2890625375 h -0.70313 V -4.2900391 Z m -0.33985,-1.6054687 c 0.10547,0 0.19922,0.035156 0.28125,0.1054687 0.082,0.070312 0.12891,0.1875 0.12891,0.3398438 0,0.1523437 -0.0469,0.2578125 -0.12891,0.3398437 -0.082,0.070312 -0.17578,0.1054688 -0.28125,0.1054688 -0.11718,0 -0.22265,-0.035156 -0.29296,-0.1054688 -0.082,-0.082031 -0.12891,-0.1875 -0.12891,-0.3398437 0,-0.1523438 0.0469,-0.2695313 0.12891,-0.3398438 0.0703,-0.070312 0.17578,-0.1054687 0.29296,-0.1054687 z m 2.40528,5.8945312375 h -0.70313 V -6.0830078 h 0.70313 z M 256.92316,-4.3720703 c 0.375,0 0.67968,0.082031 0.94922,0.2460937 0.26953,0.1523438 0.46875,0.3867188 0.60937,0.6796875 0.14063,0.28125 0.21094,0.6328125 0.21094,1.0078125 v 0.4335938 H 255.763 c 0,0.4804687 0.12891,0.8554687 0.36328,1.11328124 0.2461,0.24609375 0.57422,0.375 1.00781,0.375 0.26954,0 0.50391,-0.0234375 0.71485,-0.0820313 0.21094,-0.046875 0.43359,-0.1171875 0.65625,-0.22265625 v 0.62109375 c -0.22266,0.09375 -0.44531,0.1640625 -0.64453,0.2109375 -0.22266,0.046875 -0.48047,0.0703125 -0.76172,0.0703125 -0.41016,0 -0.77344,-0.0820312525 -1.07813,-0.24609375 -0.3164,-0.1640625 -0.5625,-0.41015625 -0.73828,-0.73828125 -0.17578,-0.32812494 -0.24609,-0.72656244 -0.24609,-1.20703124 0,-0.46875 0.0703,-0.8789062 0.22265,-1.2070312 0.16407,-0.3398438 0.375,-0.5976563 0.66797,-0.7851563 0.29297,-0.1757812 0.6211,-0.2695312 0.9961,-0.2695312 z m 0,0.5742187 c -0.33985,0 -0.60938,0.1171875 -0.8086,0.328125 -0.1875,0.2226563 -0.30469,0.515625 -0.33984,0.9023438 h 2.19141 c 0,-0.2460938 -0.0469,-0.4570313 -0.11719,-0.6445313 -0.082,-0.1757812 -0.1875,-0.3164062 -0.33985,-0.421875 -0.15234,-0.1054687 -0.35156,-0.1640625 -0.58593,-0.1640625 z m 2.73047,3.36328129 c 0,-0.1875 0.0469,-0.33984375 0.14062,-0.41015625 0.10547,-0.0820313 0.21094,-0.12890625 0.35156,-0.12890625 0.12891,0 0.25782,0.046875 0.35157,0.12890625 0.0937,0.0703125 0.15234,0.22265625 0.15234,0.41015625 0,0.19921875 -0.0586,0.33984375 -0.15234,0.421875 -0.0937,0.08203125 -0.22266,0.12890625 -0.35157,0.12890625 -0.14062,0 -0.24609,-0.046875 -0.35156,-0.12890625 -0.0937,-0.08203125 -0.14062,-0.22265625 -0.14062,-0.421875 z m 0,0"
         style="fill:#898989;fill-opacity:1;fill-rule:nonzero;stroke:none" />
    </g>
  </g>
</svg>
